<svg xmlns="http://www.w3.org/2000/svg" xmlns:xlink="http://www.w3.org/1999/xlink" width="113" viewBox="0 0 84.75 84.749997" height="113" preserveAspectRatio="xMidYMid meet"><defs><clipPath id="id1"><path d="M 7 2.816406 L 76 2.816406 L 76 80.289062 L 7 80.289062 Z M 7 2.816406 " clip-rule="nonzero"></path></clipPath></defs><g clip-path="url(#id1)"><path fill="rgb(71.369934%, 63.139343%, 47.059631%)" d="M 72.949219 59.675781 C 71.882812 61.53125 68.9375 62.34375 64.644531 62.039062 C 64.53125 62.015625 64.414062 62.007812 64.296875 62.015625 C 63.066406 61.910156 61.722656 61.71875 60.289062 61.4375 C 58.316406 61.046875 56.230469 60.496094 54.070312 59.804688 C 54.683594 56.546875 55.132812 53.070312 55.402344 49.515625 C 58.394531 47.476562 61.167969 45.355469 63.65625 43.210938 C 65.316406 44.734375 66.820312 46.265625 68.136719 47.777344 C 69.097656 48.886719 69.933594 49.957031 70.640625 50.980469 C 70.695312 51.089844 70.761719 51.1875 70.84375 51.277344 C 73.246094 54.855469 74.015625 57.820312 72.949219 59.675781 Z M 51.21875 70.226562 C 52.136719 67.855469 52.921875 65.160156 53.570312 62.253906 C 55.734375 62.9375 57.824219 63.484375 59.8125 63.875 C 60.429688 64 61.035156 64.101562 61.621094 64.191406 C 58.582031 66.898438 55.050781 68.945312 51.21875 70.226562 Z M 41.714844 77.800781 C 38.199219 77.800781 34.429688 71.605469 32.195312 61.472656 C 35.273438 60.382812 38.476562 59.035156 41.714844 57.457031 C 44.953125 59.035156 48.15625 60.382812 51.234375 61.472656 C 49 71.605469 45.230469 77.800781 41.714844 77.800781 Z M 21.808594 64.195312 C 22.394531 64.101562 23 64 23.617188 63.875 C 25.605469 63.484375 27.695312 62.9375 29.859375 62.253906 C 30.507812 65.160156 31.292969 67.855469 32.210938 70.226562 C 28.375 68.945312 24.84375 66.898438 21.808594 64.195312 Z M 10.480469 59.675781 C 9.414062 57.820312 10.183594 54.855469 12.585938 51.277344 C 12.667969 51.1875 12.734375 51.089844 12.789062 50.980469 C 13.496094 49.957031 14.332031 48.886719 15.292969 47.777344 C 16.609375 46.265625 18.109375 44.734375 19.773438 43.210938 C 22.261719 45.355469 25.035156 47.476562 28.027344 49.515625 C 28.296875 53.070312 28.746094 56.546875 29.359375 59.804688 C 27.199219 60.496094 25.113281 61.046875 23.140625 61.4375 C 21.707031 61.71875 20.367188 61.910156 19.132812 62.015625 C 19.015625 62.007812 18.898438 62.015625 18.78125 62.042969 C 14.492188 62.34375 11.546875 61.535156 10.480469 59.675781 Z M 11.640625 41.550781 C 11.640625 39.527344 11.84375 37.515625 12.246094 35.535156 C 12.621094 36.003906 13.011719 36.480469 13.429688 36.960938 C 14.753906 38.484375 16.257812 40.019531 17.914062 41.550781 C 16.257812 43.082031 14.753906 44.617188 13.429688 46.140625 C 13.011719 46.621094 12.621094 47.097656 12.246094 47.566406 C 11.84375 45.585938 11.640625 43.574219 11.640625 41.550781 Z M 10.480469 23.425781 C 11.378906 21.859375 13.71875 21.046875 17.105469 21.046875 C 20.339844 21.046875 24.535156 21.785156 29.355469 23.316406 C 28.742188 26.570312 28.296875 30.039062 28.027344 33.585938 C 25.035156 35.625 22.261719 37.746094 19.773438 39.894531 C 18.109375 38.367188 16.609375 36.839844 15.292969 35.328125 C 14.332031 34.21875 13.496094 33.144531 12.789062 32.121094 C 12.734375 32.011719 12.667969 31.910156 12.585938 31.820312 C 10.183594 28.246094 9.414062 25.28125 10.480469 23.425781 Z M 32.210938 12.875 C 31.289062 15.257812 30.5 17.96875 29.851562 20.898438 C 27.007812 20 24.28125 19.332031 21.769531 18.941406 C 24.816406 16.222656 28.363281 14.160156 32.210938 12.875 Z M 41.714844 5.300781 C 45.234375 5.300781 49.011719 11.515625 51.246094 21.675781 C 48.128906 22.773438 44.910156 24.121094 41.714844 25.664062 C 38.519531 24.121094 35.300781 22.773438 32.183594 21.675781 C 34.417969 11.515625 38.195312 5.300781 41.714844 5.300781 Z M 61.660156 18.941406 C 59.148438 19.332031 56.421875 20 53.578125 20.894531 C 52.929688 17.96875 52.140625 15.257812 51.21875 12.875 C 55.066406 14.160156 58.613281 16.222656 61.660156 18.941406 Z M 55.59375 36.738281 C 57.804688 38.3125 59.882812 39.925781 61.78125 41.550781 C 59.882812 43.175781 57.804688 44.789062 55.59375 46.363281 C 55.664062 44.761719 55.703125 43.152344 55.703125 41.550781 C 55.703125 39.949219 55.664062 38.339844 55.59375 36.738281 Z M 44.511719 27.070312 C 47.019531 25.910156 49.4375 24.925781 51.734375 24.105469 C 52.179688 26.511719 52.539062 29.105469 52.792969 31.863281 C 51.464844 31.015625 50.101562 30.183594 48.707031 29.375 C 47.328125 28.574219 45.925781 27.804688 44.511719 27.070312 Z M 30.636719 31.863281 C 30.890625 29.105469 31.25 26.511719 31.695312 24.105469 C 33.992188 24.925781 36.410156 25.910156 38.914062 27.070312 C 37.5 27.804688 36.097656 28.574219 34.71875 29.375 C 33.328125 30.183594 31.964844 31.015625 30.636719 31.863281 Z M 27.835938 46.363281 C 25.625 44.789062 23.546875 43.175781 21.648438 41.550781 C 23.546875 39.925781 25.625 38.3125 27.835938 36.738281 C 27.765625 38.339844 27.726562 39.949219 27.726562 41.550781 C 27.726562 43.152344 27.765625 44.761719 27.835938 46.363281 Z M 38.910156 56.039062 C 36.457031 57.175781 34.039062 58.171875 31.695312 59.011719 C 31.25 56.601562 30.890625 54.003906 30.636719 51.238281 C 31.964844 52.085938 33.328125 52.917969 34.71875 53.726562 C 36.117188 54.535156 37.515625 55.308594 38.910156 56.039062 Z M 52.792969 51.238281 C 52.539062 54.003906 52.179688 56.601562 51.734375 59.011719 C 49.386719 58.171875 46.972656 57.175781 44.519531 56.039062 C 45.914062 55.308594 47.3125 54.535156 48.707031 53.726562 C 50.101562 52.917969 51.464844 52.085938 52.792969 51.238281 Z M 47.472656 51.574219 C 45.554688 52.6875 43.628906 53.726562 41.714844 54.6875 C 39.800781 53.726562 37.875 52.6875 35.957031 51.574219 C 34.039062 50.460938 32.179688 49.304688 30.398438 48.121094 C 30.269531 46.007812 30.199219 43.816406 30.199219 41.550781 C 30.199219 39.285156 30.269531 37.09375 30.398438 34.980469 C 32.179688 33.796875 34.039062 32.640625 35.957031 31.527344 C 37.910156 30.394531 39.832031 29.359375 41.714844 28.414062 C 43.597656 29.359375 45.519531 30.394531 47.472656 31.527344 C 49.390625 32.640625 51.25 33.796875 53.03125 34.980469 C 53.160156 37.09375 53.230469 39.285156 53.230469 41.550781 C 53.230469 43.816406 53.160156 46.007812 53.03125 48.121094 C 51.25 49.304688 49.390625 50.460938 47.472656 51.574219 Z M 72.949219 23.425781 C 74.015625 25.28125 73.246094 28.246094 70.84375 31.820312 C 70.761719 31.910156 70.695312 32.011719 70.640625 32.121094 C 69.933594 33.144531 69.097656 34.21875 68.136719 35.328125 C 66.820312 36.839844 65.316406 38.367188 63.65625 39.894531 C 61.167969 37.746094 58.394531 35.625 55.402344 33.585938 C 55.132812 30.039062 54.6875 26.570312 54.074219 23.316406 C 58.894531 21.785156 63.089844 21.046875 66.324219 21.046875 C 69.710938 21.046875 72.050781 21.859375 72.949219 23.425781 Z M 71.789062 41.550781 C 71.789062 43.574219 71.582031 45.585938 71.183594 47.566406 C 70.808594 47.097656 70.414062 46.621094 69.996094 46.140625 C 68.675781 44.617188 67.171875 43.082031 65.511719 41.550781 C 67.171875 40.019531 68.675781 38.484375 69.996094 36.960938 C 70.414062 36.480469 70.808594 36.003906 71.183594 35.535156 C 71.585938 37.515625 71.789062 39.527344 71.789062 41.550781 Z M 74.265625 41.550781 C 74.265625 38.621094 73.871094 35.710938 73.101562 32.882812 C 75.902344 28.554688 76.617188 24.839844 75.089844 22.183594 C 73.46875 19.359375 69.753906 18.308594 64.886719 18.589844 C 60.746094 14.367188 55.585938 11.371094 49.90625 9.890625 C 47.71875 5.519531 44.957031 2.816406 41.714844 2.816406 C 38.472656 2.816406 35.710938 5.519531 33.523438 9.890625 C 27.84375 11.371094 22.683594 14.367188 18.542969 18.589844 C 13.675781 18.308594 9.960938 19.355469 8.339844 22.183594 C 6.8125 24.839844 7.527344 28.554688 10.328125 32.882812 C 9.558594 35.710938 9.164062 38.625 9.164062 41.550781 C 9.164062 44.476562 9.558594 47.390625 10.328125 50.21875 C 7.527344 54.546875 6.8125 58.261719 8.339844 60.917969 C 9.726562 63.335938 12.789062 64.578125 17.191406 64.578125 C 17.636719 64.578125 18.09375 64.5625 18.566406 64.539062 C 22.703125 68.746094 27.851562 71.734375 33.523438 73.210938 C 35.710938 77.582031 38.472656 80.289062 41.714844 80.289062 C 44.957031 80.289062 47.71875 77.582031 49.90625 73.210938 C 55.574219 71.734375 60.726562 68.746094 64.863281 64.539062 C 65.335938 64.5625 65.792969 64.578125 66.238281 64.578125 C 70.636719 64.578125 73.703125 63.335938 75.089844 60.917969 C 76.617188 58.261719 75.902344 54.546875 73.101562 50.21875 C 73.871094 47.390625 74.265625 44.476562 74.265625 41.550781 " fill-opacity="1" fill-rule="nonzero"></path></g><path fill="rgb(71.369934%, 63.139343%, 47.059631%)" d="M 44.972656 47.402344 L 44.972656 46.566406 C 44.972656 44.617188 43.511719 43.03125 41.714844 43.03125 C 39.917969 43.03125 38.457031 44.617188 38.457031 46.566406 L 38.457031 47.402344 C 36.613281 43.578125 36.59375 38.292969 36.59375 38.234375 C 36.59375 36.417969 37.832031 34.945312 39.351562 34.945312 C 39.914062 34.945312 40.457031 35.152344 40.921875 35.539062 C 41.382812 35.921875 42.046875 35.921875 42.503906 35.539062 C 42.972656 35.152344 43.515625 34.945312 44.078125 34.945312 C 45.597656 34.945312 46.835938 36.417969 46.835938 38.234375 C 46.835938 38.292969 46.816406 43.578125 44.972656 47.402344 Z M 44.078125 32.457031 C 43.246094 32.457031 42.441406 32.671875 41.714844 33.082031 C 40.988281 32.671875 40.183594 32.457031 39.351562 32.457031 C 36.46875 32.457031 34.121094 35.046875 34.121094 38.230469 C 34.121094 38.515625 34.140625 45.214844 36.867188 49.652344 C 37.390625 50.507812 38.363281 50.90625 39.292969 50.636719 C 40.273438 50.359375 40.929688 49.445312 40.929688 48.367188 L 40.929688 46.566406 C 40.929688 45.996094 41.289062 45.515625 41.714844 45.515625 C 42.140625 45.515625 42.496094 45.996094 42.496094 46.566406 L 42.496094 48.367188 C 42.496094 49.445312 43.15625 50.359375 44.136719 50.636719 C 44.328125 50.691406 44.519531 50.71875 44.710938 50.71875 C 45.449219 50.71875 46.148438 50.328125 46.5625 49.652344 C 49.289062 45.214844 49.308594 38.515625 49.308594 38.234375 C 49.308594 35.046875 46.960938 32.457031 44.078125 32.457031 " fill-opacity="1" fill-rule="nonzero"></path></svg>