<svg xmlns="http://www.w3.org/2000/svg" xmlns:xlink="http://www.w3.org/1999/xlink" width="340" viewBox="0 0 255 56.999996" height="76" preserveAspectRatio="xMidYMid meet"><defs><clipPath id="id1"><path d="M 22.050781 0 L 233.007812 0 L 233.007812 56.5 L 22.050781 56.5 Z M 22.050781 0 " clip-rule="nonzero"></path></clipPath></defs><g clip-path="url(#id1)"><path fill="rgb(71.369934%, 63.139343%, 47.059631%)" d="M 154.285156 18.789062 L 141.128906 31.578125 L 144.234375 49.636719 L 127.976562 41.101562 L 111.710938 49.628906 L 114.816406 31.566406 L 101.65625 18.777344 L 119.839844 16.144531 L 127.96875 -0.285156 L 136.097656 16.144531 Z M 233.058594 37.5625 L 222.058594 35.972656 L 217.144531 26.035156 L 212.226562 35.972656 L 201.226562 37.5625 L 209.179688 45.300781 L 207.300781 56.226562 L 217.132812 51.070312 L 226.964844 56.226562 L 225.089844 45.300781 Z M 184.777344 24.898438 L 178.875 12.976562 L 172.976562 24.898438 L 159.78125 26.804688 L 169.332031 36.085938 L 167.078125 49.1875 L 178.875 43 L 190.675781 49.1875 L 188.417969 36.085938 L 197.96875 26.804688 Z M 82.535156 24.898438 L 76.636719 12.976562 L 70.738281 24.898438 L 57.542969 26.804688 L 67.09375 36.085938 L 64.839844 49.1875 L 76.636719 43 L 88.4375 49.1875 L 86.179688 36.085938 L 95.730469 26.804688 Z M 42.917969 33.792969 L 38 23.855469 L 33.085938 33.792969 L 22.085938 35.382812 L 30.039062 43.121094 L 28.160156 54.046875 L 37.992188 48.890625 L 47.824219 54.046875 L 45.945312 43.121094 L 53.898438 35.382812 Z M 42.917969 33.792969 " fill-opacity="1" fill-rule="nonzero"></path></g></svg>