<svg xmlns="http://www.w3.org/2000/svg" xmlns:xlink="http://www.w3.org/1999/xlink" width="113" viewBox="0 0 84.75 84.749997" height="113" preserveAspectRatio="xMidYMid meet"><defs><clipPath id="id1"><path d="M 49 5.867188 L 66 5.867188 L 66 23 L 49 23 Z M 49 5.867188 " clip-rule="nonzero"></path></clipPath><clipPath id="id2"><path d="M 28.886719 55.558594 L 74.316406 55.558594 L 74.316406 70.035156 L 28.886719 70.035156 Z M 28.886719 55.558594 " clip-rule="nonzero"></path></clipPath><clipPath id="id3"><path d="M 12 74 L 71 74 L 71 78.828125 L 12 78.828125 Z M 12 74 " clip-rule="nonzero"></path></clipPath></defs><g clip-path="url(#id1)"><path fill="rgb(71.369934%, 63.139343%, 47.059631%)" d="M 62.726562 8.769531 C 60.859375 6.898438 58.378906 5.867188 55.742188 5.867188 C 53.324219 5.867188 51.042969 6.734375 49.242188 8.316406 L 63.179688 22.289062 C 66.570312 18.40625 66.421875 12.472656 62.726562 8.769531 " fill-opacity="1" fill-rule="nonzero"></path></g><path fill="rgb(71.369934%, 63.139343%, 47.059631%)" d="M 43.226562 13.996094 C 43.285156 14.320312 43.5625 14.542969 43.875 14.542969 C 43.914062 14.542969 43.953125 14.539062 43.992188 14.535156 L 48.796875 13.679688 C 49.15625 13.617188 49.394531 13.273438 49.332031 12.914062 C 49.269531 12.554688 48.929688 12.3125 48.566406 12.375 L 43.761719 13.230469 C 43.402344 13.292969 43.164062 13.636719 43.226562 13.996094 " fill-opacity="1" fill-rule="nonzero"></path><path fill="rgb(71.369934%, 63.139343%, 47.059631%)" d="M 52.328125 18.441406 L 48.308594 21.742188 C 48.027344 21.976562 47.984375 22.390625 48.214844 22.675781 C 48.347656 22.835938 48.535156 22.917969 48.726562 22.917969 C 48.875 22.917969 49.023438 22.867188 49.144531 22.765625 L 53.164062 19.464844 C 53.445312 19.234375 53.488281 18.816406 53.257812 18.53125 C 53.027344 18.25 52.609375 18.207031 52.328125 18.441406 " fill-opacity="1" fill-rule="nonzero"></path><path fill="rgb(71.369934%, 63.139343%, 47.059631%)" d="M 57.449219 22.960938 L 56.5625 28.042969 C 56.5 28.402344 56.738281 28.746094 57.097656 28.808594 C 57.136719 28.816406 57.175781 28.820312 57.214844 28.820312 C 57.527344 28.820312 57.808594 28.59375 57.863281 28.273438 L 58.75 23.191406 C 58.8125 22.832031 58.574219 22.488281 58.214844 22.425781 C 57.855469 22.363281 57.511719 22.601562 57.449219 22.960938 " fill-opacity="1" fill-rule="nonzero"></path><path fill="rgb(71.369934%, 63.139343%, 47.059631%)" d="M 72.238281 55.105469 L 72.238281 55.109375 Z M 71.742188 38.320312 L 71.742188 41.273438 C 71.742188 41.707031 71.460938 42.097656 71.046875 42.25 L 70.460938 42.464844 L 70.597656 54.382812 C 70.601562 54.730469 70.71875 55.074219 70.925781 55.347656 C 71.226562 55.742188 71.683594 55.976562 72.140625 55.988281 L 72.238281 55.988281 C 72.695312 55.988281 73.152344 55.773438 73.457031 55.410156 C 73.722656 55.09375 73.863281 54.722656 73.863281 54.332031 L 73.863281 38.320312 L 71.742188 38.320312 " fill-opacity="1" fill-rule="nonzero"></path><path fill="rgb(71.369934%, 63.139343%, 47.059631%)" d="M 60.3125 41.273438 C 60.3125 41.769531 59.957031 42.203125 59.464844 42.300781 L 58.746094 42.441406 L 58.882812 54.378906 C 58.882812 54.554688 58.917969 54.699219 58.949219 54.804688 L 59.066406 55.222656 L 59.46875 55.382812 C 59.660156 55.460938 59.820312 55.539062 59.941406 55.609375 L 60.578125 56.039062 L 60.980469 55.914062 C 61.28125 55.820312 61.542969 55.648438 61.742188 55.410156 C 62.007812 55.09375 62.148438 54.71875 62.148438 54.332031 L 62.148438 38.320312 L 60.3125 38.320312 L 60.3125 41.273438 " fill-opacity="1" fill-rule="nonzero"></path><path fill="rgb(71.369934%, 63.139343%, 47.059631%)" d="M 66.355469 55.101562 L 66.355469 55.109375 Z M 65.964844 41.273438 C 65.964844 41.730469 65.660156 42.132812 65.210938 42.269531 L 64.578125 42.460938 L 64.710938 54.382812 C 64.714844 54.726562 64.832031 55.070312 65.042969 55.347656 C 65.34375 55.746094 65.800781 55.976562 66.265625 55.988281 L 66.355469 55.988281 C 66.824219 55.988281 67.257812 55.785156 67.574219 55.410156 C 67.839844 55.09375 67.980469 54.71875 67.980469 54.332031 L 67.980469 38.320312 L 65.964844 38.320312 L 65.964844 41.273438 " fill-opacity="1" fill-rule="nonzero"></path><path fill="rgb(71.369934%, 63.139343%, 47.059631%)" d="M 57.316406 40.1875 L 57.316406 39.203125 L 55.089844 39.203125 L 41.914062 39.183594 C 41.175781 39.191406 40.347656 39.65625 39.8125 40.1875 L 57.316406 40.1875 " fill-opacity="1" fill-rule="nonzero"></path><path fill="rgb(71.369934%, 63.139343%, 47.059631%)" d="M 40.453125 33.007812 C 40.453125 32.429688 40.921875 31.960938 41.496094 31.960938 C 42.070312 31.960938 42.539062 32.429688 42.539062 33.007812 L 42.539062 34.546875 C 42.539062 34.910156 42.832031 35.207031 43.199219 35.207031 C 43.5625 35.207031 43.859375 34.910156 43.859375 34.546875 L 43.859375 33.007812 C 43.859375 31.699219 42.796875 30.636719 41.496094 30.636719 C 40.191406 30.636719 39.132812 31.699219 39.132812 33.007812 L 39.132812 37.410156 L 40.453125 37.410156 L 40.453125 33.007812 " fill-opacity="1" fill-rule="nonzero"></path><path fill="rgb(71.369934%, 63.139343%, 47.059631%)" d="M 38.015625 30.296875 C 38.015625 28.988281 36.953125 27.925781 35.652344 27.925781 C 34.347656 27.925781 33.289062 28.988281 33.289062 30.296875 L 33.289062 31.835938 C 33.289062 32.199219 33.585938 32.496094 33.949219 32.496094 C 34.3125 32.496094 34.609375 32.199219 34.609375 31.835938 L 34.609375 30.296875 C 34.609375 29.71875 35.078125 29.25 35.652344 29.25 C 36.226562 29.25 36.695312 29.71875 36.695312 30.296875 L 36.695312 37.410156 L 38.015625 37.410156 L 38.015625 30.296875 " fill-opacity="1" fill-rule="nonzero"></path><path fill="rgb(71.369934%, 63.139343%, 47.059631%)" d="M 70.894531 34.480469 C 70.855469 34.199219 70.640625 33.976562 70.363281 33.925781 L 68.632812 33.605469 C 68.273438 33.535156 67.929688 33.773438 67.863281 34.132812 C 67.796875 34.496094 68.03125 34.839844 68.390625 34.90625 L 69.65625 35.140625 L 70.058594 37.878906 L 71.390625 37.878906 L 70.894531 34.480469 " fill-opacity="1" fill-rule="nonzero"></path><path fill="rgb(71.369934%, 63.139343%, 47.059631%)" d="M 65.691406 33.894531 C 65.695312 33.675781 65.59375 33.46875 65.414062 33.339844 C 65.234375 33.210938 65.003906 33.179688 64.800781 33.257812 L 63.394531 33.78125 C 63.054688 33.90625 62.878906 34.289062 63.007812 34.628906 C 63.132812 34.972656 63.515625 35.148438 63.855469 35.019531 L 64.34375 34.839844 L 64.261719 37.878906 L 65.582031 37.878906 L 65.691406 33.894531 " fill-opacity="1" fill-rule="nonzero"></path><path fill="rgb(71.369934%, 63.139343%, 47.059631%)" d="M 58.984375 34.523438 C 57.671875 33.351562 55.695312 33.878906 55.609375 33.902344 C 55.261719 34 55.054688 34.359375 55.152344 34.714844 C 55.246094 35.066406 55.609375 35.273438 55.960938 35.179688 C 55.972656 35.175781 57.335938 34.820312 58.109375 35.515625 C 58.683594 36.03125 58.765625 37.003906 58.695312 37.878906 L 60.019531 37.878906 C 60.125 36.359375 59.777344 35.230469 58.984375 34.523438 " fill-opacity="1" fill-rule="nonzero"></path><path fill="rgb(71.369934%, 63.139343%, 47.059631%)" d="M 40.863281 68.824219 L 40.863281 65.0625 L 38.445312 65.0625 C 37.476562 65.0625 36.6875 64.269531 36.6875 63.296875 C 36.6875 63.144531 36.710938 62.996094 36.75 62.855469 L 35.429688 62.855469 L 35.429688 68.824219 L 40.863281 68.824219 " fill-opacity="1" fill-rule="nonzero"></path><path fill="rgb(71.369934%, 63.139343%, 47.059631%)" d="M 46.410156 62.855469 C 46.449219 62.996094 46.472656 63.144531 46.472656 63.296875 C 46.472656 64.269531 45.683594 65.0625 44.714844 65.0625 L 42.183594 65.0625 L 42.183594 68.824219 L 49.851562 68.824219 L 49.851562 62.855469 L 46.410156 62.855469 " fill-opacity="1" fill-rule="nonzero"></path><path fill="rgb(71.369934%, 63.139343%, 47.059631%)" d="M 49.851562 54.253906 L 49.851562 43.78125 C 49.851562 43.160156 49.34375 42.652344 48.722656 42.652344 L 36.554688 42.652344 C 35.933594 42.652344 35.429688 43.160156 35.429688 43.78125 L 35.429688 45.089844 L 44.949219 43.902344 C 46.234375 43.738281 47.378906 44.664062 47.535156 45.917969 L 47.574219 46.238281 C 47.648438 46.851562 47.480469 47.457031 47.101562 47.949219 C 46.71875 48.4375 46.171875 48.75 45.5625 48.828125 L 35.429688 50.089844 L 35.429688 54.253906 L 49.851562 54.253906 " fill-opacity="1" fill-rule="nonzero"></path><path fill="rgb(71.369934%, 63.139343%, 47.059631%)" d="M 41.980469 41.328125 L 41.980469 38.734375 L 32.636719 38.734375 L 32.636719 41.328125 L 41.980469 41.328125 " fill-opacity="1" fill-rule="nonzero"></path><path fill="rgb(71.369934%, 63.139343%, 47.059631%)" d="M 59.875 41.273438 L 59.875 39.203125 L 58.636719 39.203125 L 58.636719 41.273438 C 58.636719 41.609375 58.914062 41.878906 59.253906 41.878906 C 59.597656 41.878906 59.875 41.609375 59.875 41.273438 " fill-opacity="1" fill-rule="nonzero"></path><path fill="rgb(71.369934%, 63.139343%, 47.059631%)" d="M 64.902344 41.882812 C 65.246094 41.882812 65.523438 41.609375 65.523438 41.273438 L 65.523438 39.203125 L 64.285156 39.203125 L 64.285156 41.273438 C 64.285156 41.609375 64.5625 41.882812 64.902344 41.882812 " fill-opacity="1" fill-rule="nonzero"></path><path fill="rgb(71.369934%, 63.139343%, 47.059631%)" d="M 70.683594 41.878906 C 71.023438 41.878906 71.300781 41.609375 71.300781 41.273438 L 71.300781 39.203125 L 70.0625 39.203125 L 70.0625 41.273438 C 70.0625 41.609375 70.339844 41.878906 70.683594 41.878906 " fill-opacity="1" fill-rule="nonzero"></path><path fill="rgb(71.369934%, 63.139343%, 47.059631%)" d="M 15.515625 33.769531 C 15.117188 33.769531 14.738281 33.859375 14.378906 34.035156 L 13.710938 34.363281 C 12.425781 34.996094 11.894531 36.558594 12.523438 37.847656 L 21.886719 56.976562 C 22.160156 56.28125 22.605469 55.679688 23.171875 55.214844 C 23.921875 54.558594 24.898438 54.15625 25.972656 54.15625 C 26.277344 54.15625 26.574219 54.191406 26.859375 54.253906 L 27.167969 54.253906 L 17.855469 35.226562 C 17.421875 34.34375 16.503906 33.769531 15.515625 33.769531 " fill-opacity="1" fill-rule="nonzero"></path><g clip-path="url(#id2)"><path fill="rgb(71.369934%, 63.139343%, 47.059631%)" d="M 72.824219 64.789062 L 59.703125 55.984375 C 59.703125 55.980469 59.703125 55.980469 59.699219 55.980469 C 59.25 55.714844 58.734375 55.578125 58.210938 55.578125 L 29.132812 55.578125 C 29.816406 56.335938 30.234375 57.335938 30.234375 58.433594 C 30.234375 59.652344 29.722656 60.75 28.902344 61.53125 L 56.394531 61.53125 C 56.515625 61.53125 56.632812 61.5625 56.734375 61.625 L 69.96875 69.578125 C 70.652344 69.988281 71.445312 70.121094 72.203125 69.949219 C 72.949219 69.78125 73.570312 69.34375 73.945312 68.710938 C 74.320312 68.082031 74.414062 67.328125 74.207031 66.589844 C 74 65.839844 73.507812 65.199219 72.824219 64.789062 " fill-opacity="1" fill-rule="nonzero"></path></g><path fill="rgb(71.369934%, 63.139343%, 47.059631%)" d="M 23.027344 58.433594 C 23.027344 60.0625 24.347656 61.386719 25.972656 61.386719 C 27.59375 61.386719 28.914062 60.0625 28.914062 58.433594 C 28.914062 56.804688 27.59375 55.480469 25.972656 55.480469 C 24.347656 55.480469 23.027344 56.804688 23.027344 58.433594 " fill-opacity="1" fill-rule="nonzero"></path><path fill="rgb(71.369934%, 63.139343%, 47.059631%)" d="M 31.335938 48.527344 L 31.265625 48.214844 C 31.242188 48.101562 31.234375 47.984375 31.230469 47.871094 L 25.230469 48.914062 L 24.667969 49.011719 C 24.230469 49.085938 23.941406 49.4375 24.023438 49.796875 C 24.09375 50.125 24.457031 50.347656 24.855469 50.320312 C 24.890625 50.316406 24.921875 50.3125 24.957031 50.308594 L 26.066406 50.113281 L 31.605469 49.152344 C 31.484375 48.960938 31.386719 48.753906 31.335938 48.527344 " fill-opacity="1" fill-rule="nonzero"></path><path fill="rgb(71.369934%, 63.139343%, 47.059631%)" d="M 45.398438 47.511719 C 45.660156 47.480469 45.894531 47.347656 46.058594 47.132812 C 46.222656 46.921875 46.296875 46.664062 46.261719 46.398438 L 46.222656 46.082031 C 46.164062 45.582031 45.738281 45.207031 45.234375 45.207031 C 45.195312 45.207031 45.152344 45.210938 45.113281 45.214844 L 32.882812 46.738281 C 32.621094 46.769531 32.386719 46.90625 32.222656 47.117188 C 32.058594 47.328125 31.984375 47.589844 32.019531 47.851562 L 32.058594 48.167969 C 32.125 48.707031 32.617188 49.105469 33.167969 49.035156 L 45.398438 47.511719 " fill-opacity="1" fill-rule="nonzero"></path><g clip-path="url(#id3)"><path fill="rgb(71.369934%, 63.139343%, 47.059631%)" d="M 26.289062 74.558594 L 12.121094 74.558594 L 12.121094 78.828125 L 70.160156 78.828125 L 70.160156 74.558594 L 26.289062 74.558594 " fill-opacity="1" fill-rule="nonzero"></path></g><path fill="rgb(71.369934%, 63.139343%, 47.059631%)" d="M 26.949219 70.148438 L 26.949219 73.234375 L 56.214844 73.234375 L 56.214844 70.148438 L 26.949219 70.148438 " fill-opacity="1" fill-rule="nonzero"></path><path fill="rgb(71.369934%, 63.139343%, 47.059631%)" d="M 38.445312 62.855469 C 38.203125 62.855469 38.007812 63.050781 38.007812 63.296875 C 38.007812 63.539062 38.203125 63.738281 38.445312 63.738281 L 44.714844 63.738281 C 44.957031 63.738281 45.15625 63.539062 45.15625 63.296875 C 45.15625 63.050781 44.957031 62.855469 44.714844 62.855469 L 38.445312 62.855469 " fill-opacity="1" fill-rule="nonzero"></path></svg>