<svg xmlns="http://www.w3.org/2000/svg" xmlns:xlink="http://www.w3.org/1999/xlink" width="113" viewBox="0 0 84.75 84.749997" height="113" preserveAspectRatio="xMidYMid meet"><defs><clipPath id="id1"><path d="M 13 59 L 72 59 L 72 84.5 L 13 84.5 Z M 13 59 " clip-rule="nonzero"></path></clipPath><clipPath id="id2"><path d="M 10.546875 2 L 74.480469 2 L 74.480469 67 L 10.546875 67 Z M 10.546875 2 " clip-rule="nonzero"></path></clipPath></defs><g clip-path="url(#id1)"><path fill="rgb(71.369934%, 63.139343%, 47.059631%)" d="M 21.429688 59.367188 L 22.167969 60.859375 C 22.804688 62.164062 24.347656 63.199219 25.792969 63.296875 L 29.335938 63.53125 C 29.867188 63.566406 30.796875 63.949219 31.195312 64.304688 L 33.867188 66.65625 C 34.953125 67.613281 36.769531 67.972656 38.148438 67.503906 L 40.421875 66.730469 L 32.414062 84.789062 L 25.667969 74.902344 L 13.835938 76.484375 Z M 44.601562 66.730469 L 46.882812 67.503906 C 48.253906 67.972656 50.070312 67.613281 51.164062 66.65625 L 53.835938 64.304688 C 54.234375 63.949219 55.15625 63.566406 55.6875 63.53125 L 59.238281 63.296875 C 60.683594 63.199219 62.226562 62.164062 62.863281 60.859375 L 63.59375 59.367188 L 71.1875 76.484375 L 59.355469 74.902344 L 52.617188 84.789062 Z M 44.601562 66.730469 " fill-opacity="1" fill-rule="evenodd"></path></g><g clip-path="url(#id2)"><path fill="rgb(71.369934%, 63.139343%, 47.059631%)" d="M 47.390625 65.988281 L 44.03125 64.847656 C 43.191406 64.5625 41.832031 64.5625 41 64.847656 L 37.632812 65.988281 C 36.792969 66.28125 35.574219 66.03125 34.910156 65.445312 L 32.238281 63.097656 C 31.574219 62.515625 30.324219 61.992188 29.445312 61.933594 L 25.902344 61.699219 C 25.011719 61.640625 23.984375 60.941406 23.59375 60.148438 L 22.015625 56.960938 C 21.628906 56.160156 20.664062 55.195312 19.875 54.800781 L 16.691406 53.226562 C 15.902344 52.835938 15.214844 51.785156 15.15625 50.910156 L 14.914062 47.355469 C 14.855469 46.464844 14.335938 45.207031 13.761719 44.539062 L 11.414062 41.859375 C 10.832031 41.191406 10.59375 39.96875 10.875 39.125 L 12.019531 35.753906 C 12.300781 34.910156 12.300781 33.546875 12.019531 32.710938 L 10.875 29.332031 C 10.59375 28.488281 10.839844 27.265625 11.414062 26.597656 L 13.761719 23.917969 C 14.34375 23.25 14.855469 21.992188 14.914062 21.109375 L 15.15625 17.550781 C 15.214844 16.660156 15.902344 15.628906 16.691406 15.238281 L 19.875 13.652344 C 20.671875 13.261719 21.636719 12.296875 22.015625 11.503906 L 23.59375 8.308594 C 23.984375 7.515625 25.019531 6.824219 25.902344 6.765625 L 29.445312 6.523438 C 30.324219 6.464844 31.585938 5.941406 32.238281 5.367188 L 34.910156 3.007812 C 35.582031 2.425781 36.804688 2.183594 37.632812 2.46875 L 41 3.617188 C 41.839844 3.902344 43.199219 3.902344 44.03125 3.617188 L 47.390625 2.46875 C 48.226562 2.183594 49.457031 2.433594 50.113281 3.007812 L 52.785156 5.367188 C 53.445312 5.949219 54.707031 6.464844 55.585938 6.523438 L 59.128906 6.765625 C 60.011719 6.824219 61.046875 7.515625 61.4375 8.308594 L 63.003906 11.503906 C 63.394531 12.304688 64.367188 13.269531 65.152344 13.652344 L 68.332031 15.238281 C 69.128906 15.628906 69.816406 16.667969 69.875 17.550781 L 70.109375 21.109375 C 70.164062 21.992188 70.6875 23.257812 71.269531 23.917969 L 73.609375 26.597656 C 74.191406 27.273438 74.429688 28.496094 74.148438 29.332031 L 73.011719 32.710938 C 72.730469 33.554688 72.730469 34.917969 73.011719 35.753906 L 74.148438 39.125 C 74.4375 39.96875 74.191406 41.199219 73.609375 41.859375 L 71.269531 44.539062 C 70.6875 45.207031 70.164062 46.472656 70.109375 47.355469 L 69.875 50.910156 C 69.816406 51.796875 69.121094 52.835938 68.332031 53.226562 L 65.152344 54.800781 C 64.359375 55.195312 63.394531 56.167969 63.003906 56.960938 L 61.4375 60.148438 C 61.046875 60.949219 60 61.640625 59.128906 61.699219 L 55.585938 61.933594 C 54.699219 61.992188 53.445312 62.515625 52.785156 63.097656 L 50.113281 65.445312 C 49.449219 66.03125 48.226562 66.273438 47.390625 65.988281 Z M 42.511719 58.21875 C 55.710938 58.21875 66.40625 47.480469 66.40625 34.226562 C 66.40625 20.984375 55.710938 10.238281 42.511719 10.238281 C 29.320312 10.238281 18.617188 20.984375 18.617188 34.226562 C 18.617188 47.480469 29.320312 58.21875 42.511719 58.21875 Z M 42.511719 58.21875 " fill-opacity="1" fill-rule="evenodd"></path></g><path fill="rgb(71.369934%, 63.139343%, 47.059631%)" d="M 42.511719 43.773438 L 33.675781 48.445312 C 32.902344 48.855469 32.398438 48.472656 32.539062 47.613281 L 34.238281 37.734375 L 27.078125 30.738281 C 26.449219 30.121094 26.65625 29.523438 27.511719 29.398438 L 37.402344 27.964844 L 41.816406 18.96875 C 42.203125 18.175781 42.835938 18.195312 43.214844 18.96875 L 47.628906 27.964844 L 57.519531 29.398438 C 58.382812 29.523438 58.566406 30.128906 57.953125 30.738281 L 50.792969 37.734375 L 52.484375 47.613281 C 52.632812 48.480469 52.121094 48.847656 51.355469 48.445312 Z M 42.511719 43.773438 " fill-opacity="1" fill-rule="evenodd"></path></svg>