<svg xmlns="http://www.w3.org/2000/svg" xmlns:xlink="http://www.w3.org/1999/xlink" width="113" viewBox="0 0 84.75 84.749997" height="113" preserveAspectRatio="xMidYMid meet"><defs><clipPath id="id1"><path d="M 33 3.304688 L 51 3.304688 L 51 21 L 33 21 Z M 33 3.304688 " clip-rule="nonzero"></path></clipPath><clipPath id="id2"><path d="M 0 42 L 84.5 42 L 84.5 80 L 0 80 Z M 0 42 " clip-rule="nonzero"></path></clipPath></defs><g clip-path="url(#id1)"><path fill="rgb(71.369934%, 63.139343%, 47.059631%)" d="M 42.234375 20.472656 C 46.957031 20.472656 50.757812 16.644531 50.757812 11.890625 C 50.757812 7.136719 46.957031 3.304688 42.234375 3.304688 C 37.515625 3.304688 33.710938 7.136719 33.710938 11.890625 C 33.710938 16.644531 37.515625 20.472656 42.234375 20.472656 Z M 42.234375 20.472656 " fill-opacity="1" fill-rule="nonzero"></path></g><path fill="rgb(71.369934%, 63.139343%, 47.059631%)" d="M 24.402344 41.078125 C 22.304688 36.917969 22.960938 31.699219 26.304688 28.265625 C 28.335938 26.21875 30.957031 25.097656 33.777344 25.097656 C 36.597656 25.097656 39.285156 26.21875 41.25 28.265625 C 41.777344 28.792969 42.628906 28.792969 43.152344 28.265625 C 45.121094 26.21875 47.808594 25.097656 50.628906 25.097656 C 53.445312 25.097656 56.132812 26.21875 58.101562 28.265625 C 62.230469 32.558594 62.230469 39.492188 58.101562 43.785156 L 55.347656 46.625 C 55.804688 46.625 56.265625 46.558594 56.660156 46.425781 C 57.773438 46.09375 58.757812 45.898438 59.738281 45.832031 L 59.9375 45.632812 C 65.050781 40.351562 65.050781 31.699219 59.9375 26.417969 C 57.445312 23.839844 54.101562 22.453125 50.5625 22.453125 C 47.480469 22.453125 44.53125 23.578125 42.167969 25.558594 C 39.808594 23.511719 36.859375 22.453125 33.777344 22.453125 C 30.238281 22.453125 26.894531 23.839844 24.402344 26.417969 C 20.335938 30.578125 19.484375 36.785156 21.84375 41.867188 C 22.761719 41.605469 23.550781 41.339844 24.402344 41.078125 Z M 24.402344 41.078125 " fill-opacity="1" fill-rule="nonzero"></path><g clip-path="url(#id2)"><path fill="rgb(71.369934%, 63.139343%, 47.059631%)" d="M 83.996094 54.480469 C 83.277344 52.765625 80.785156 52.632812 79.933594 52.898438 C 79.867188 52.898438 79.605469 52.964844 79.410156 52.964844 C 78.164062 53.160156 75.476562 53.492188 70.164062 56.132812 C 63.542969 59.433594 56.460938 62.734375 48.792969 63.332031 C 42.039062 63.859375 37.90625 59.898438 37.253906 59.171875 C 36.792969 58.246094 36.726562 57.71875 36.925781 57.519531 C 37.449219 56.859375 40.597656 56.460938 46.957031 58.113281 C 55.609375 60.558594 60.132812 56.199219 60.65625 55.605469 C 62.296875 54.085938 64.394531 51.773438 63.28125 49.859375 C 62.296875 48.140625 59.609375 48.273438 57.445312 48.933594 C 55.214844 49.59375 52.855469 49.132812 50.757812 48.539062 C 48.527344 47.945312 46.367188 47.085938 44.203125 46.292969 C 41.121094 45.105469 37.972656 43.917969 34.628906 43.320312 C 29.058594 42.265625 23.417969 43.453125 17.847656 46.753906 C 13.191406 49.527344 9.324219 53.226562 6.570312 57.519531 C 0.734375 66.632812 0.0117188 73.566406 0.339844 77.726562 C 0.40625 78.78125 1.128906 79.574219 2.113281 79.839844 C 2.308594 79.90625 2.503906 79.90625 2.703125 79.90625 C 3.554688 79.90625 4.339844 79.507812 4.800781 78.78125 C 5.390625 77.859375 5.457031 77.59375 5.652344 76.800781 C 5.652344 76.667969 5.71875 76.472656 5.78125 76.273438 C 6.4375 73.765625 8.078125 71.320312 10.109375 70.199219 L 10.308594 70.132812 C 13.191406 68.546875 15.878906 69.667969 21.648438 72.378906 C 24.074219 73.566406 27.15625 74.953125 30.894531 76.40625 C 47.9375 82.28125 59.871094 75.085938 67.34375 69.207031 C 73.574219 64.320312 80.71875 59.433594 80.71875 59.433594 C 81.898438 58.640625 84.980469 56.726562 83.996094 54.480469 Z M 83.996094 54.480469 " fill-opacity="1" fill-rule="nonzero"></path></g></svg>