<svg xmlns="http://www.w3.org/2000/svg" xmlns:xlink="http://www.w3.org/1999/xlink" width="113" viewBox="0 0 84.75 84.749997" height="113" preserveAspectRatio="xMidYMid meet"><defs><clipPath id="id1"><path d="M 2.15625 33 L 5 33 L 5 36 L 2.15625 36 Z M 2.15625 33 " clip-rule="nonzero"></path></clipPath><clipPath id="id2"><path d="M 80 46 L 82.640625 46 L 82.640625 50 L 80 50 Z M 80 46 " clip-rule="nonzero"></path></clipPath><clipPath id="id3"><path d="M 29 80 L 32 80 L 32 82.628906 L 29 82.628906 Z M 29 80 " clip-rule="nonzero"></path></clipPath><clipPath id="id4"><path d="M 35.488281 29.367188 L 50.53125 29.367188 L 50.53125 49.675781 L 35.488281 49.675781 Z M 35.488281 29.367188 " clip-rule="nonzero"></path></clipPath></defs><path fill="rgb(100%, 100%, 100%)" d="M 37.367188 25.148438 L 47.898438 25.148438 L 47.898438 44.695312 L 37.367188 44.695312 L 37.367188 25.148438 " fill-opacity="1" fill-rule="nonzero"></path><path fill="rgb(100%, 100%, 100%)" d="M 37.367188 40.042969 L 47.898438 40.042969 L 47.898438 59.585938 L 37.367188 59.585938 L 37.367188 40.042969 " fill-opacity="1" fill-rule="nonzero"></path><path fill="rgb(100%, 100%, 100%)" d="M 28.210938 40.039062 L 56.792969 40.039062 L 56.792969 44.550781 L 28.210938 44.550781 L 28.210938 40.039062 " fill-opacity="1" fill-rule="nonzero"></path><path fill="rgb(100%, 100%, 100%)" d="M 33.171875 58.339844 L 33.171875 17.601562 L 53.410156 17.601562 L 53.410156 58.339844 Z M 33.171875 58.339844 " fill-opacity="1" fill-rule="nonzero"></path><path fill="rgb(71.369934%, 63.139343%, 47.059631%)" d="M 55.449219 22.53125 L 55.449219 24.996094 L 51.347656 24.996094 L 51.347656 22.53125 Z M 55.449219 27.460938 L 55.449219 29.925781 L 51.347656 29.925781 L 51.347656 27.460938 Z M 55.449219 32.390625 L 55.449219 34.855469 L 51.347656 34.855469 L 51.347656 32.390625 Z M 55.449219 37.324219 L 55.449219 39.789062 L 51.347656 39.789062 L 51.347656 37.324219 Z M 55.449219 42.230469 L 55.449219 44.695312 L 51.347656 44.695312 L 51.347656 42.230469 Z M 55.449219 47.160156 L 55.449219 49.625 L 51.347656 49.625 L 51.347656 47.160156 Z M 55.449219 52.089844 L 55.449219 54.554688 L 51.347656 54.554688 L 51.347656 52.089844 Z M 49.816406 56.296875 L 49.816406 60.398438 L 47.351562 60.398438 L 47.351562 56.296875 Z M 47.222656 15.5625 L 47.222656 19.664062 L 44.757812 19.664062 L 44.757812 15.5625 Z M 44.886719 56.296875 L 44.886719 60.398438 L 42.421875 60.398438 L 42.421875 56.296875 Z M 42.292969 15.5625 L 42.292969 19.664062 L 39.828125 19.664062 L 39.828125 15.5625 Z M 39.953125 56.296875 L 39.953125 60.398438 L 37.488281 60.398438 L 37.488281 56.296875 Z M 35.214844 23.253906 L 35.214844 25.71875 L 31.113281 25.71875 L 31.113281 23.253906 Z M 35.214844 28.183594 L 35.214844 30.648438 L 31.113281 30.648438 L 31.113281 28.183594 Z M 35.214844 33.113281 L 35.214844 35.578125 L 31.113281 35.578125 L 31.113281 33.113281 Z M 35.214844 38.042969 L 35.214844 40.511719 L 31.113281 40.511719 L 31.113281 38.042969 Z M 35.214844 42.953125 L 35.214844 45.417969 L 31.113281 45.417969 L 31.113281 42.953125 Z M 35.214844 47.882812 L 35.214844 50.347656 L 31.113281 50.347656 L 31.113281 47.882812 Z M 35.214844 52.8125 L 35.214844 55.277344 L 31.113281 55.277344 L 31.113281 52.8125 Z M 35.214844 52.8125 " fill-opacity="1" fill-rule="nonzero"></path><path fill="rgb(71.369934%, 63.139343%, 47.059631%)" d="M 18.847656 24.105469 L 18.847656 23.46875 L 31.175781 23.46875 L 31.175781 24.105469 Z M 18.847656 24.105469 " fill-opacity="1" fill-rule="nonzero"></path><path fill="rgb(71.369934%, 63.139343%, 47.059631%)" d="M 18.847656 24.105469 L 18.847656 11.140625 L 19.695312 11.140625 L 19.695312 24.105469 Z M 18.847656 24.105469 " fill-opacity="1" fill-rule="nonzero"></path><path fill="rgb(71.369934%, 63.139343%, 47.059631%)" d="M 20.609375 11.015625 C 20.609375 9.527344 18.316406 9.527344 18.316406 11.015625 C 18.316406 12.503906 20.609375 12.503906 20.609375 11.015625 Z M 20.609375 11.015625 " fill-opacity="1" fill-rule="nonzero"></path><path fill="rgb(71.369934%, 63.139343%, 47.059631%)" d="M 10.554688 29.628906 L 10.554688 28.78125 L 31.175781 28.78125 L 31.175781 29.628906 Z M 10.554688 29.628906 " fill-opacity="1" fill-rule="nonzero"></path><path fill="rgb(71.369934%, 63.139343%, 47.059631%)" d="M 10.554688 29.628906 L 10.554688 19.640625 L 11.195312 19.640625 L 11.195312 29.628906 Z M 10.554688 29.628906 " fill-opacity="1" fill-rule="nonzero"></path><path fill="rgb(71.369934%, 63.139343%, 47.059631%)" d="M 4.390625 20.28125 L 4.390625 19.640625 L 11.195312 19.640625 L 11.195312 20.28125 Z M 4.390625 20.28125 " fill-opacity="1" fill-rule="nonzero"></path><path fill="rgb(71.369934%, 63.139343%, 47.059631%)" d="M 5.582031 20.046875 C 5.582031 18.558594 3.285156 18.558594 3.285156 20.046875 C 3.285156 21.535156 5.582031 21.535156 5.582031 20.046875 Z M 5.582031 20.046875 " fill-opacity="1" fill-rule="nonzero"></path><path fill="rgb(71.369934%, 63.139343%, 47.059631%)" d="M 3.542969 34.941406 L 3.542969 34.09375 L 31.175781 34.09375 L 31.175781 34.941406 Z M 3.542969 34.941406 " fill-opacity="1" fill-rule="nonzero"></path><path fill="rgb(71.369934%, 63.139343%, 47.059631%)" d="M 15.871094 39.40625 L 15.871094 38.765625 L 31.175781 38.765625 L 31.175781 39.40625 Z M 15.871094 39.40625 " fill-opacity="1" fill-rule="nonzero"></path><path fill="rgb(71.369934%, 63.139343%, 47.059631%)" d="M 22.035156 44.71875 L 22.035156 44.078125 L 31.175781 44.078125 L 31.175781 44.71875 Z M 22.035156 44.71875 " fill-opacity="1" fill-rule="nonzero"></path><path fill="rgb(71.369934%, 63.139343%, 47.059631%)" d="M 22.035156 50.878906 L 22.035156 44.71875 L 22.671875 44.71875 L 22.671875 50.878906 Z M 22.035156 50.878906 " fill-opacity="1" fill-rule="nonzero"></path><path fill="rgb(71.369934%, 63.139343%, 47.059631%)" d="M 11.195312 51.730469 L 11.195312 50.878906 L 22.671875 50.878906 L 22.671875 51.730469 Z M 11.195312 51.730469 " fill-opacity="1" fill-rule="nonzero"></path><path fill="rgb(71.369934%, 63.139343%, 47.059631%)" d="M 25.859375 49.390625 L 25.859375 48.542969 L 31.175781 48.542969 L 31.175781 49.390625 Z M 25.859375 49.390625 " fill-opacity="1" fill-rule="nonzero"></path><path fill="rgb(71.369934%, 63.139343%, 47.059631%)" d="M 25.859375 57.042969 L 25.859375 49.390625 L 26.5 49.390625 L 26.5 57.042969 Z M 25.859375 57.042969 " fill-opacity="1" fill-rule="nonzero"></path><path fill="rgb(71.369934%, 63.139343%, 47.059631%)" d="M 28.835938 54.066406 L 28.835938 53.21875 L 31.175781 53.21875 L 31.175781 54.066406 Z M 28.835938 54.066406 " fill-opacity="1" fill-rule="nonzero"></path><path fill="rgb(71.369934%, 63.139343%, 47.059631%)" d="M 28.835938 67.667969 L 28.835938 54.066406 L 29.6875 54.066406 L 29.6875 67.667969 Z M 28.835938 67.667969 " fill-opacity="1" fill-rule="nonzero"></path><path fill="rgb(71.369934%, 63.139343%, 47.059631%)" d="M 30.8125 67.792969 C 30.8125 66.308594 28.519531 66.308594 28.519531 67.792969 C 28.519531 69.261719 30.8125 69.261719 30.8125 67.792969 Z M 30.8125 67.792969 " fill-opacity="1" fill-rule="nonzero"></path><path fill="rgb(71.369934%, 63.139343%, 47.059631%)" d="M 27.625 57.46875 C 27.625 55.980469 25.328125 55.980469 25.328125 57.46875 C 25.328125 58.953125 27.625 58.953125 27.625 57.46875 Z M 27.625 57.46875 " fill-opacity="1" fill-rule="nonzero"></path><path fill="rgb(71.369934%, 63.139343%, 47.059631%)" d="M 12.722656 51.625 C 12.722656 50.136719 10.429688 50.136719 10.429688 51.625 C 10.429688 53.109375 12.722656 53.089844 12.722656 51.625 Z M 12.722656 51.625 " fill-opacity="1" fill-rule="nonzero"></path><path fill="rgb(71.369934%, 63.139343%, 47.059631%)" d="M 17.1875 39.53125 C 17.1875 38.042969 14.894531 38.042969 14.894531 39.53125 C 14.894531 41 17.1875 41 17.1875 39.53125 Z M 17.1875 39.53125 " fill-opacity="1" fill-rule="nonzero"></path><g clip-path="url(#id1)"><path fill="rgb(71.369934%, 63.139343%, 47.059631%)" d="M 4.457031 34.816406 C 4.457031 33.328125 2.160156 33.328125 2.160156 34.816406 C 2.160156 36.300781 4.457031 36.300781 4.457031 34.816406 Z M 4.457031 34.816406 " fill-opacity="1" fill-rule="nonzero"></path></g><path fill="rgb(71.369934%, 63.139343%, 47.059631%)" d="M 40.316406 15.816406 L 40.316406 4.34375 L 41.167969 4.34375 L 41.167969 15.816406 Z M 40.316406 15.816406 " fill-opacity="1" fill-rule="nonzero"></path><path fill="rgb(71.369934%, 63.139343%, 47.059631%)" d="M 45.628906 15.816406 L 45.628906 6.679688 L 46.480469 6.679688 L 46.480469 15.816406 Z M 45.628906 15.816406 " fill-opacity="1" fill-rule="nonzero"></path><path fill="rgb(71.369934%, 63.139343%, 47.059631%)" d="M 46.480469 7.316406 L 46.480469 6.679688 L 57.109375 6.679688 L 57.109375 7.316406 Z M 46.480469 7.316406 " fill-opacity="1" fill-rule="nonzero"></path><path fill="rgb(71.369934%, 63.139343%, 47.059631%)" d="M 42.015625 4.386719 C 42.015625 2.898438 39.71875 2.898438 39.71875 4.386719 C 39.71875 5.871094 42.015625 5.871094 42.015625 4.386719 Z M 42.015625 4.386719 " fill-opacity="1" fill-rule="nonzero"></path><path fill="rgb(71.369934%, 63.139343%, 47.059631%)" d="M 58.449219 6.933594 C 58.449219 5.449219 56.152344 5.449219 56.152344 6.933594 C 56.152344 8.421875 58.449219 8.421875 58.449219 6.933594 Z M 58.449219 6.933594 " fill-opacity="1" fill-rule="nonzero"></path><path fill="rgb(71.369934%, 63.139343%, 47.059631%)" d="M 55.621094 24.105469 L 55.621094 23.46875 L 68.585938 23.46875 L 68.585938 24.105469 Z M 55.621094 24.105469 " fill-opacity="1" fill-rule="nonzero"></path><path fill="rgb(71.369934%, 63.139343%, 47.059631%)" d="M 68.585938 24.105469 L 68.585938 11.140625 L 69.226562 11.140625 L 69.226562 24.105469 Z M 68.585938 24.105469 " fill-opacity="1" fill-rule="nonzero"></path><path fill="rgb(71.369934%, 63.139343%, 47.059631%)" d="M 55.621094 28.78125 L 55.621094 27.929688 L 73.902344 27.929688 L 73.902344 28.78125 Z M 55.621094 28.78125 " fill-opacity="1" fill-rule="nonzero"></path><path fill="rgb(71.369934%, 63.139343%, 47.059631%)" d="M 73.902344 28.78125 L 73.902344 16.453125 L 74.75 16.453125 L 74.75 28.78125 Z M 73.902344 28.78125 " fill-opacity="1" fill-rule="nonzero"></path><path fill="rgb(71.369934%, 63.139343%, 47.059631%)" d="M 55.621094 34.09375 L 55.621094 33.453125 L 73.902344 33.453125 L 73.902344 34.09375 Z M 55.621094 34.09375 " fill-opacity="1" fill-rule="nonzero"></path><path fill="rgb(71.369934%, 63.139343%, 47.059631%)" d="M 81.554688 38.726562 L 81.554688 47.90625 L 80.703125 47.90625 L 80.703125 39.042969 L 80.554688 38.765625 L 54.769531 38.765625 L 54.769531 37.917969 L 80.875 37.917969 Z M 81.554688 38.726562 " fill-opacity="1" fill-rule="nonzero"></path><path fill="rgb(71.369934%, 63.139343%, 47.059631%)" d="M 54.769531 44.078125 L 54.769531 43.230469 L 75.390625 43.230469 L 75.390625 44.078125 Z M 54.769531 44.078125 " fill-opacity="1" fill-rule="nonzero"></path><path fill="rgb(71.369934%, 63.139343%, 47.059631%)" d="M 79.214844 49.433594 L 79.214844 57.042969 L 78.578125 57.042969 L 78.578125 49.753906 L 78.28125 49.390625 L 54.132812 49.390625 L 54.132812 48.542969 L 78.578125 48.542969 Z M 79.214844 49.433594 " fill-opacity="1" fill-rule="nonzero"></path><path fill="rgb(71.369934%, 63.139343%, 47.059631%)" d="M 66.25 54.003906 L 66.25 63.203125 L 65.609375 63.203125 L 65.609375 54.320312 L 65.292969 54.066406 L 54.132812 54.066406 L 54.132812 53.21875 L 65.589844 53.21875 Z M 66.25 54.003906 " fill-opacity="1" fill-rule="nonzero"></path><path fill="rgb(71.369934%, 63.139343%, 47.059631%)" d="M 70.160156 11.269531 C 70.160156 9.78125 67.863281 9.78125 67.863281 11.269531 C 67.863281 12.757812 70.160156 12.757812 70.160156 11.269531 Z M 70.160156 11.269531 " fill-opacity="1" fill-rule="nonzero"></path><path fill="rgb(71.369934%, 63.139343%, 47.059631%)" d="M 75.625 16.753906 C 75.625 15.265625 73.328125 15.265625 73.328125 16.753906 C 73.328125 18.238281 75.625 18.21875 75.625 16.753906 Z M 75.625 16.753906 " fill-opacity="1" fill-rule="nonzero"></path><path fill="rgb(71.369934%, 63.139343%, 47.059631%)" d="M 75.242188 34.050781 C 75.242188 32.5625 72.945312 32.5625 72.945312 34.050781 C 72.945312 35.539062 75.242188 35.539062 75.242188 34.050781 Z M 75.242188 34.050781 " fill-opacity="1" fill-rule="nonzero"></path><path fill="rgb(71.369934%, 63.139343%, 47.059631%)" d="M 76.898438 43.996094 C 76.898438 42.507812 74.601562 42.507812 74.601562 43.996094 C 74.601562 45.460938 76.898438 45.460938 76.898438 43.996094 Z M 76.898438 43.996094 " fill-opacity="1" fill-rule="nonzero"></path><g clip-path="url(#id2)"><path fill="rgb(71.369934%, 63.139343%, 47.059631%)" d="M 82.636719 48.054688 C 82.636719 46.566406 80.34375 46.566406 80.34375 48.054688 C 80.34375 49.542969 82.636719 49.542969 82.636719 48.054688 Z M 82.636719 48.054688 " fill-opacity="1" fill-rule="nonzero"></path></g><path fill="rgb(71.369934%, 63.139343%, 47.059631%)" d="M 80.085938 57.359375 C 80.085938 55.875 77.792969 55.875 77.792969 57.359375 C 77.792969 58.828125 80.085938 58.828125 80.085938 57.359375 Z M 80.085938 57.359375 " fill-opacity="1" fill-rule="nonzero"></path><path fill="rgb(71.369934%, 63.139343%, 47.059631%)" d="M 67.226562 63.585938 C 67.226562 62.101562 64.929688 62.101562 64.929688 63.585938 C 64.929688 65.074219 67.226562 65.074219 67.226562 63.585938 Z M 67.226562 63.585938 " fill-opacity="1" fill-rule="nonzero"></path><path fill="rgb(71.369934%, 63.139343%, 47.059631%)" d="M 37.976562 74.679688 L 37.976562 59.378906 L 38.828125 59.378906 L 38.828125 74.679688 Z M 37.976562 74.679688 " fill-opacity="1" fill-rule="nonzero"></path><path fill="rgb(71.369934%, 63.139343%, 47.059631%)" d="M 43.292969 80.628906 L 43.292969 58.53125 L 44.140625 58.53125 L 44.140625 80.628906 Z M 43.292969 80.628906 " fill-opacity="1" fill-rule="nonzero"></path><path fill="rgb(71.369934%, 63.139343%, 47.059631%)" d="M 30.324219 81.480469 L 30.324219 80.628906 L 44.140625 80.628906 L 44.140625 81.480469 Z M 30.324219 81.480469 " fill-opacity="1" fill-rule="nonzero"></path><path fill="rgb(71.369934%, 63.139343%, 47.059631%)" d="M 58.597656 72.980469 L 58.597656 73.828125 L 48.476562 73.828125 L 47.96875 73.425781 L 47.96875 58.53125 L 48.605469 58.53125 L 48.605469 73.105469 L 48.796875 72.980469 Z M 58.597656 72.980469 " fill-opacity="1" fill-rule="nonzero"></path><g clip-path="url(#id3)"><path fill="rgb(71.369934%, 63.139343%, 47.059631%)" d="M 31.707031 81.160156 C 31.707031 79.671875 29.410156 79.671875 29.410156 81.160156 C 29.410156 82.628906 31.707031 82.628906 31.707031 81.160156 Z M 31.707031 81.160156 " fill-opacity="1" fill-rule="nonzero"></path></g><path fill="rgb(71.369934%, 63.139343%, 47.059631%)" d="M 39.59375 74.53125 C 39.59375 73.042969 37.296875 73.042969 37.296875 74.53125 C 37.296875 76.019531 39.59375 76.019531 39.59375 74.53125 Z M 39.59375 74.53125 " fill-opacity="1" fill-rule="nonzero"></path><path fill="rgb(71.369934%, 63.139343%, 47.059631%)" d="M 60.085938 73.765625 C 60.085938 72.277344 57.789062 72.277344 57.789062 73.765625 C 57.808594 75.253906 60.085938 75.253906 60.085938 73.765625 Z M 60.085938 73.765625 " fill-opacity="1" fill-rule="nonzero"></path><g clip-path="url(#id4)"><path fill="rgb(71.369934%, 63.139343%, 47.059631%)" d="M 49.757812 30.722656 C 48.949219 29.566406 47.574219 29.199219 46.257812 29.535156 C 45.820312 29.648438 45.394531 29.777344 44.976562 29.921875 C 44.320312 30.152344 43.664062 30.265625 43.007812 30.265625 C 42.351562 30.265625 41.699219 30.152344 41.042969 29.921875 C 40.621094 29.777344 40.1875 29.640625 39.761719 29.535156 C 38.441406 29.199219 37.066406 29.566406 36.261719 30.722656 C 35.417969 31.925781 35.296875 33.644531 35.75 35.023438 C 36.410156 37.027344 37.445312 38.800781 37.320312 41 C 37.1875 43.472656 37.265625 46.855469 38.695312 48.984375 C 39.167969 49.6875 40.09375 49.960938 40.527344 49.039062 C 41.074219 47.859375 40.929688 46.585938 40.789062 45.316406 C 40.648438 44.039062 40.511719 42.757812 41.089844 41.578125 C 41.484375 40.777344 42.125 40.382812 43.007812 40.382812 C 43.894531 40.382812 44.535156 40.777344 44.929688 41.578125 C 45.503906 42.765625 45.371094 44.039062 45.230469 45.316406 C 45.085938 46.585938 44.945312 47.859375 45.488281 49.039062 C 45.917969 49.960938 46.847656 49.6875 47.324219 48.984375 C 48.753906 46.855469 48.839844 43.472656 48.699219 41 C 48.570312 38.800781 49.613281 37.039062 50.269531 35.023438 C 50.71875 33.644531 50.601562 31.925781 49.757812 30.722656 Z M 49.757812 30.722656 " fill-opacity="1" fill-rule="nonzero"></path></g></svg>