<svg xmlns="http://www.w3.org/2000/svg" xmlns:xlink="http://www.w3.org/1999/xlink" height="512px" id="Teeth_x5F_braces" viewBox="0 0 512 512" width="512px" xml:space="preserve"><path d="M481.414,169.263c-8.787-8.281-20.053-10.895-31.732-7.359l-17.266,5.232c-12.162,3.689-24.494,3.69-36.658,0l-17.264-5.232  c-11.674-3.536-22.945-0.923-31.732,7.359c-5.303,4.996-9.258,11.625-11.718,19.19c-2.46-7.564-6.416-14.194-11.718-19.19  c-8.787-8.281-20.054-10.895-31.733-7.359l-17.265,5.232c-12.162,3.689-24.494,3.69-36.658,0l-17.264-5.232  c-11.675-3.537-22.945-0.923-31.733,7.359c-5.301,4.996-9.257,11.625-11.717,19.19c-2.46-7.564-6.416-14.194-11.718-19.19  c-8.787-8.282-20.059-10.894-31.732-7.359l-17.266,5.232c-12.162,3.689-24.494,3.69-36.658,0l-17.264-5.232  c-11.674-3.537-22.945-0.923-31.732,7.359c-12.813,12.075-17.794,33.674-12.688,55.026L44.43,335.23  c2.273,9.504,10.732,16.402,20.212,16.402c5.934-0.03,10.938-4.736,11.396-10.713c1.145-14.931,4.587-32.465,8.984-45.758  c5.671-17.146,10.912-21.678,12.891-21.678c1.978,0,7.219,4.53,12.891,21.678c4.396,13.292,7.838,30.824,8.982,45.757  c0.459,5.978,5.465,10.685,11.492,10.714c9.382,0,17.844-6.897,20.117-16.401l25.13-105.083h0.862l25.131,105.083  c2.273,9.504,10.734,16.401,20.213,16.401c5.932-0.03,10.938-4.736,11.396-10.713c1.144-14.931,4.587-32.464,8.982-45.758  c5.673-17.146,10.914-21.678,12.892-21.678c1.979,0,7.219,4.53,12.891,21.678c4.396,13.293,7.84,30.826,8.982,45.757  c0.459,5.978,5.465,10.685,11.492,10.714c9.385,0,17.844-6.898,20.117-16.401l25.131-105.083h0.861l25.132,105.083  c2.272,9.504,10.733,16.401,20.212,16.401c5.932-0.03,10.938-4.736,11.396-10.713c1.143-14.931,4.586-32.464,8.982-45.758  c5.672-17.146,10.912-21.678,12.891-21.678s7.219,4.531,12.891,21.678c4.396,13.292,7.84,30.825,8.984,45.756  c0.457,5.979,5.462,10.686,11.49,10.715c9.383,0,17.844-6.897,20.117-16.401l26.531-110.942  C499.207,202.937,494.229,181.338,481.414,169.263z M353.619,176.541c4.295-4.047,11.596-8.21,21.977-5.066l17.261,5.231  c14.089,4.273,28.376,4.273,42.462,0l17.262-5.232c10.383-3.143,17.684,1.02,21.977,5.066c9.75,9.188,13.741,26.528,10.2,43.608  h-45.161v-7.496c0-3.085-2.502-5.587-5.588-5.587h-1.438c-3.086,0-5.588,2.502-5.588,5.587v6.189h-24.548v-6.189  c0-3.085-2.501-5.587-5.587-5.587h-1.438c-3.086,0-5.587,2.502-5.587,5.587v7.496h-46.403  C339.878,203.069,343.869,185.729,353.619,176.541z M195.531,176.541c4.293-4.046,11.592-8.212,21.976-5.066l17.263,5.231  c14.087,4.274,28.372,4.273,42.461,0l17.262-5.232c10.382-3.143,17.683,1.02,21.977,5.066c9.75,9.188,13.74,26.528,10.2,43.608  h-45.782v-7.496c0-3.085-2.501-5.587-5.587-5.587h-1.438c-3.086,0-5.587,2.502-5.587,5.587v6.189h-24.549v-6.189  c0-3.085-2.501-5.587-5.587-5.587H236.7c-3.085,0-5.587,2.502-5.587,5.587v7.496h-45.782  C181.79,203.069,185.781,185.729,195.531,176.541z M37.443,176.541c4.293-4.046,11.592-8.212,21.977-5.066l17.262,5.231  c14.088,4.274,28.373,4.273,42.46,0l17.263-5.232c10.383-3.145,17.682,1.02,21.977,5.066c9.75,9.188,13.741,26.528,10.2,43.608  h-46.403v-7.496c0-3.085-2.501-5.587-5.587-5.587h-1.438c-3.086,0-5.587,2.502-5.587,5.587v6.189H85.018v-6.189  c0-3.085-2.502-5.587-5.588-5.587h-1.438c-3.085,0-5.587,2.502-5.587,5.587v7.496H27.243  C23.702,203.069,27.693,185.729,37.443,176.541z M141.668,332.905c-1.189,4.976-5.658,8.728-10.434,8.728  c-0.766-0.004-1.414-0.652-1.479-1.479c-1.201-15.682-4.826-34.126-9.459-48.133c-6.352-19.203-13.674-28.537-22.385-28.537  s-16.033,9.335-22.385,28.537c-4.633,14.009-8.258,32.453-9.461,48.137c-0.063,0.822-0.71,1.471-1.52,1.475  c-4.734,0-9.201-3.752-10.391-8.728L29.582,230.149h42.822v7.496c0,3.086,2.502,5.587,5.587,5.587h1.438  c3.086,0,5.588-2.501,5.588-5.587v-6.189h24.548v6.189c0,3.086,2.501,5.587,5.587,5.587h1.438c3.086,0,5.587-2.501,5.587-5.587  v-7.496h44.064L141.668,332.905z M299.756,332.906c-1.189,4.975-5.656,8.727-10.434,8.727c-0.766-0.004-1.415-0.652-1.479-1.479  c-1.201-15.682-4.826-34.125-9.459-48.133c-6.352-19.203-13.674-28.537-22.385-28.537s-16.033,9.335-22.385,28.537  c-4.633,14.01-8.259,32.453-9.459,48.135c-0.064,0.824-0.713,1.473-1.521,1.477c-4.732,0-9.201-3.752-10.391-8.728L187.67,230.149  h43.443v7.496c0,3.086,2.502,5.587,5.587,5.587h1.438c3.086,0,5.587-2.501,5.587-5.587v-6.189h24.549v6.189  c0,3.086,2.501,5.587,5.587,5.587h1.438c3.086,0,5.587-2.501,5.587-5.587v-7.496h43.443L299.756,332.906z M457.844,332.905  c-1.189,4.976-5.656,8.728-10.434,8.728c-0.766-0.004-1.414-0.652-1.477-1.479c-1.202-15.682-4.827-34.125-9.461-48.133  c-6.352-19.203-13.674-28.537-22.385-28.537s-16.033,9.335-22.385,28.537c-4.633,14.01-8.258,32.453-9.459,48.135  c-0.064,0.824-0.713,1.473-1.521,1.477c-4.733,0-9.2-3.752-10.391-8.728l-24.574-102.756h44.064v7.496  c0,3.086,2.501,5.587,5.587,5.587h1.438c3.086,0,5.587-2.501,5.587-5.587v-6.189h24.548v6.189c0,3.086,2.502,5.587,5.588,5.587  h1.438c3.086,0,5.588-2.501,5.588-5.587v-7.496h42.822L457.844,332.905z"></path></svg>