<svg xmlns="http://www.w3.org/2000/svg" xmlns:xlink="http://www.w3.org/1999/xlink" height="512px" id="Tooth_x5F_extraction" viewBox="0 0 512 512" width="512px" xml:space="preserve"><g><path d="M453.189,85.451v-65.41c0-1.55-0.709-3.01-1.939-3.96c-1.221-0.95-2.811-1.27-4.311-0.88L270.24,61.121   c-16.05-12.7-36.31-20.29-58.32-20.29c-34.21,0-64.22,18.34-80.71,45.7c-0.08,0.09-0.14,0.18-0.2,0.27   c-43.12,66.2-57.85,133.48-43.78,199.98c3.19,15.08,19.22,48.13,46.05,48.13c0.69,0,1.36-0.14,1.98-0.42l12.08,50.55   c-6.67-1.479-12.33-2.979-16.8-4.279c-4.68-3.271-10.14-5-15.89-5H63.81c-2.77,0-5,2.239-5,5v111.199c0,2.771,2.23,5,5,5h296.219   c2.761,0,5-2.229,5-5V380.762c0-2.761-2.239-5-5-5h-50.84c-5.77,0-11.449,1.829-16.119,5.159c-5.601,1.71-11.16,3.19-16.67,4.471   l12.149-50.79c0.54,0.199,1.12,0.31,1.72,0.31c26.83,0,42.851-33.05,46.041-48.13c5.869-27.73,6.729-55.6,2.6-83.46h109.279   c2.771,0,5-2.24,5-5v-63.32c0-2.76-2.229-5-5-5H316.57c-0.711-1.54-1.43-3.069-2.18-4.609l135.06-35.101   C451.66,89.721,453.189,87.731,453.189,85.451z M211.92,50.831c16.86,0,32.57,4.98,45.75,13.55c3.561,2.32,6.939,4.9,10.1,7.71   c6,5.33,11.221,11.49,15.49,18.311c3.551,5.64,6.44,11.74,8.57,18.17c1.24,3.76,2.23,7.63,2.939,11.59   c0.58,3.22,0.971,6.5,1.16,9.84c0.01,0.061,0.01,0.12,0.01,0.19c0.09,1.59,0.141,3.189,0.141,4.81c0,1.681-0.051,3.351-0.15,5   c-0.71,12.16-4.02,23.63-9.38,33.87c-3.12,5.98-6.95,11.54-11.36,16.57c-0.859,0.979-1.739,1.939-2.649,2.88   c-3.521,3.67-7.38,7.02-11.53,10c-13.83,9.97-30.79,15.85-49.09,15.85c-25.36,0-48.14-11.279-63.58-29.08   c-4.44-5.109-8.28-10.77-11.4-16.85c-5.87-11.49-9.19-24.479-9.19-38.24c0-8.97,1.41-17.62,4.03-25.739   c2.1-6.541,4.99-12.73,8.54-18.471C155.17,66.831,181.71,50.831,211.92,50.831z M287.609,230.721c2,9.91,3.74,22.57,4.091,37.45   c-2.511-5.84-5.97-10.97-10.3-15.05c-6.41-6.04-14.101-9.15-22.32-9.15c-3.37,0-6.83,0.521-10.32,1.58l-17.85,5.41   c-12.6,3.82-25.39,3.82-37.99,0l-17.85-5.41c-12.01-3.64-23.6-0.949-32.64,7.57c-4.49,4.23-8.05,9.61-10.58,15.72   c0.74-32.84,8.37-56.75,12.81-68c17.09,17.471,40.93,28.33,67.26,28.33c25.06,0,47.859-9.84,64.74-25.85h3.21   C282.25,209.651,285.24,218.951,287.609,230.721z M97.02,284.711c-10.83-51.16-3.82-102.92,20.84-154.35   c-0.07,1.54-0.11,3.08-0.11,4.64c0,21.59,7.3,41.5,19.58,57.41c-5.98,13.15-24.62,61.84-10.46,131.55   C110.71,319.151,99.65,297.151,97.02,284.711z M149.92,395.821l6.87,28.72c2.33,9.75,11.01,16.82,20.63,16.82h0.12   c0.66,0,1.31-0.07,1.94-0.18c-2.78,8.289-4.66,18.05-5.5,29.06c-0.13,1.6-1.42,2.85-3,2.86c-6.32,0-12.28-4.98-13.86-11.58   l-15.4-64.4c-0.07-0.29-0.14-0.57-0.22-0.85c-0.05-0.21-0.11-0.42-0.18-0.62c-0.08-0.28-0.17-0.561-0.26-0.84   c-0.11-0.351-0.24-0.7-0.37-1.04C143.55,394.451,146.64,395.142,149.92,395.821z M193.44,401.682c11.52,0.77,23.94,0.96,37,0.239   c1.38,6.38,2.52,12.99,3.32,19.4c-6.01-7.08-13.42-10.92-21.84-10.92c-8.43,0-15.84,3.84-21.85,10.92   C190.88,414.841,192.04,408.142,193.44,401.682z M195.83,391.831c0.82-3.05,1.69-5.979,2.6-8.729   c5.89-17.82,11.4-22.53,13.49-22.53c2.08,0,7.59,4.71,13.48,22.53c0.93,2.819,1.82,5.819,2.66,8.939   C216.74,392.591,205.93,392.441,195.83,391.831z M296.1,391.491c0.17-0.19,0.351-0.37,0.53-0.55c0.54-0.54,1.12-1.04,1.729-1.51   l0.011-0.011c3.13-2.39,6.86-3.659,10.819-3.659h45.84v101.199H68.81V385.762h45.84c3.89,0,7.57,1.229,10.67,3.55   c0,0.01,0.01,0.01,0.01,0.01l0.01,0.01c0.21,0.16,0.41,0.32,0.61,0.48c0.2,0.17,0.4,0.33,0.59,0.51c0.19,0.17,0.38,0.35,0.57,0.53   c0.18,0.17,0.36,0.359,0.54,0.55c0.18,0.18,0.35,0.38,0.51,0.569c0.17,0.2,0.33,0.391,0.49,0.591c0.15,0.18,0.28,0.359,0.41,0.54   c0.78,1.08,1.45,2.239,1.98,3.47c0.15,0.35,0.29,0.71,0.42,1.08c0.04,0.11,0.08,0.22,0.11,0.33c0.04,0.109,0.07,0.22,0.11,0.33   c0.12,0.37,0.22,0.75,0.31,1.14l15.4,64.39c2.67,11.16,12.59,19.261,23.59,19.261h0.1c6.7-0.03,12.35-5.34,12.87-12.09   c2.35-30.75,13.33-50.61,27.97-50.61c14.63,0,25.61,19.86,27.96,50.61c0.53,6.75,6.18,12.06,12.87,12.09c0.01,0,0.1,0,0.1,0   c11,0,20.919-8.101,23.589-19.261l15.4-64.39C292.55,396.461,294.029,393.721,296.1,391.491z M283.029,394.081   c-0.09,0.25-0.18,0.5-0.26,0.75c-0.129,0.37-0.24,0.75-0.35,1.14c-0.109,0.381-0.22,0.761-0.311,1.15l-15.399,64.4   c-1.58,6.6-7.54,11.58-13.92,11.58c-1.52-0.011-2.81-1.261-2.93-2.86c-0.85-11.01-2.73-20.771-5.51-29.06   c0.63,0.109,1.28,0.18,1.94,0.18h0.12c9.62,0,18.3-7.07,20.63-16.82l6.78-28.33C276.87,395.562,279.95,394.852,283.029,394.081z    M265.58,387.661l-2.54,10.62l-5.72,23.93c-1.25,5.21-5.92,9.141-10.88,9.15h-0.08c-0.88,0-1.62-0.74-1.69-1.68   c-0.69-9.04-2.17-18.971-4.16-28.49c-0.71-3.34-1.47-6.641-2.29-9.83c-1.03-4-2.14-7.84-3.32-11.4   c-6.54-19.779-14.06-29.39-22.98-29.39c-8.93,0-16.44,9.61-22.99,29.39c-1.14,3.471-2.23,7.2-3.24,11.09   c-0.82,3.181-1.59,6.48-2.3,9.82c-2.03,9.62-3.53,19.67-4.23,28.811c-0.07,0.939-0.81,1.68-1.69,1.68h-0.07   c-4.96-0.01-9.64-3.94-10.88-9.15l-5.83-24.37l-2.53-10.6l-19.07-79.72c-4.38-18.311-0.28-37.25,10.2-47.12   c3.37-3.181,8.52-6.431,15.49-6.431c2.27,0,4.73,0.351,7.39,1.15l17.85,5.41c14.53,4.41,29.26,4.41,43.79,0l17.85-5.41   c1.528-0.459,2.987-0.77,4.386-0.949l-21.904,34.797c-1.098,1.743-1.013,3.982,0.213,5.639s3.345,2.394,5.331,1.849l22.319-6.072   l-16.168,33.476c-1.201,2.486-0.159,5.477,2.328,6.677c0.701,0.339,1.442,0.499,2.171,0.499c1.858,0,3.643-1.041,4.506-2.826   l20.94-43.355c0.853-1.765,0.596-3.863-0.656-5.37s-3.271-2.143-5.158-1.629l-20.528,5.585l17.581-27.928l0,0   c3.09,1.239,5.601,3.069,7.521,4.89c10.479,9.87,14.58,28.81,10.21,47.12L265.58,387.661z M326.529,284.711   c-2.629,12.44-13.699,34.44-29.859,39.25c11.53-56.77,1.311-99.6-6.1-120.64h38.199C332.99,230.531,332.24,257.701,326.529,284.711   z M320.98,140.001h122.209v53.32H337.23H327.01h-40.369c-0.111-0.24-0.211-0.47-0.311-0.69c11.42-14.71,18.58-32.869,19.62-52.63   h4.14H320.98z M443.189,81.591l-133.39,34.66c-4.521-8.67-9.53-17.33-15.03-25.97c-4.209-7.77-9.479-14.88-15.619-21.15   l164.039-42.63V81.591z"></path><path d="M206.92,183.861c1.66,0.17,3.33,0.25,5,0.25s3.34-0.08,5-0.25c4.6-0.47,9.15-1.58,13.5-3.34   c5.91-2.4,11.45-5.99,16.24-10.78c8.08-8.08,13-18.49,14.119-29.74c0.031-0.229,0.051-0.46,0.061-0.689   c0.13-1.431,0.189-2.86,0.189-4.311c0-1.68-0.079-3.35-0.25-5c-0.029-0.33-0.069-0.649-0.109-0.979   c-1.3-10.87-6.16-20.92-14.01-28.76c-8.68-8.681-20.04-13.7-32.23-14.311c-0.83-0.04-1.67-0.06-2.51-0.06   c-6.62,0-13.04,1.3-18.97,3.77c-5.83,2.43-11.19,6-15.78,10.601c-9.26,9.26-14.37,21.6-14.37,34.739   c0,13.141,5.11,25.48,14.37,34.74C185.48,178.051,196.05,182.762,206.92,183.861z M250.88,131.571c0.1,1.13,0.15,2.28,0.15,3.43   c0,1.69-0.1,3.351-0.31,5c-0.09,0.681-0.19,1.351-0.31,2.021c-1.4,7.79-5.12,14.949-10.82,20.649   c-6.36,6.36-14.38,10.07-22.67,11.13c-3.32,0.42-6.68,0.42-10,0c-6.74-0.859-13.29-3.47-18.92-7.819l18.92-18.92l0.76-0.75   l16.31-16.311l0,0l18.91-18.91c4.26,5.5,6.95,11.99,7.82,18.91C250.78,130.521,250.84,131.041,250.88,131.571z M184.24,107.331   c3.31-3.31,7.12-5.96,11.26-7.87c3.03-1.39,6.24-2.399,9.56-2.979c2.24-0.391,4.53-0.59,6.86-0.59c8.77,0,17.1,2.85,23.91,8.13   l-22.87,22.859l-4.52,4.53l-0.23,0.23l-3.45,3.449l-23.83,23.82c-5.27-6.81-8.13-15.13-8.13-23.91   C172.8,124.531,176.87,114.711,184.24,107.331z"></path><path d="M167.8,267.081c-11.44,0-20.74,9.3-20.74,20.74s9.3,20.74,20.74,20.74c11.44,0,20.75-9.3,20.75-20.74   S179.24,267.081,167.8,267.081z M167.8,298.562c-5.92,0-10.74-4.811-10.74-10.74c0-5.92,4.82-10.74,10.74-10.74   c5.93,0,10.75,4.82,10.75,10.74C178.55,293.751,173.73,298.562,167.8,298.562z"></path><path d="M207,306.861c-8.9,0-16.14,7.24-16.14,16.14c0,8.9,7.24,16.141,16.14,16.141s16.14-7.24,16.14-16.141   C223.14,314.102,215.9,306.861,207,306.861z M207,329.142c-3.38,0-6.14-2.761-6.14-6.141s2.76-6.14,6.14-6.14s6.14,2.76,6.14,6.14   S210.38,329.142,207,329.142z"></path></g></svg>