<svg xmlns="http://www.w3.org/2000/svg" xmlns:xlink="http://www.w3.org/1999/xlink" height="512px" id="Dental_x5F_veneer" viewBox="0 0 512 512" width="512px" xml:space="preserve"><g><path d="M486.2,75.609c-6.67-7.15-15.48-11.09-24.81-11.09H50.61c-9.33,0-18.14,3.94-24.81,11.09c-7.6,8.15-11.5,19.51-10.7,31.17   l5.94,85.8c0.42,6.08,2.1,11.76,4.76,16.74c-2.2,16.15-3.18,35.76-2.21,59.57c0.05,1.3,0.61,2.53,1.56,3.42   c0.98,0.94,10.52,9.351,41.68,16.649c0.14,0.031,0.3,0.061,0.45,0.08c0.91,0.131,11.89,1.61,25.13,1.61   c12.49,0,26.99-1.319,36.89-6.36c-3.65,23.08-4.81,47.24-4.81,68.561c0,1.62,0.78,3.13,2.1,4.07c0.64,0.46,16.2,11.24,62.8,15.479   c0.15,0.011,0.3,0.021,0.46,0.021c1.84,0,40.1-0.141,61.68-10.561l35.451,82.59c0.81,1.891,2.649,3.03,4.59,3.03   c0.66,0,1.33-0.13,1.97-0.41c2.54-1.09,3.71-4.03,2.62-6.569l-36.131-84.181c0.871-0.88,1.371-2.079,1.41-3.329   c0.011-0.32,0.07-2.811,0.041-6.951l22.75,37.891l21.51,60.23c0.729,2.049,2.66,3.319,4.71,3.319c0.56,0,1.13-0.1,1.68-0.3   c2.601-0.93,3.96-3.79,3.03-6.391l-4.7-13.14l5.149,8.57c1.42,2.36,4.49,3.13,6.86,1.71c2.36-1.42,3.13-4.5,1.71-6.86L293.3,379.6   l-24.5-68.561c-0.899-2.459-2.659-4.5-4.93-5.739l-4.22-2.33l8.51,3.521l71.68,138.289c1.27,2.45,4.29,3.41,6.74,2.141   c2.449-1.271,3.41-4.29,2.14-6.74L277.32,302.39c-0.021-0.04-0.041-0.08-0.061-0.12l-0.43-0.77c-1.051-1.9-2.74-3.391-4.71-4.19   l-14.57-6.021c-0.34-2.35-0.69-4.649-1.06-6.909c0.119-0.08,0.229-0.15,0.35-0.23c6.67,3.38,24.17,10.36,59.5,13.57   c0.15,0.01,0.301,0.021,0.45,0.021c2.04,0,48.239-0.171,67.68-14.07c9.87,4.729,23.95,5.979,36.12,5.979   c13.23,0,24.221-1.479,25.13-1.61c0.15-0.02,0.3-0.049,0.45-0.08c31.15-7.299,40.7-15.709,41.68-16.649   c0.95-0.89,1.5-2.12,1.561-3.42c0.99-24.19-0.051-44.05-2.32-60.34c2.141-4.54,3.5-9.601,3.87-14.97l5.94-85.8   C497.7,95.12,493.8,83.76,486.2,75.609z M68.88,279.17c-21.85-5.15-31.93-10.76-35.39-13.051c-0.63-17.629-0.15-32.739,1.09-45.689   c0.44-4.66,0.99-9.04,1.62-13.16c8-52.51,29.36-61.92,29.9-62.14c0.03-0.021,0.06-0.03,0.09-0.041c10.66-4.2,19.53-3.64,27.13,1.71   c13.58,9.55,23.27,34.45,28.07,72.06c0.08,0.62,0.15,1.24,0.23,1.87c0.33,2.74,0.63,5.45,0.89,8.13   c1.66,16.75,2.01,31.881,2.04,40.86c-0.03,1.95-0.05,3.89-0.05,5.8C110.11,282.729,80.09,280.699,68.88,279.17z M248.97,228.859   c1.26,11.37,1.9,21.82,2.21,30.141c-3.02-11.48-6.68-21.541-10.94-30.141c-1.78-3.59-3.67-6.92-5.67-10   c-2.81-4.37-5.85-8.229-9.1-11.56c-10.03-10.3-22.01-15.521-35.61-15.53c-1.62,0-14.1,0.34-27.63,13.41   c-4.1,3.96-7.78,8.56-11.06,13.68c-2.04,3.14-3.92,6.49-5.66,10c-4.35,8.76-7.86,18.56-10.66,28.971   c0.38-10.471,1.04-20.11,1.95-28.971c0.36-3.45,0.75-6.78,1.18-10c6.11-46.33,19.22-69.3,30.7-80.68   c10.99-10.89,20.39-11.09,21.03-11.09h0.14c10.95,0,20.26,4.09,28.45,12.49c17.08,17.54,25.4,50.12,29.43,79.28   C248.2,222.25,248.61,225.589,248.97,228.859z M251.26,335.869c0.22,6.681,0.23,11.771,0.21,14.53c-1.15,0.82-2.45,1.58-3.87,2.29   c-15.55,7.82-45.62,9.7-57.53,9.73c-34.04-3.12-50.22-9.771-55.57-12.471c0.11-24.52,1.71-44.99,4.28-62.069   c0.52-3.48,1.09-6.83,1.69-10.03c4.15-22.14,10.05-37.85,16.33-48.99c2.17-3.85,4.38-7.16,6.59-10c1.78-2.29,3.55-4.28,5.29-6   c10.99-10.89,20.39-11.09,21.03-11.09h0.14c10.95,0,20.26,4.09,28.45,12.5c1.39,1.43,2.73,2.96,4.01,4.59   c2.4,3.04,4.6,6.39,6.62,10c7.95,14.19,13.12,32.26,16.45,50.19c0.49,2.59,0.94,5.18,1.34,7.76l-10.93-4.521l-24.71-10.209   c-3.41-1.41-7.19,0.029-8.78,3.359c-1.6,3.33-0.36,7.18,2.87,8.96l4.2,2.31l14.88,8.19l25.27,13.91   c0.01,0.07,0.01,0.149,0.02,0.229c0.68,7.051,1.13,13.65,1.42,19.48C251.09,331.14,251.19,333.6,251.26,335.869z M267.05,335.859   l-6.2-10.34c-0.16-2.73-0.34-5.609-0.57-8.609L267.05,335.859z M378.42,275.72c-13.79,9.75-48.41,11.989-61.41,12.021   c-33.98-3.11-50.16-9.761-55.529-12.461c0.01-1.06,0.02-2.39,0-3.949v-0.041c0.18-15.81,0.989-29.89,2.27-42.43   c0.359-3.45,0.75-6.78,1.18-10c6.1-46.33,19.211-69.3,30.69-80.68c10.989-10.89,20.39-11.09,21.04-11.09h0.13   c10.96,0,20.271,4.09,28.45,12.49c17.08,17.54,25.4,50.12,29.439,79.28c0.471,3.39,0.881,6.73,1.24,10   C378.34,250.83,378.46,269.39,378.42,275.72z M479.51,265.109c-3.51,2.33-13.6,7.93-35.39,13.061   c-11.22,1.529-41.28,3.58-55.66-3.67c-0.09-6.711-0.08-24.84,1.92-45.641c0.29-2.96,0.61-5.97,0.979-9.01   c0.041-0.33,0.08-0.66,0.121-0.99c4.76-38.17,14.5-63.41,28.199-73.06c7.59-5.351,16.471-5.9,27.131-1.71   c0.049,0.02,0.109,0.041,0.159,0.06c0.08,0.03,8.521,3.37,16.9,19.05c6.47,12.101,10.489,27.01,12.86,42.601   c0.699,4.53,1.25,9.13,1.68,13.729C479.91,235.37,480,251.279,479.51,265.109z M450.439,134.77c-13.83-5.43-26.109-4.47-36.52,2.86   c-17.42,12.26-26.35,41.2-30.9,69.6c-5.899-34.74-16.18-59.8-30.609-74.62c-10.02-10.29-22-15.52-35.61-15.52   c-1.61,0.01-14.1,0.34-27.63,13.41c-17.95,17.34-27.73,46.81-32.81,78.39c-5.87-35.6-16.24-61.23-30.89-76.28   c-10.03-10.29-22.01-15.52-35.61-15.52c-1.62,0.01-14.1,0.34-27.63,13.41c-17.56,16.96-27.31,45.54-32.48,76.34   c-4.61-27.95-13.53-56.15-30.67-68.209c-10.41-7.33-22.69-8.291-36.52-2.86c-2.08,0.79-21.2,9.08-32.01,49.45l-5.47-79.13   c-0.61-8.91,2.31-17.53,8.03-23.66c4.76-5.1,10.98-7.91,17.5-7.91h410.781c6.52,0,12.739,2.81,17.5,7.91   c5.719,6.13,8.64,14.75,8.029,23.66l-5.21,75.45C470.79,143.479,452.47,135.54,450.439,134.77z"></path><path d="M334.13,218.949c-0.149-0.03-0.3-0.06-0.45-0.09c-20.38-3.93-22.38-6.06-26.34-26.71c-0.23-1.17-0.859-2.19-1.73-2.91   c-0.869-0.72-1.989-1.15-3.18-1.15c-2.4,0-4.46,1.71-4.92,4.06c-3.96,20.65-5.96,22.78-26.34,26.71c-0.15,0.03-0.3,0.06-0.45,0.09   c-2.36,0.45-4.06,2.51-4.06,4.91c0,2.4,1.699,4.46,4.06,4.91c0.15,0.03,0.3,0.06,0.45,0.09c20.38,3.93,22.38,6.05,26.34,26.7   c0.46,2.36,2.52,4.06,4.92,4.06c2.391,0,4.45-1.699,4.91-4.06c3.96-20.65,5.96-22.77,26.34-26.7c0.15-0.03,0.301-0.06,0.45-0.09   c2.36-0.45,4.06-2.51,4.06-4.91C338.189,221.459,336.49,219.399,334.13,218.949z M302.43,236.16c-1.34-2.94-2.92-5.32-4.9-7.3   c-2.01-2.03-4.43-3.64-7.409-5c2.979-1.36,5.399-2.97,7.409-5c1.98-1.979,3.561-4.36,4.9-7.3c1.34,2.94,2.91,5.32,4.891,7.3   c2.01,2.03,4.43,3.64,7.41,5c-2.98,1.36-5.4,2.97-7.41,5C305.34,230.839,303.77,233.22,302.43,236.16z"></path><path d="M110.6,323.819c-20.8-3.989-22.81-6-26.8-26.8c-0.22-1.18-0.85-2.189-1.72-2.91c-0.88-0.72-1.99-1.15-3.19-1.15   c-2.4,0-4.46,1.711-4.91,4.061c-3.99,20.8-6,22.811-26.8,26.8c-2.35,0.45-4.05,2.511-4.05,4.91c0,2.39,1.7,4.46,4.05,4.91   c20.8,3.99,22.81,5.99,26.8,26.79c0.45,2.359,2.51,4.061,4.91,4.061s4.46-1.701,4.91-4.061c3.99-20.8,6-22.8,26.8-26.79   c2.35-0.45,4.05-2.521,4.05-4.91C114.65,326.33,112.95,324.27,110.6,323.819z M78.89,341.029c-2.7-5.91-6.39-9.6-12.3-12.3   c5.91-2.7,9.6-6.39,12.3-12.3c2.7,5.91,6.39,9.6,12.3,12.3C85.28,331.43,81.59,335.119,78.89,341.029z"></path><path d="M161.27,114.069c-20.8-3.99-22.8-5.99-26.79-26.79c-0.45-2.36-2.51-4.06-4.91-4.06s-4.46,1.7-4.91,4.06   c-3.99,20.8-6,22.8-26.8,26.79c-2.35,0.45-4.06,2.51-4.06,4.91c0,2.4,1.71,4.46,4.06,4.91c20.8,3.99,22.81,6,26.8,26.8   c0.45,2.35,2.51,4.06,4.91,4.06s4.46-1.71,4.91-4.06c3.99-20.8,5.99-22.81,26.79-26.8c2.36-0.45,4.06-2.51,4.06-4.91   C165.33,116.58,163.63,114.52,161.27,114.069z M129.57,131.279c-2.7-5.91-6.39-9.6-12.3-12.3c5.91-2.7,9.6-6.39,12.3-12.3   c2.7,5.91,6.39,9.6,12.3,12.3C135.96,121.68,132.27,125.37,129.57,131.279z"></path></g></svg>