<svg xmlns="http://www.w3.org/2000/svg" xmlns:xlink="http://www.w3.org/1999/xlink" height="512px" id="Dental_x5F_braces" viewBox="0 0 512 512" width="512px" xml:space="preserve"><path d="M492,294.21h-3.61c-0.385-4.071-0.839-7.958-1.359-11.649c2.17-4.58,3.56-9.69,3.93-15.11l5.94-85.8  c0.8-11.66-3.101-23.021-10.7-31.17c-6.67-7.15-15.48-11.09-24.811-11.09H50.61c-9.33,0-18.14,3.939-24.81,11.09  c-7.6,8.149-11.5,19.51-10.7,31.17l5.94,85.8c0.42,6.08,2.1,11.76,4.76,16.739c-0.436,3.2-0.822,6.542-1.156,10.021H20  c-2.761,0-5,2.239-5,5s2.239,5,5,5h3.858c-0.72,11.692-0.868,24.817-0.268,39.55c0.05,1.301,0.61,2.53,1.56,3.42  c0.98,0.94,10.52,9.35,41.68,16.65c0.14,0.029,0.3,0.061,0.45,0.08c0.91,0.13,11.89,1.609,25.13,1.609  c12.67,0,27.42-1.359,37.32-6.59c6.53,3.35,24.02,10.42,59.66,13.66c0.15,0.01,0.3,0.02,0.46,0.02c2.01,0,47.18-0.159,66.99-13.59  c6.67,3.381,24.17,10.36,59.5,13.57c0.15,0.01,0.3,0.02,0.45,0.02c2.021,0,47.47-0.159,67.19-13.719  c9.89,4.92,24.239,6.219,36.609,6.219c13.23,0,24.221-1.479,25.13-1.609c0.15-0.02,0.3-0.05,0.45-0.08  c31.15-7.311,40.7-15.72,41.68-16.65c0.95-0.899,1.5-2.119,1.561-3.42c0.597-14.563,0.451-27.547-0.249-39.14H492  c2.762,0,5-2.239,5-5S494.762,294.21,492,294.21z M458.99,293.439v-6.729c0-3.08-2.5-5.58-5.58-5.58h-1.44  c-3.09,0-5.59,2.5-5.59,5.58v6.19h-24.55v-6.19c0-3.08-2.5-5.58-5.58-5.58h-1.439c-3.091,0-5.591,2.5-5.591,5.58v7.021v0.479  h-17.728c0.02-0.159,0.039-0.319,0.058-0.479c4.79-37.84,14.5-62.87,28.13-72.471c7.601-5.35,16.471-5.909,27.131-1.71  c0.05,0.021,0.029,0.011,0.079,0.03c0.28,0.12,21.61,9.21,29.771,61.22c0.659,4.185,1.23,8.653,1.697,13.41H458.99V293.439z   M344.82,293.73v-7.021c0-3.08-2.5-5.58-5.59-5.58H337.8c-3.09,0-5.59,2.5-5.59,5.58v6.19h-24.55v-6.19c0-3.08-2.5-5.58-5.59-5.58  h-1.44c-3.08,0-5.58,2.5-5.58,5.58v7.021v0.479h-30.18c0.021-0.157,0.039-0.323,0.06-0.479c6.101-46.33,19.21-69.301,30.69-80.681  c10.99-10.89,20.39-11.09,21.04-11.09h0.13c10.96,0,20.271,4.09,28.45,12.49c17.08,17.54,25.399,50.12,29.439,79.28  c0.022,0.16,0.041,0.318,0.063,0.479H344.82V293.73z M216.52,293.73v-7.021c0-3.08-2.51-5.58-5.59-5.58h-1.439  c-3.08,0-5.59,2.5-5.59,5.58v6.19h-24.54v-6.19c0-3.08-2.51-5.58-5.59-5.58h-1.44c-3.09,0-5.59,2.5-5.59,5.58v7.021v0.479h-28.82  c0.021-0.157,0.039-0.323,0.06-0.479c6.11-46.33,19.22-69.301,30.7-80.681c10.99-10.89,20.391-11.09,21.03-11.09h0.14  c10.95,0,20.26,4.09,28.45,12.49c17.08,17.54,25.4,50.12,29.43,79.28c0.022,0.16,0.041,0.318,0.063,0.479H216.52V293.73z   M103.78,293.73v-7.021c0-3.08-2.5-5.58-5.59-5.58h-1.44c-3.08,0-5.59,2.5-5.59,5.58v6.19H66.62v-6.19c0-3.08-2.51-5.58-5.59-5.58  h-1.44c-3.09,0-5.59,2.5-5.59,5.58v6.87v0.63H34.69c0.421-4.245,0.929-8.272,1.51-12.06c8-52.51,29.35-61.931,29.9-62.15  c0.03-0.02,0.06-0.03,0.09-0.04c10.66-4.2,19.53-3.64,27.13,1.71c13.58,9.55,23.27,34.45,28.07,72.061  c0.021,0.158,0.039,0.32,0.059,0.479H103.78V293.73z M25.08,180.96c-0.61-8.91,2.31-17.53,8.03-23.66  c4.76-5.1,10.98-7.909,17.5-7.909h410.78c6.521,0,12.74,2.81,17.5,7.909c5.721,6.13,8.65,14.75,8.03,23.66l-5.25,75.92  c-10.92-37.96-29.2-45.88-31.23-46.649c-13.829-5.431-26.109-4.471-36.52,2.85c-17.35,12.22-26.28,40.98-30.85,69.29  c-5.9-34.88-16.2-60.03-30.66-74.89c-10.021-10.29-22-15.521-35.61-15.521c-1.58-0.01-14.1,0.34-27.63,13.41  c-17.939,17.34-27.73,46.81-32.81,78.39c-5.87-35.6-16.24-61.229-30.89-76.279c-10.03-10.29-22.01-15.521-35.61-15.521  c-1.6-0.01-14.11,0.34-27.63,13.41c-17.56,16.96-27.31,45.55-32.48,76.35c-4.61-27.96-13.53-56.159-30.67-68.22  c-10.41-7.33-22.69-8.29-36.52-2.859c-2.07,0.789-21.21,9.069-32.01,49.469L25.08,180.96z M68.88,354.04  c-21.85-5.149-31.93-10.761-35.39-13.05c-0.491-13.731-0.306-25.934,0.385-36.78H54v7.5c0,3.08,2.5,5.58,5.59,5.58h1.44  c3.08,0,5.59-2.5,5.59-5.58v-6.19h24.54v6.19c0,3.08,2.51,5.58,5.59,5.58h1.44c3.09,0,5.59-2.5,5.59-5.58v-7.5h18.775  c1.619,16.558,1.965,31.486,1.994,40.38c-0.03,1.96-0.05,3.891-0.05,5.801C110.11,357.6,80.09,355.561,68.88,354.04z M134.55,350.16  c0.021-1.7,0.04-4,0.021-6.79c0.236-14.483,1.001-27.481,2.184-39.16h29.986v7.5c0,3.08,2.5,5.58,5.59,5.58h1.44  c3.08,0,5.59-2.5,5.59-5.58v-6.19h24.54v6.19c0,3.08,2.51,5.58,5.59,5.58h1.439c3.08,0,5.59-2.5,5.59-5.58v-7.5h32.501  c2.043,18.655,2.419,34.811,2.449,42.99c-0.01,1.14-0.02,2.27-0.02,3.399c-13.79,9.74-48.39,11.98-61.38,12.01  C156.13,359.5,139.95,352.87,134.55,350.16z M378.42,350.59c-13.79,9.75-48.41,11.99-61.41,12.02  c-33.979-3.109-50.16-9.76-55.529-12.459c0.01-1.061,0.02-2.391,0-3.95v-0.04c0.178-15.611,0.971-29.529,2.224-41.95h31.346v7.5  c0,3.08,2.5,5.58,5.58,5.58h1.44c3.09,0,5.59-2.5,5.59-5.58v-6.19h24.55v6.19c0,3.08,2.5,5.58,5.59,5.58h1.431  c3.09,0,5.59-2.5,5.59-5.58v-7.5h31.15c1.915,17.548,2.36,32.878,2.439,41.44c0,0.39,0.01,0.77,0.01,1.14  c0.01,0.64,0.01,1.239,0.01,1.79v0.21C378.43,349.47,378.42,350.07,378.42,350.59z M479.51,340.57c-3.51,2.32-13.6,7.93-35.39,13.06  c-11.23,1.521-41.29,3.56-55.66-3.67c-0.089-6.718-0.079-24.901,1.935-45.75h18.825v7.5c0,3.08,2.5,5.58,5.591,5.58h1.439  c3.08,0,5.58-2.5,5.58-5.58v-6.19h24.55v6.19c0,3.08,2.5,5.58,5.59,5.58h1.44c3.08,0,5.58-2.5,5.58-5.58v-7.5h20.164  C479.823,314.946,479.996,327.012,479.51,340.57z"></path></svg>