<svg xmlns="http://www.w3.org/2000/svg" xmlns:xlink="http://www.w3.org/1999/xlink" height="512px" id="Wisdom_x5F_tooth" viewBox="0 0 512 512" width="512px" xml:space="preserve"><g><path d="M472.35,232.593h-1.369l4.52-18.9c4.3-17.97,0.08-36.17-10.74-46.37c-7.51-7.07-17.13-9.31-27.109-6.29l-14.291,4.33   c-9.899,3.01-19.939,3.01-29.84,0l-14.279-4.33c-9.98-3.02-19.601-0.78-27.11,6.29c-4.05,3.82-7.18,8.76-9.27,14.4   c-2.101-5.63-5.23-10.58-9.29-14.4c-7.511-7.07-17.141-9.31-27.11-6.29l-14.28,4.33c-9.899,3.01-19.939,3.01-29.84,0l-14.29-4.33   c-9.97-3.02-19.6-0.78-27.11,6.29c-10.819,10.2-15.039,28.4-10.739,46.37l4.52,18.9h-7.03c-8.01-16.31-24.92-26.3-44.959-26.3   c-15.82,0-31.94,6.01-45.391,16.92l-11.56,9.38H39.66c-13.16,0-23.87,10.71-23.87,23.87v144.01c0,2.761,2.24,5,5,5h470.42   c2.76,0,5-2.239,5-5v-144.01C496.21,243.303,485.51,232.593,472.35,232.593z M358.99,174.604c3.39-3.19,9.149-6.48,17.35-4   l14.28,4.33c11.83,3.59,23.819,3.59,35.64,0l14.29-4.33c8.2-2.48,13.96,0.81,17.351,4c8.14,7.67,11.3,22.44,7.88,36.76l-5.08,21.23   l-2.39,10l-14.49,60.59c-0.9,3.74-4.23,6.569-7.69,6.569h-0.1c-0.181-0.01-0.351-0.21-0.37-0.43c-1-13.04-4.021-28.39-7.87-40.04   c-5.39-16.29-11.72-24.21-19.351-24.21c-7.619,0-13.949,7.92-19.34,24.21c-3.859,11.65-6.869,27-7.869,40.04   c-0.021,0.229-0.19,0.42-0.4,0.43c-3.53,0-6.87-2.829-7.76-6.569l-14.49-60.59l-2.391-10l-5.079-21.23   C347.68,197.043,350.85,182.273,358.99,174.604z M342.85,219.843l3.051,12.75H339.8L342.85,219.843z M219.92,211.363   c-3.42-14.32-0.26-29.09,7.88-36.76c3.39-3.19,9.15-6.48,17.351-4l14.289,4.33c11.82,3.59,23.811,3.59,35.641,0l14.28-4.33   c8.199-2.48,13.96,0.81,17.35,4c8.14,7.67,11.31,22.44,7.88,36.76l-5.08,21.23l-2.39,10l-14.49,60.59   c-0.89,3.74-4.229,6.569-7.68,6.569h-0.11c-0.18-0.01-0.35-0.21-0.37-0.43c-1-13.05-4.01-28.39-7.87-40.04   c-5.39-16.29-11.71-24.21-19.34-24.21s-13.96,7.92-19.35,24.21c-3.851,11.65-6.87,27-7.87,40.04c-0.021,0.229-0.19,0.42-0.4,0.43   c-3.529,0-6.859-2.829-7.76-6.569l-14.49-60.59l-2.39-10L219.92,211.363z M486.21,395.473H25.79v-139.01   c0-7.649,6.22-13.87,13.87-13.87h67.89c1.15,0,2.26-0.39,3.16-1.12l12.93-10.5c11.67-9.46,25.55-14.68,39.091-14.68   c17.119,0,31.329,8.88,37.079,23.17c0.761,1.89,2.601,3.13,4.641,3.13h12.66l15.05,62.92c1.97,8.25,9.32,14.239,17.479,14.239   l0.15-0.01c5.33-0.05,9.81-4.29,10.22-9.66c0.94-12.29,3.78-26.72,7.4-37.659c4.76-14.41,8.979-17.351,9.85-17.351   c0.86,0,5.08,2.94,9.851,17.351c3.62,10.939,6.449,25.369,7.39,37.659c0.41,5.39,4.92,9.63,10.27,9.67h0.101   c8.16,0,15.52-5.989,17.49-14.239l15.05-62.92h10.88l15.05,62.92c1.97,8.25,9.33,14.239,17.57,14.239   c5.359-0.03,9.88-4.28,10.29-9.67c0.939-12.29,3.77-26.72,7.39-37.659c4.77-14.41,8.99-17.351,9.85-17.351   c0.871,0,5.091,2.94,9.851,17.351c3.62,10.939,6.46,25.369,7.399,37.659c0.41,5.39,4.92,9.63,10.271,9.67h0.101   c8.159,0,15.51-5.989,17.489-14.239l15.04-62.92h3.76c7.641,0,13.86,6.22,13.86,13.87V395.473z"></path><path d="M159.67,161.697l18.313-7.953l-13.056,33.1c-1.013,2.569,0.248,5.473,2.816,6.486c0.603,0.237,1.224,0.35,1.834,0.35   c1.993,0,3.877-1.2,4.652-3.167l17.484-44.329c0.742-1.881,0.277-4.024-1.177-5.43s-3.612-1.796-5.466-0.991l-18.313,7.953   l13.55-34.354c1.013-2.569-0.248-5.473-2.816-6.486c-2.568-1.012-5.474,0.248-6.486,2.817l-17.979,45.583   c-0.742,1.881-0.277,4.024,1.177,5.43C155.658,162.111,157.817,162.501,159.67,161.697z"></path><path d="M95.666,176.572c0.29,2.001,1.758,3.63,3.718,4.128c1.963,0.499,4.026-0.234,5.237-1.855l11.943-15.999l5.11,35.213   c0.361,2.489,2.498,4.283,4.942,4.282c0.238,0,0.48-0.017,0.724-0.052c2.733-0.396,4.627-2.934,4.23-5.667l-6.844-47.159   c-0.29-2.001-1.758-3.63-3.718-4.128c-1.964-0.5-4.026,0.235-5.237,1.855l-11.943,15.999l-5.304-36.546   c-0.396-2.732-2.928-4.628-5.666-4.23c-2.733,0.396-4.627,2.934-4.23,5.667L95.666,176.572z"></path><path d="M208.36,291.043c-6.99-7.63-11.33-16.68-12.9-26.9l-2.271-14.759c-1.59-10.3-7.76-18.01-17.38-21.73   c-13.88-5.35-32.12-1.29-46.46,10.35l-73.319,59.48c-6.58,5.35-8.8,14.569-5.28,21.93l0.07,0.13c2.359,4.78,8.109,6.99,13.13,5.04   c11.489-4.46,25.729-8.14,37.16-9.61c15.05-1.93,19.529,0.601,19.899,1.391c0.38,0.779-0.45,5.859-11.38,16.38   c-8.31,7.99-20.1,16.78-30.78,22.94c-4.68,2.709-6.55,8.619-4.229,13.529c2.97,6.19,9.51,10.04,16.45,10.04   c1.31,0,2.63-0.14,3.949-0.42l92.29-19.88c18.061-3.89,32.65-15.561,37.171-29.73c3.13-9.83,0.989-19.47-6.041-27.159   L208.36,291.043z M214.95,326.184c-3.4,10.649-15.351,19.89-29.75,22.99l-92.29,19.879c-3.76,0.811-7.74-0.979-9.23-4.08   l-0.05-0.109c-0.08-0.16,0.03-0.4,0.22-0.52c14.48-8.351,54.051-35.891,46.181-52.301c-2.75-5.75-10.221-7.82-19.431-7.82   c-17.08,0-40.149,7.11-50.27,11.041c-0.21,0.08-0.46,0.02-0.54-0.15l-0.03-0.05c-1.51-3.181-0.399-7.39,2.57-9.811l73.32-59.479   c11.43-9.28,26.119-12.81,36.56-8.79c4.34,1.68,9.79,5.45,11.1,13.92l2.271,14.75c1.87,12.22,7.05,23.03,15.4,32.149l10.079,11.011   C216.84,315.133,216.37,321.743,214.95,326.184z"></path></g></svg>