<svg xmlns="http://www.w3.org/2000/svg" xmlns:xlink="http://www.w3.org/1999/xlink" height="512px" id="Dental_x5F_floss" viewBox="0 0 512 512" width="512px" xml:space="preserve"><g><path d="M155.62,368.8c0,45.22,36.79,82.011,82.01,82.011s82-36.791,82-82.011s-36.78-82.01-82-82.01S155.62,323.58,155.62,368.8z    M309.63,368.8c0,39.7-32.3,72.011-72,72.011c-39.71,0-72.01-32.311-72.01-72.011s32.3-72.01,72.01-72.01   C277.33,296.79,309.63,329.1,309.63,368.8z"></path><path d="M175.62,368.8c0,34.19,27.82,62.011,62.01,62.011c34.19,0,62-27.82,62-62.011s-27.81-62.01-62-62.01   C203.44,306.79,175.62,334.609,175.62,368.8z M289.63,368.8c0,28.681-23.33,52.011-52,52.011c-28.68,0-52.01-23.33-52.01-52.011   c0-28.68,23.33-52.01,52.01-52.01C266.3,316.79,289.63,340.12,289.63,368.8z"></path><path d="M195.62,368.8c0,23.16,18.85,42.011,42.01,42.011c23.16,0,42-18.851,42-42.011c0-23.159-18.84-42.01-42-42.01   C214.47,326.79,195.62,345.641,195.62,368.8z M269.63,368.8c0,17.65-14.35,32.011-32,32.011s-32.01-14.36-32.01-32.011   c0-17.649,14.36-32.01,32.01-32.01S269.63,351.15,269.63,368.8z"></path><path d="M135.62,368.8c0,56.25,45.76,102.011,102.01,102.011c56.24,0,102-45.761,102-102.011s-45.76-102.01-102-102.01   C181.38,266.79,135.62,312.55,135.62,368.8z M329.63,368.8c0,50.729-41.271,92.011-92,92.011c-50.73,0-92.01-41.281-92.01-92.011   s41.28-92.01,92.01-92.01C288.359,276.79,329.63,318.07,329.63,368.8z"></path><path d="M445.26,150.79c0-42.81-34.83-77.65-77.65-77.65H186.66c-29.3,0-53.14-23.84-53.14-53.14c0-2.76-2.24-5-5-5   c-2.76,0-5,2.24-5,5c0,34.82,28.33,63.14,63.14,63.14h180.949c37.301,0,67.65,30.35,67.65,67.65c0,32.28-22.73,59.35-53.029,66.04   c-14.891-25.52-35.221-46.9-58.971-61.96c-24.369-15.45-52.01-23.97-80.19-24.72c-0.6-0.03-1.2-0.04-1.8-0.05   c-0.6-0.02-1.2-0.03-1.8-0.03c-0.23-0.01-0.45-0.01-0.68-0.01h-0.39h-0.77c-21.86,0-43.15,4.53-63.27,13.46   c-19.96,8.85-38.06,21.68-53.78,38.14c-16.83,17.61-30.08,38.41-39.37,61.84c-9.6,24.21-14.47,50.02-14.47,76.7   c0,28.71,5.63,63.479,15.44,95.409C93.05,451,108.1,479.391,124.57,495.57c0.93,0.92,2.19,1.43,3.5,1.43h219.12   c1.311,0,2.57-0.51,3.5-1.43c31.371-30.83,51.19-98.381,56.33-148.101c0.28-2.75-1.709-5.21-4.459-5.489   c-2.75-0.28-5.201,1.709-5.49,4.459c-4.881,47.221-23.18,110.82-51.961,140.561H130.15c-32.01-33.13-53.41-112.37-53.41-166.8   c0-30.88,7.19-61.091,20.41-87.69c38.95,11.61,85.2,17.72,134.01,17.72c53.34,0,104.63-7.52,145.18-21.26   c7.95,15.12,13.939,31.521,17.65,48.62c0.5,2.35,2.58,3.95,4.88,3.95c0.351,0,0.71-0.04,1.06-0.12c2.7-0.58,4.42-3.24,3.83-5.939   c-3.74-17.291-9.71-33.9-17.619-49.291C420.04,217.87,445.26,187.22,445.26,150.79z M341.48,228.43   c-33.201,7.69-71.16,11.8-110.32,11.8c-46.65,0-90.84-5.68-128.27-16.45c13.79-24.3,32.67-44.7,54.9-59.24   c24.28-15.89,52.02-24.34,80.29-24.47c36.561,0.1,70.98,13.59,99.561,39.02c12.619,11.24,23.629,24.52,32.659,39.28   c0.36,0.57,0.71,1.15,1.05,1.73C361.95,223.22,351.95,226,341.48,228.43z"></path><path d="M279.17,218.43c-0.699-2.54-3.29-4.109-5.9-3.53c-7.97,1.78-16.1,2.96-24.279,3.53h-11.36c-0.67,0-1.31,0.13-1.9,0.37   c-11.36-0.12-22.7-1.43-33.74-3.9c-2.7-0.6-5.37,1.1-5.97,3.79c-0.6,2.7,1.09,5.37,3.79,5.97c12.37,2.77,25.09,4.15,37.82,4.15   c3.82,0,7.63-0.13,11.44-0.38c8.88-0.57,17.72-1.83,26.38-3.77c2.69-0.6,4.39-3.27,3.79-5.97   C279.221,218.6,279.2,218.51,279.17,218.43z"></path></g></svg>