<svg xmlns="http://www.w3.org/2000/svg" xmlns:xlink="http://www.w3.org/1999/xlink" height="512px" id="Tooth_x5F_plaque" viewBox="0 0 512 512" width="512px" xml:space="preserve"><g><path d="M492,262.052h-38.679c-28.928,0-55.217,12.876-72.798,33.832l13.24-55.363c0.002-0.006,0.002-0.013,0.003-0.019   l14.028-58.656c0.3-1.254,0.581-2.508,0.844-3.761c1.843-8.775,2.792-17.539,2.892-26.098c0.343-29.347-9.3-56.299-27.172-73.14   c-1.195-1.127-2.419-2.188-3.664-3.197c-9.609-7.798-20.636-12.121-32.354-12.786c-6.934-0.394-14.106,0.491-21.368,2.69   l-7.85,2.379l-25.901,7.851c-0.064,0.02-0.129,0.036-0.193,0.056c-1.299,0.392-2.599,0.758-3.899,1.107   c-0.467,0.126-0.934,0.245-1.4,0.365c-0.922,0.238-1.844,0.464-2.767,0.681c-0.524,0.123-1.05,0.249-1.575,0.366   c-1.035,0.229-2.07,0.441-3.106,0.645c-0.913,0.18-1.827,0.345-2.741,0.503c-0.604,0.105-1.207,0.212-1.811,0.308   c-0.841,0.134-1.682,0.258-2.523,0.374c-0.4,0.056-0.8,0.106-1.199,0.159c-3.201,0.411-6.407,0.707-9.616,0.871   c-0.003,0-0.006,0-0.009,0c-8.038,0.41-16.091,0.043-24.117-1.105c-0.022-0.004-0.045,0-0.067-0.003   c-6.488-0.935-12.966-2.368-19.419-4.326l-33.751-10.229c-22.163-6.713-43.28-1.269-59.456,15.331   c-1.927,1.978-1.886,5.143,0.092,7.07c1.976,1.926,5.142,1.888,7.07-0.092c13.439-13.791,30.982-18.316,49.395-12.739   l33.749,10.229c5.435,1.648,10.885,2.942,16.344,3.919c-0.701,19.857,9.634,36.671,28.326,45.575   c10.217,4.865,21.309,5.926,32.035,6.951c4.625,0.441,9.407,0.899,13.934,1.661c3.587,0.604,7.584,1.533,10.034,3.853   c2.479,2.347,3.531,6.074,4.749,10.39c1.031,3.656,2.098,7.437,4.22,10.959c7.685,12.758,23.992,14.337,33.01,14.156   c3.117-0.065,6.242-0.289,9.265-0.505c7.641-0.547,14.859-1.062,21.522,0.856c2.053,0.591,4.156,1.43,6.383,2.318   c0.283,0.112,0.576,0.226,0.862,0.34l-11.743,49.102c-7.736,1.1-15.585,1.548-23.392,1.34l-1.669-0.051   c-6.094-0.191-13.009-0.412-19.251,2.787c-9.006,4.604-12.665,13.962-15.893,22.219c-1.256,3.212-2.442,6.246-3.877,8.977   c-3.532,6.715-10.241,12.135-17.344,17.873c-4.944,3.994-9.992,8.081-14.082,12.784c-10.057-24.227-21.229-36.492-33.31-36.492   c-8.603,0-16.746,6.217-24.354,18.545c-0.874-1.377-1.791-2.728-2.687-4.032c-3.047-4.438-5.924-8.629-6.146-13.004   c-0.034-0.679-0.007-1.454,0.021-2.274c0.073-2.141,0.165-4.805-0.83-7.494c-3.869-10.552-16.476-9.312-24.815-8.488l-1.254,0.122   c-7.935,0.754-15.649-1.284-21.179-5.594c-1.884-1.471-3.62-3.257-5.458-5.147c-1.664-1.713-3.386-3.483-5.327-5.127   c-5.33-4.515-12.844-7.848-20.613-9.144c-6.828-1.139-13.314-0.603-18.74,1.478l-10.687-44.686   c-4.851-20.281-4.622-40.664,0.66-58.946c0.767-2.653-0.763-5.425-3.416-6.191c-2.658-0.769-5.425,0.763-6.191,3.416   c-5.761,19.94-6.03,42.088-0.779,64.048l12.205,51.036c0.004,0.013,0.004,0.025,0.007,0.038l12.595,52.663   c-13.831-14.654-33.367-23.531-54.731-23.531H20c-2.762,0-5,2.238-5,5v177.195c0,2.762,2.238,5,5,5h472c2.762,0,5-2.238,5-5   V267.052C497,264.29,494.762,262.052,492,262.052z M392.081,173.56c-4.643-1.337-9.31-1.746-13.942-1.746   c-3.72,0-7.418,0.265-11.061,0.524c-3.031,0.217-5.896,0.422-8.76,0.481c-5.535,0.116-18.958-0.56-24.234-9.318   c-1.429-2.372-2.271-5.355-3.162-8.514c-1.414-5.014-3.018-10.696-7.499-14.938c-4.398-4.164-10.176-5.598-15.248-6.451   c-4.879-0.821-9.843-1.296-14.643-1.755c-10.317-0.986-20.063-1.917-28.687-6.024c-14.789-7.045-22.859-19.682-22.668-35.141   c10.135,1.051,20.287,0.942,30.417-0.318c0.061-0.008,0.12-0.017,0.181-0.024c1.818-0.229,3.636-0.496,5.452-0.8   c0.556-0.093,1.111-0.185,1.667-0.283c0.751-0.135,1.502-0.274,2.252-0.422c0.996-0.194,1.99-0.403,2.983-0.62   c0.596-0.131,1.191-0.263,1.786-0.401c1.18-0.273,2.358-0.563,3.536-0.869c0.435-0.113,0.868-0.228,1.303-0.345   c1.458-0.393,2.914-0.801,4.368-1.241l33.751-10.229h-0.001c21.084-6.385,36.31,1.156,45.805,9.355   c0.633,0.546,1.24,1.096,1.822,1.645c20.26,19.092,28.656,54.839,21.36,89.857C396.673,175.111,394.417,174.231,392.081,173.56z    M293.535,311.92c3.479-5.839,9.646-10.821,16.141-16.068c7.579-6.123,15.417-12.454,19.91-20.997   c1.695-3.224,3.039-6.663,4.34-9.989c2.831-7.241,5.505-14.08,11.135-16.959c3.949-2.024,9.016-1.864,14.379-1.693l1.716,0.052   c7.05,0.19,14.147-0.123,21.174-0.934l-36.136,151.097c-1.928,8.063-7.537,14.766-14.526,18.217   c-0.061,0.029-0.12,0.065-0.182,0.095c-0.488,0.236-0.989,0.443-1.49,0.647c-0.169,0.068-0.336,0.148-0.506,0.214   c-0.408,0.155-0.825,0.282-1.241,0.416c-0.267,0.085-0.531,0.185-0.801,0.261c-0.346,0.098-0.698,0.169-1.048,0.251   c-0.339,0.079-0.675,0.171-1.015,0.235c-0.328,0.062-0.66,0.095-0.989,0.143c-0.362,0.052-0.724,0.117-1.087,0.151   c-0.452,0.042-0.908,0.051-1.364,0.065c-0.238,0.008-0.476,0.034-0.714,0.034h-0.104c-3.965-0.02-7.315-3.226-7.627-7.301   c-0.024-0.311-0.056-0.629-0.08-0.94c-0.102-1.279-0.212-2.566-0.329-3.863c-0.044-0.475-0.084-0.946-0.13-1.424   c-0.139-1.459-0.29-2.931-0.449-4.406c-0.054-0.505-0.106-1.008-0.162-1.514c-0.162-1.455-0.335-2.918-0.516-4.385   c-0.072-0.584-0.144-1.168-0.218-1.754c-0.177-1.389-0.362-2.783-0.555-4.181c-0.096-0.705-0.195-1.409-0.295-2.115   c-0.185-1.288-0.374-2.577-0.57-3.869c-0.129-0.855-0.264-1.711-0.398-2.567c-0.121-0.77-0.246-1.539-0.372-2.309   c-0.233-1.428-0.473-2.854-0.72-4.283c-0.055-0.318-0.111-0.637-0.168-0.955c-3.119-17.802-7.315-35.488-12.144-50.777   c-0.259-0.822-0.52-1.635-0.782-2.442c-0.127-0.392-0.251-0.8-0.38-1.188c-0.223-0.673-0.446-1.327-0.671-1.987   c-0.057-0.169-0.113-0.339-0.171-0.507c-0.218-0.638-0.437-1.267-0.655-1.892C293.668,312.306,293.603,312.109,293.535,311.92z    M157.51,239.503c1.571,1.33,3.052,2.853,4.618,4.465c1.992,2.049,4.052,4.168,6.479,6.063c7.528,5.867,17.845,8.661,28.278,7.664   l1.285-0.125c5.588-0.551,13.241-1.305,14.451,1.993c0.317,0.856,0.27,2.234,0.22,3.693c-0.034,0.992-0.07,2.02-0.014,3.125   c0.365,7.198,4.361,13.021,7.888,18.157c0.974,1.417,1.893,2.757,2.733,4.106c0.934,1.496,1.798,3.067,2.582,4.691   c-1.831,3.841-3.627,8.064-5.388,12.662c-0.037,0.097-0.074,0.194-0.111,0.291c-0.308,0.808-0.614,1.626-0.92,2.456   c-0.176,0.476-0.351,0.953-0.525,1.434c-0.13,0.359-0.259,0.724-0.388,1.087c-3.656,10.252-6.874,21.453-9.619,32.888   c-0.041,0.168-0.08,0.337-0.121,0.506c-0.37,1.551-0.731,3.104-1.085,4.661c-0.098,0.434-0.198,0.863-0.295,1.297   c-0.319,1.428-0.63,2.857-0.935,4.286c-0.251,1.175-0.495,2.354-0.737,3.535c-0.023,0.112-0.046,0.224-0.068,0.335   c-3.199,15.648-5.629,31.785-6.973,46.82c-0.093,1.029-0.18,2.045-0.261,3.048c-0.032,0.404-0.073,0.816-0.104,1.219   c-0.312,4.072-3.66,7.277-7.624,7.297h-0.107c-8.554,0-16.729-5.014-21.477-12.507c-1.58-2.497-2.78-5.27-3.486-8.223   l-38.832-162.369C135.891,229.798,150.07,233.199,157.51,239.503z M487,439.247H25V272.052h49.28   c30.287,0,56.362,20.55,63.45,49.985l18.347,76.714c0.858,3.587,2.223,6.958,3.999,10.039c6.371,11.06,18.049,18.368,30.69,18.368   l0.161-0.001c0.221-0.001,0.436-0.026,0.653-0.036c0.348-0.015,0.697-0.021,1.04-0.056c0.034-0.004,0.067-0.012,0.102-0.016   c8.326-0.913,15.09-7.807,15.753-16.421c0.045-0.586,0.098-1.169,0.146-1.753c0.095-1.157,0.188-2.313,0.297-3.483   c0.026-0.3,0.057-0.599,0.085-0.898c0.882-9.26,2.169-18.913,3.796-28.58c1.975-11.73,4.442-23.471,7.265-34.525   c0.085-0.327,0.169-0.654,0.255-0.979c0.159-0.618,0.323-1.226,0.485-1.839c4.467-16.69,9.488-30.757,14.128-40.603   c0.087-0.184,0.174-0.366,0.261-0.547c0.203-0.426,0.405-0.839,0.606-1.248c4.978-10.097,10.074-17.002,14.864-20.045   c1.832-1.164,3.618-1.764,5.337-1.764c8.526,0,18.74,14.78,27.738,39.861c0.122,0.343,0.245,0.685,0.367,1.031   c0.137,0.387,0.272,0.779,0.409,1.17c0.204,0.588,0.407,1.178,0.609,1.775c0.047,0.139,0.094,0.278,0.141,0.418   c0.233,0.695,0.466,1.397,0.697,2.104c0.358,1.093,0.712,2.202,1.063,3.322c0.241,0.771,0.481,1.55,0.72,2.333   c0.123,0.403,0.243,0.813,0.365,1.219c0.459,1.533,0.913,3.082,1.359,4.656c0.018,0.063,0.035,0.125,0.053,0.188   c2.982,10.548,5.657,21.965,7.888,33.574c0.074,0.391,0.147,0.78,0.222,1.17c0.296,1.566,0.584,3.135,0.864,4.705   c0.123,0.692,0.244,1.385,0.364,2.078c0.208,1.203,0.411,2.406,0.609,3.609c0.153,0.934,0.304,1.867,0.451,2.8   c0.125,0.793,0.249,1.585,0.37,2.377c0.195,1.284,0.383,2.566,0.565,3.847c0.086,0.604,0.173,1.209,0.257,1.813   c0.197,1.434,0.386,2.861,0.567,4.286c0.069,0.549,0.139,1.098,0.206,1.646c0.179,1.453,0.349,2.9,0.51,4.34   c0.057,0.512,0.111,1.021,0.166,1.532c0.156,1.456,0.306,2.907,0.442,4.346c0.045,0.479,0.086,0.956,0.13,1.434   c0.11,1.219,0.214,2.431,0.31,3.635c0.026,0.329,0.055,0.66,0.08,0.987c0.189,2.455,0.886,4.764,1.961,6.842   c2.959,5.732,8.865,9.662,15.505,9.693l0.107,0.001c0,0,0.001,0,0.002,0h0.012l0.122,0.001c15.186,0,28.979-10.547,33.856-25.471   c0.112-0.344,0.215-0.691,0.317-1.037c0.037-0.124,0.078-0.245,0.113-0.368c0.145-0.508,0.28-1.019,0.403-1.532l14.715-61.529   c9.222-38.375,43.207-65.169,82.683-65.169H487V439.247z"></path><g><circle cx="160" cy="271.247" r="9"></circle><circle cx="196.5" cy="289.247" r="9"></circle><circle cx="171.425" cy="317.257" r="9"></circle><circle cx="356.925" cy="271.247" r="9"></circle><circle cx="323.49" cy="310.747" r="9"></circle><circle cx="332.49" cy="364.649" r="9"></circle><circle cx="347.925" cy="96.326" r="9"></circle><circle cx="374.268" cy="140.857" r="9"></circle><circle cx="305.49" cy="114.326" r="9"></circle></g></g></svg>