<svg xmlns="http://www.w3.org/2000/svg" xmlns:xlink="http://www.w3.org/1999/xlink" height="512px" id="Broken_x5F_tooth" viewBox="0 0 512 512" width="512px" xml:space="preserve"><path d="M492,262.039h-81.011c-8.984,0-17.384,2.853-24.241,7.799l21.047-88.006c9.592-40.113,0.393-80.541-23.437-102.998  c-12.1-11.4-26.809-16.851-42.467-15.977c-0.872-0.158-1.739-0.084-2.536,0.196c-4.08,0.403-8.217,1.226-12.383,2.487l-33.751,10.23  c-24.699,7.492-49.745,7.492-74.444,0l-33.751-10.23c-15.146-4.588-30.099-3.465-43.243,3.246c-2.459,1.254-3.436,4.266-2.18,6.727  c1.255,2.459,4.265,3.436,6.727,2.18c10.951-5.59,22.995-6.459,35.797-2.582l33.749,10.23c26.624,8.074,53.625,8.074,80.247,0  l33.749-10.23c1.293-0.393,2.562-0.726,3.811-1.016l-23.438,72.156c-0.609,1.877-0.059,3.936,1.406,5.258  c1.464,1.322,3.569,1.66,5.372,0.859l38.895-17.203l-36.345,69.309c-1.283,2.445-0.34,5.469,2.105,6.75  c0.741,0.389,1.535,0.574,2.318,0.574c1.799,0,3.538-0.975,4.432-2.68l43-82c0.988-1.883,0.676-4.186-0.776-5.738  c-1.454-1.555-3.733-2.016-5.674-1.156l-41.765,18.473l21.427-65.963c14.805-0.188,25.737,6.667,32.86,13.377  c10.009,9.432,17.321,22.979,21.148,39.176c4.026,17.045,3.826,35.793-0.58,54.219L370.739,293.78  c-0.002,0.007-0.004,0.014-0.006,0.021l-24.54,102.613c-2.825,11.819-13.556,20.73-24.96,20.73h-0.106  c-3.966-0.02-7.316-3.227-7.628-7.303c-2.322-30.303-9.321-65.928-18.268-92.973c-11.527-34.85-24.727-52.518-39.231-52.518  s-27.704,17.67-39.231,52.52c-8.946,27.047-15.946,62.674-18.268,92.975c-0.312,4.072-3.661,7.277-7.599,7.299h-0.136  c-11.404,0-22.135-8.911-24.96-20.73l-24.54-102.613c-0.002-0.007-0.004-0.014-0.005-0.021l-27.33-114.274  c-6.769-28.303-3.587-56.801,8.729-78.188c1.378-2.393,0.555-5.449-1.838-6.828c-2.394-1.379-5.449-0.553-6.828,1.838  c-13.577,23.578-17.145,54.742-9.789,85.504l21.047,88.006c-6.857-4.946-15.257-7.799-24.241-7.799H20c-2.762,0-5,2.238-5,5v177.194  c0,2.761,2.238,5,5,5h472c2.762,0,5-2.239,5-5V267.039C497,264.277,494.762,262.039,492,262.039z M487,439.233H25V272.039h76.011  c14.575,0,27.124,9.895,30.523,24.067L156.08,398.74c3.936,16.459,18.523,28.404,34.687,28.404h0.161  c9.132-0.047,16.838-7.311,17.544-16.535c0.849-11.081,2.338-22.889,4.327-34.709c3.315-19.699,8.02-39.432,13.464-55.889  c7.684-23.23,16.463-38.854,24.4-43.896c1.831-1.164,3.618-1.764,5.337-1.764c9.164,0,20.28,17.068,29.737,45.658  c0.544,1.645,1.081,3.323,1.61,5.031c7.934,25.617,14.058,57.861,16.181,85.565c0.706,9.228,8.414,16.491,17.573,16.538h0.132  c16.163,0,30.751-11.945,34.687-28.404l24.546-102.634c3.399-14.173,15.948-24.067,30.523-24.067H487V439.233z"></path></svg>