<svg xmlns="http://www.w3.org/2000/svg" xmlns:xlink="http://www.w3.org/1999/xlink" height="512px" id="Dental_x5F_crown" viewBox="0 0 512 512" width="512px" xml:space="preserve"><g><path d="M492,309.803h-38.679c-28.928,0-55.218,12.877-72.798,33.832l15.305-63.997c2.095-8.762,0.096-17.842-5.484-24.913   c-5.579-7.071-13.945-11.127-22.953-11.127h-18.567l-6.298-41.207c-1.664-10.883-10.862-18.782-21.871-18.782H303.5   c-2.762,0-5,2.238-5,5s2.238,5,5,5h17.154c6.033,0,11.074,4.329,11.986,10.294l6.066,39.695H173.293l6.066-39.695   c0.912-5.965,5.953-10.294,11.986-10.294H273.5c2.762,0,5-2.238,5-5s-2.238-5-5-5h-82.154c-11.009,0-20.207,7.899-21.871,18.782   l-6.298,41.207h-18.567c-9.008,0-17.374,4.056-22.953,11.127c-5.58,7.071-7.579,16.151-5.484,24.913l12.842,53.698   c-13.831-14.655-33.369-23.533-54.733-23.533H20c-2.762,0-5,2.238-5,5v177.195c0,2.762,2.238,5,5,5h472c2.762,0,5-2.238,5-5   V314.803C497,312.041,494.762,309.803,492,309.803z M125.898,277.312c-1.379-5.765-0.063-11.739,3.608-16.393   c3.671-4.652,9.176-7.321,15.103-7.321h22.662c0.066,0.003,0.131,0.011,0.197,0.011h177.063c0.066,0,0.131-0.008,0.197-0.011   h22.662c5.927,0,11.432,2.669,15.103,7.321c3.672,4.653,4.987,10.628,3.608,16.393l-25.188,105.324   c-0.008,0.034-0.019,0.067-0.026,0.102l-14.694,61.441c-1.928,8.063-7.537,14.766-14.526,18.217   c-0.061,0.03-0.12,0.065-0.182,0.095c-0.488,0.236-0.989,0.443-1.49,0.647c-0.169,0.068-0.336,0.149-0.506,0.214   c-0.409,0.155-0.825,0.283-1.241,0.416c-0.267,0.086-0.531,0.185-0.801,0.261c-0.346,0.099-0.698,0.169-1.048,0.251   c-0.339,0.079-0.675,0.172-1.015,0.235c-0.328,0.062-0.66,0.095-0.989,0.143c-0.362,0.052-0.724,0.117-1.087,0.151   c-0.452,0.043-0.908,0.051-1.363,0.066c-0.239,0.008-0.477,0.033-0.715,0.033h-0.104c-3.965-0.02-7.315-3.226-7.627-7.301   c-2.322-30.303-9.321-65.928-18.268-92.974c-11.527-34.849-24.727-52.518-39.231-52.518s-27.704,17.67-39.231,52.52   c-8.946,27.047-15.946,62.674-18.268,92.976c-0.312,4.072-3.66,7.277-7.624,7.297h-0.107c-8.554,0-16.729-5.014-21.477-12.507   c-1.58-2.497-2.78-5.27-3.486-8.223l-18.323-76.615c-0.007-0.026-0.015-0.053-0.021-0.079L125.898,277.312z M487,486.998H25   V319.803h49.28c30.301,0,56.388,20.568,63.46,50.025l18.337,76.674c0.87,3.639,2.263,7.055,4.076,10.172   c6.388,10.984,18.021,18.235,30.613,18.235l0.161-0.001c0.221-0.001,0.436-0.026,0.653-0.035c0.349-0.016,0.697-0.021,1.04-0.057   c0.034-0.004,0.067-0.012,0.102-0.016c8.326-0.913,15.09-7.807,15.753-16.421c2.263-29.553,9.079-64.271,17.789-90.604   c9.456-28.59,20.572-45.658,29.735-45.658s20.279,17.067,29.735,45.656c8.71,26.332,15.526,61.047,17.789,90.598   c0.188,2.456,0.886,4.765,1.961,6.843c2.959,5.732,8.865,9.66,15.505,9.692l0.107,0.001c0,0,0.001,0,0.002,0h0.012l0.122,0.001   c15.66,0,29.842-11.215,34.289-26.882c0.144-0.506,0.278-1.015,0.401-1.526l14.713-61.524   c9.221-38.378,43.207-65.174,82.685-65.174H487V486.998z"></path><path d="M109.027,154.24c0.538,2.25,2.55,3.837,4.863,3.837h284.219c2.313,0,4.325-1.587,4.863-3.837l4.82-20.159   c9.59-40.113,0.391-80.543-23.437-103c-15.884-14.97-36.266-19.692-57.387-13.299l-33.752,10.231   c-24.694,7.494-49.739,7.495-74.438-0.001l-33.752-10.23c-21.122-6.396-41.503-1.67-57.385,13.299   c-23.827,22.457-33.026,62.887-23.437,103L109.027,154.24z M134.502,38.358c9.314-8.778,25.137-17.814,47.628-11.006l33.748,10.229   c26.623,8.081,53.621,8.08,80.242,0.001l33.748-10.23c22.493-6.808,38.315,2.229,47.63,11.006   c20.94,19.736,29.206,57.27,20.568,93.396l-3.902,16.322H117.836l-3.902-16.322C105.296,95.628,113.562,58.095,134.502,38.358z"></path></g></svg>