<svg xmlns="http://www.w3.org/2000/svg" xmlns:xlink="http://www.w3.org/1999/xlink" height="512px" id="Mouthwash" viewBox="0 0 512 512" width="512px" xml:space="preserve"><g><path d="M281.301,138.844c-0.332-0.687-0.695-1.355-1.09-2.003c-0.196-0.324-0.401-0.643-0.613-0.956   c-4.239-6.27-11.414-10.399-19.534-10.399h-0.001h-49.129v-13.214h3.408c2.762,0,5-2.239,5-5V19.813c0-2.761-2.238-5-5-5h-87.375   c-2.762,0-5,2.239-5,5v87.459c0,2.761,2.238,5,5,5h3.408v13.214h-49.13c-12.993,0-23.564,10.571-23.564,23.565v6.943V256.58   c0,2.761,2.238,5,5,5h18.015v99.514H62.681c-2.762,0-5,2.238-5,5v107.528c0,12.994,10.571,23.565,23.564,23.565h178.817h0.001   c8.12,0,15.295-4.129,19.534-10.398c0.212-0.314,0.417-0.633,0.613-0.957c0.395-0.647,0.758-1.315,1.09-2.002   c1.49-3.09,2.327-6.554,2.327-10.208V366.094c0-2.762-2.238-5-5-5h-18.015V261.58h18.015c2.762,0,5-2.239,5-5v-80.97v-26.559   C283.628,145.396,282.791,141.934,281.301,138.844z M131.967,24.813h77.375v77.459h-3.408h-70.559h-3.408V24.813z M140.375,112.271   h60.559v13.214h-60.559V112.271z M78.515,135.762c0.882-0.181,1.795-0.276,2.73-0.276h54.13h70.559h54.129   c7.48,0,13.565,6.085,13.565,13.565v22.535c-37.597,7.946-75.276,7.548-101.478-1.162c-4.952-1.646-9.993-3.435-14.869-5.165   c-17.437-6.188-35.468-12.585-54.595-14.435c-11.749-1.138-23.497-1.239-35.006-0.318v-1.455   C67.681,142.506,72.34,137.029,78.515,135.762z M273.628,371.094v102.528c0,2.337-0.595,4.539-1.64,6.461   c-2.3,4.228-6.783,7.104-11.926,7.104H81.245c-7.479,0-13.564-6.086-13.564-13.565V371.094h18.015h169.918H273.628z    M250.613,361.094H90.695V261.58h159.918V361.094z M273.628,251.58h-18.015H85.695H67.681v-91.047   c11.178-0.942,22.608-0.861,34.043,0.245c17.904,1.731,35.347,7.92,52.214,13.906c4.922,1.746,10.011,3.552,15.059,5.23   c13.325,4.431,49.572,13.194,104.632,1.892V251.58z"></path><path d="M453.05,289.763c-0.948-1.063-2.306-1.671-3.73-1.671H308.827c-1.425,0-2.782,0.607-3.73,1.671   c-0.949,1.063-1.399,2.48-1.237,3.896l10.723,93.856l9.623,84.24c0,0.007,0.003,0.013,0.004,0.019l2.396,20.977   c0.289,2.525,2.426,4.432,4.968,4.432h95c2.542,0,4.679-1.906,4.968-4.432l2.396-20.977c0-0.006,0.003-0.012,0.004-0.019   l5.019-43.943l15.327-134.153C454.449,292.243,453.999,290.826,453.05,289.763z M443.716,298.092l-5.392,47.185   c-9.863,0.731-20.811-0.611-31.924-3.948c-4.792-1.438-9.529-2.914-14.109-4.344c-25.087-7.826-48.859-15.237-74.988-13.753   l-2.872-25.14H443.716z M424.511,466.188h-90.875l-9.345-81.791l-5.851-51.219c24.017-1.256,45.854,5.549,70.872,13.354   c4.606,1.437,9.37,2.923,14.214,4.375c11.574,3.476,23.073,4.993,33.643,4.463l-9.96,87.197L424.511,466.188z M336.034,487.182   l-1.256-10.994h88.59l-1.256,10.994H336.034z"></path><g><path d="M430.74,235.056h-10v-10c0-2.761-2.238-5-5-5s-5,2.239-5,5v10h-10c-2.762,0-5,2.239-5,5s2.238,5,5,5h10v10    c0,2.761,2.238,5,5,5s5-2.239,5-5v-10h10c2.762,0,5-2.239,5-5S433.502,235.056,430.74,235.056z"></path><path d="M360.624,190.486h-10v-10c0-2.761-2.238-5-5-5s-5,2.239-5,5v10h-10c-2.762,0-5,2.239-5,5s2.238,5,5,5h10v10    c0,2.761,2.238,5,5,5s5-2.239,5-5v-10h10c2.762,0,5-2.239,5-5S363.386,190.486,360.624,190.486z"></path></g></g></svg>