<svg xmlns="http://www.w3.org/2000/svg" xmlns:xlink="http://www.w3.org/1999/xlink" height="512px" id="Dental_x5F_plaque_x5F_cleaning" viewBox="0 0 512 512" width="512px" xml:space="preserve"><g><path d="M403.197,303.082v-98.241h5.561c2.438,0,4.52-1.757,4.93-4.159l5.41-31.725c0-0.004,0.001-0.008,0.002-0.011l0.027-0.159   c0.041-0.246,0.058-0.492,0.063-0.738c0.001-0.035,0.011-0.068,0.011-0.104V20.035c0-2.762-2.239-5-5-5h-32c-2.761,0-5,2.238-5,5   v147.91c0,0.018,0.005,0.034,0.005,0.053c0.003,0.263,0.02,0.526,0.064,0.789l5.439,31.895c0.409,2.402,2.491,4.159,4.928,4.159   h5.561v102.965c0,2.762,2.239,5,5,5c19.852,0,36,16.149,36,36s-16.148,36-36,36c-8.396,0-16.568-2.952-23.01-8.313   c-2.123-1.767-5.275-1.477-7.042,0.646c-1.767,2.123-1.478,5.275,0.646,7.042c8.234,6.852,18.678,10.625,29.406,10.625   c25.365,0,46-20.636,46-46C444.197,325.131,426.219,305.583,403.197,303.082z M387.2,25.035h22v137.91h-22V25.035z    M388.123,172.946h20.15l-3.734,21.895h-12.683L388.123,172.946z"></path><g><circle cx="75.425" cy="318.965" r="9"></circle><circle cx="111.925" cy="336.965" r="9"></circle><circle cx="86.85" cy="364.975" r="9"></circle><circle cx="272.35" cy="318.965" r="9"></circle><circle cx="238.915" cy="358.465" r="9"></circle><circle cx="247.915" cy="412.367" r="9"></circle><path d="M492,429.93H368.746c-18.166,0-36.449-21.078-51.141-38.015c-11.145-12.849-19.584-22.582-27.627-23.351l19.209-80.326    c0.002-0.006,0.002-0.012,0.004-0.017l14.027-58.658c4.4-18.399,4.91-37.328,1.476-54.739c-0.534-2.71-3.165-4.475-5.873-3.938    c-2.709,0.534-4.472,3.164-3.938,5.873c3.158,16.012,2.678,33.467-1.39,50.478l-13.252,55.409    c-7.737,1.1-15.592,1.547-23.392,1.34l-1.669-0.051c-6.1-0.192-13.009-0.413-19.252,2.787    c-9.005,4.604-12.664,13.962-15.892,22.218c-1.256,3.213-2.442,6.247-3.878,8.978c-3.532,6.715-10.24,12.135-17.343,17.873    c-4.945,3.994-9.992,8.081-14.082,12.785c-10.057-24.227-21.23-36.493-33.31-36.493c0,0,0,0,0,0l0,0    c-8.603,0-16.746,6.216-24.354,18.544c-0.873-1.377-1.79-2.726-2.686-4.029c-3.047-4.438-5.925-8.63-6.147-13.005    c-0.034-0.679-0.007-1.453,0.021-2.273c0.074-2.142,0.166-4.806-0.83-7.495c-3.869-10.554-16.475-9.312-24.816-8.489l-1.254,0.122    c-7.925,0.757-15.648-1.283-21.178-5.594c-1.883-1.47-3.619-3.256-5.457-5.146c-1.665-1.713-3.387-3.484-5.328-5.128    c-5.331-4.515-12.843-7.848-20.613-9.144c-6.829-1.139-13.315-0.603-18.741,1.478l-10.687-44.686    c-4.406-18.425-4.606-37.174-0.58-54.219c3.827-16.197,11.14-29.744,21.148-39.176c9.314-8.777,25.138-17.813,47.626-11    l33.749,10.229c26.625,8.079,53.624,8.078,80.247,0.001l33.75-10.229c19.707-5.966,38.132-0.477,51.888,15.459    c1.804,2.09,4.961,2.321,7.052,0.518c2.091-1.805,2.322-4.962,0.519-7.053c-16.256-18.831-38.983-25.573-62.358-18.494    l-33.752,10.23c-24.698,7.492-49.744,7.493-74.443-0.001l-33.751-10.229c-21.12-6.396-41.501-1.675-57.384,13.293    c-23.83,22.456-33.029,62.885-23.436,102.998l12.204,51.03c0.003,0.015,0.004,0.029,0.007,0.044l12.619,52.765    c-6.281-6.648-13.792-12.193-22.304-16.266c-1.549-0.739-3.37-0.634-4.823,0.28c-1.453,0.916-2.334,2.513-2.334,4.23v170.317    c0,2.762,2.239,5,5,5h472c2.762,0,5-2.238,5-5V434.93C497,432.168,494.762,429.93,492,429.93z M208.96,359.638    c3.479-5.839,9.646-10.821,16.141-16.068c7.579-6.123,15.416-12.454,19.909-20.997c1.696-3.225,3.041-6.664,4.341-9.99    c2.831-7.24,5.504-14.079,11.134-16.958c3.95-2.024,9.018-1.863,14.379-1.693l1.716,0.052c7.054,0.19,14.148-0.123,21.174-0.934    l-36.135,151.097c-1.767,7.387-6.621,13.638-12.797,17.287c-0.578,0.342-1.169,0.655-1.769,0.95    c-0.046,0.022-0.091,0.05-0.138,0.072c-0.501,0.243-1.015,0.455-1.53,0.664c-0.157,0.063-0.31,0.138-0.468,0.197    c-0.419,0.16-0.848,0.291-1.274,0.428c-0.257,0.082-0.51,0.178-0.769,0.25c-0.355,0.102-0.716,0.174-1.075,0.258    c-0.33,0.076-0.658,0.167-0.989,0.229c-0.333,0.063-0.671,0.097-1.007,0.146c-0.356,0.051-0.712,0.115-1.07,0.148    c-0.454,0.043-0.912,0.052-1.369,0.066c-0.237,0.008-0.474,0.033-0.71,0.033h-0.104c-3.965-0.02-7.315-3.227-7.627-7.301    c-0.021-0.273-0.049-0.554-0.07-0.827c-0.106-1.343-0.222-2.696-0.346-4.058c-0.037-0.408-0.072-0.813-0.11-1.225    c-0.144-1.515-0.301-3.043-0.466-4.578c-0.051-0.477-0.101-0.951-0.154-1.43c-0.164-1.475-0.34-2.957-0.522-4.445    c-0.07-0.567-0.139-1.134-0.211-1.703c-0.179-1.406-0.367-2.818-0.562-4.234c-0.094-0.682-0.189-1.363-0.286-2.047    c-0.187-1.309-0.379-2.619-0.579-3.932c-0.126-0.833-0.257-1.666-0.388-2.501c-0.132-0.836-0.268-1.672-0.405-2.508    c-0.115-0.706-0.223-1.409-0.341-2.115c-0.11-0.653-0.23-1.305-0.343-1.957c-0.064-0.373-0.131-0.745-0.196-1.118    c-0.329-1.875-0.669-3.747-1.022-5.617c-0.007-0.041-0.015-0.081-0.023-0.122c-2.982-15.797-6.778-31.301-11.074-44.908    c-0.264-0.839-0.53-1.669-0.797-2.492c-0.125-0.382-0.245-0.778-0.37-1.156c-0.223-0.674-0.448-1.329-0.672-1.991    c-0.056-0.166-0.112-0.334-0.168-0.5c-0.22-0.644-0.44-1.277-0.661-1.909C209.089,360.014,209.025,359.823,208.96,359.638z     M72.935,287.221c1.572,1.33,3.052,2.854,4.619,4.466c1.992,2.049,4.051,4.167,6.477,6.062c7.528,5.866,17.838,8.66,28.278,7.664    l1.285-0.125c5.589-0.551,13.243-1.305,14.452,1.993c0.317,0.856,0.27,2.235,0.219,3.694c-0.034,0.992-0.07,2.019-0.014,3.124    c0.366,7.199,4.363,13.021,7.89,18.159c0.973,1.417,1.892,2.756,2.731,4.104c0.934,1.497,1.798,3.069,2.582,4.693    c-1.648,3.458-3.27,7.213-4.861,11.285c-0.176,0.451-0.351,0.918-0.526,1.377c-0.037,0.096-0.074,0.191-0.11,0.288    c-0.309,0.81-0.616,1.63-0.922,2.462c-0.175,0.473-0.349,0.947-0.522,1.425c-0.131,0.364-0.262,0.733-0.393,1.103    c-3.652,10.24-6.866,21.427-9.609,32.848c-0.047,0.196-0.093,0.394-0.14,0.59c-0.36,1.508-0.712,3.02-1.056,4.534    c-0.106,0.469-0.215,0.935-0.32,1.405c-0.313,1.404-0.619,2.809-0.918,4.214c-0.259,1.211-0.51,2.427-0.76,3.645    c-0.012,0.058-0.023,0.115-0.035,0.173c-3.103,15.162-5.494,30.795-6.866,45.436c-0.047,0.499-0.082,0.986-0.126,1.483    c-0.092,1.024-0.178,2.034-0.258,3.033c-0.033,0.405-0.074,0.819-0.104,1.224c-0.098,1.272-0.492,2.461-1.108,3.493    c-1.357,2.271-3.791,3.79-6.515,3.804h-0.107c-8.919,0-17.408-5.463-22.046-13.491c-1.292-2.237-2.302-4.663-2.918-7.238    L62.908,367.53c0-0.001,0-0.003-0.001-0.003l-20.508-85.751C51.316,277.515,65.495,280.919,72.935,287.221z M487,486.965H25    V330.143c14.098,9.037,24.18,23.104,28.155,39.609l18.347,76.716c0.659,2.752,1.621,5.374,2.832,7.839    c6.032,12.278,18.396,20.569,31.857,20.569l0.161-0.001c0.221-0.001,0.437-0.026,0.657-0.035c0.347-0.016,0.695-0.021,1.037-0.057    c0.041-0.004,0.081-0.014,0.122-0.019c8.316-0.923,15.07-7.812,15.732-16.418c0.045-0.589,0.098-1.175,0.146-1.762    c0.094-1.151,0.188-2.302,0.295-3.467c0.028-0.308,0.059-0.613,0.087-0.921c0.881-9.254,2.168-18.903,3.795-28.564    c1.972-11.721,4.438-23.449,7.257-34.496c0.095-0.365,0.189-0.731,0.285-1.094c0.147-0.572,0.3-1.135,0.45-1.703    c4.47-16.711,9.496-30.794,14.14-40.649c0.088-0.187,0.177-0.373,0.266-0.559c0.2-0.419,0.399-0.827,0.598-1.229    c6.882-13.964,13.993-21.819,20.206-21.819c8.544,0,18.785,14.843,27.795,40.021c0.088,0.247,0.176,0.492,0.264,0.741    c0.171,0.483,0.342,0.976,0.512,1.467c0.168,0.485,0.336,0.971,0.502,1.463c0.083,0.245,0.167,0.493,0.25,0.739    c0.204,0.609,0.407,1.223,0.609,1.842c0.376,1.145,0.747,2.309,1.115,3.483c0.224,0.717,0.447,1.438,0.668,2.167    c0.174,0.571,0.346,1.151,0.519,1.729c0.408,1.368,0.812,2.749,1.209,4.149c0.043,0.154,0.087,0.31,0.13,0.464    c2.959,10.491,5.616,21.837,7.833,33.375c0.078,0.405,0.153,0.81,0.23,1.215c0.294,1.552,0.58,3.107,0.857,4.664    c0.124,0.699,0.247,1.397,0.368,2.097c0.207,1.198,0.409,2.396,0.606,3.593c0.154,0.938,0.306,1.874,0.453,2.811    c0.124,0.785,0.247,1.57,0.366,2.354c0.197,1.293,0.386,2.583,0.569,3.871c0.086,0.602,0.172,1.202,0.255,1.803    c0.198,1.438,0.388,2.87,0.569,4.299c0.069,0.542,0.137,1.083,0.203,1.623c0.18,1.465,0.353,2.923,0.514,4.373    c0.055,0.494,0.107,0.986,0.16,1.479c0.159,1.476,0.31,2.945,0.448,4.402c0.043,0.453,0.082,0.901,0.123,1.352    c0.116,1.272,0.224,2.536,0.323,3.792c0.023,0.296,0.05,0.595,0.072,0.89c0.177,2.294,0.788,4.465,1.743,6.436    c0.005,0.011,0.009,0.022,0.015,0.033c0.03,0.063,0.068,0.121,0.1,0.184c2.925,5.837,8.895,9.85,15.608,9.882l0.107,0.001    c0,0,0.001,0,0.002,0h0.012l0.121,0.001c1.515,0,3.017-0.104,4.497-0.309c13.822-1.903,25.783-12.429,29.796-26.587    c0.143-0.501,0.275-1.006,0.396-1.513l14.719-61.548c1.361-5.615,2.809-6.393,2.81-6.395c0.019,0,1.732-0.265,6.884,4.449    c4.139,3.788,9.07,9.474,14.292,15.493c16.023,18.473,35.965,41.462,58.694,41.462H487V486.965z"></path></g></g></svg>