<svg xmlns="http://www.w3.org/2000/svg" xmlns:xlink="http://www.w3.org/1999/xlink" height="512px" id="Brushing_x5F_teeth" viewBox="0 0 512 512" width="512px" xml:space="preserve"><g><path d="M490.6,323.319c-0.91-3.649-2.81-7-5.479-9.66c0.71-1.8,1.09-3.729,1.09-5.7c0-8.56-6.97-15.52-15.53-15.52   c-3.17,0-6.16,0.93-8.68,2.63c-2.11-1.899-4.59-3.34-7.28-4.239c1.851-10.961,0.58-21.771-3.38-30.561   c0.36-1.93,0.54-3.92,0.54-5.95c0-17.23-13.26-31.43-30.12-32.91c-4.189-10.09-14.109-16.87-25.3-16.87   c-13.42,0-24.61,9.7-26.94,22.45c-9.56,0.64-17.8,6.12-22.289,14.02c-6.131,0.41-11.86,2.96-16.7,7.53   c-3.95,3.72-7.011,8.49-9.11,13.929c-2.1-5.439-5.16-10.209-9.11-13.929c-7.5-7.08-17.13-9.31-27.1-6.29l-14.29,4.33   c-9.9,3.01-19.939,3-29.84,0l-14.29-4.33c-9.97-3.02-19.601-0.79-27.101,6.29c-3.949,3.72-7.01,8.49-9.109,13.929   c-2.1-5.439-5.16-10.209-9.11-13.929c-5.26-4.96-11.569-7.54-18.3-7.59c-1.34-4.7-4.06-8.98-7.83-12.28   c1.18-2.47,1.811-5.17,1.811-7.94c0-10.46-8.82-18.98-19.66-18.98c-4.561,0-8.84,1.48-12.26,4.13   c-4.95-4.83-11.791-7.66-18.971-7.66c-10.37,0-19.649,5.79-24.01,14.54c-0.96-0.13-1.93-0.19-2.91-0.19   c-12.109,0-21.96,9.5-21.96,21.18c0,1.24,0.11,2.45,0.33,3.65c-6.38,3.25-10.63,9.74-10.63,16.98c0,7.201,4.14,13.49,10.24,16.76   c-1.09,5.97-1.181,12.399-0.17,18.899c-2.37-1.149-5.03-1.789-7.83-1.789c-6.931,0-13.12,3.949-16.12,9.959   C22.92,299.719,15,308.6,15,319.289c0,3.18,0.7,6.211,1.96,8.92c-1.26,2.9-1.96,6.11-1.96,9.471v144.01c0,2.76,2.24,5,5,5h470.42   c2.76,0,5-2.24,5-5V337.68C495.42,332.289,493.63,327.31,490.6,323.319z M452.52,300.699c2,0.881,3.711,2.381,4.84,4.32   c0.891,1.529,2.511,2.47,4.28,2.49h0.04c1.75,0,3.37-0.92,4.28-2.41c1.01-1.67,2.78-2.66,4.72-2.66c3.051,0,5.53,2.47,5.53,5.52   c0,1.34-0.49,2.631-1.37,3.631c-0.58,0.67-0.98,1.479-1.14,2.319c-0.11,0.58-0.13,1.171-0.03,1.761c0.23,1.47,1.1,2.76,2.38,3.51   c3.08,1.84,4.97,4.99,5.14,8.529l0.011,0.01c0.01,0.171,0.01,0.351,0.01,0.521c0,5.8-4.72,10.521-10.53,10.521   c-3.439,0-6.68-1.69-8.649-4.53c-1.12-1.61-3.07-2.42-5-2.07c-1.931,0.351-3.48,1.8-3.95,3.7c-1.18,4.68-5.38,7.95-10.21,7.95   c-0.22,0-0.431-0.011-0.65-0.03h-0.01c-3.81-0.23-7.21-2.52-8.84-5.99c0,0-0.011,0-0.011-0.01c-0.039-0.08-0.079-0.17-0.119-0.25   c-0.73-1.64-2.271-2.76-4.051-2.949c-0.17-0.021-0.35-0.031-0.529-0.031c-1.59,0-3.09,0.761-4.04,2.061   c-1.08,1.49-2.761,2.35-4.59,2.35c-3.13,0-5.671-2.55-5.671-5.67c0-2.68,1.9-5.02,4.511-5.56c1.489-0.3,2.76-1.28,3.45-2.64   c0.21-0.41,0.35-0.84,0.43-1.28c0.22-1.021,0.1-2.091-0.34-3.06c-0.44-0.94-0.66-1.951-0.66-2.99c0-1.461,0.439-2.82,1.189-3.95   c1.28-1.95,3.49-3.229,5.99-3.229c0.87,0,1.73,0.159,2.54,0.459c1.33,0.51,2.8,0.42,4.061-0.229c1.26-0.65,2.189-1.8,2.55-3.181   c0.62-2.359,2.01-4.35,3.859-5.739c1.771-1.33,3.971-2.11,6.32-2.11C449.74,299.779,451.2,300.1,452.52,300.699z M353.9,251.589   c0.609-3.48,2.239-6.61,4.569-9.08c3.23-3.43,7.811-5.58,12.891-5.58c0.689,0,1.38,0.04,2.12,0.13c1.439,0.17,2.88-0.28,3.949-1.25   c1.07-0.97,1.67-2.36,1.641-3.8v-0.13c0.029-9.57,7.819-17.34,17.39-17.34c7.93,0,14.851,5.35,16.83,13.02   c0.59,2.25,2.64,3.8,4.97,3.74h0.29c0.101-0.01,0.2-0.01,0.3-0.01c9.86,0,18.29,6.23,21.57,14.96c0.939,2.51,1.46,5.23,1.46,8.07   c0,2.5-0.399,4.92-1.149,7.17c-3.011,9.2-11.681,15.86-21.881,15.86c-9.83,0-18.58-6.24-21.779-15.53   c-0.601-1.78-2.15-3.04-3.971-3.31c-0.189-0.041-0.39-0.051-0.59-0.061c-0.06-0.01-0.109-0.01-0.17-0.01   c-0.55,0-1.09,0.09-1.6,0.27c-1.33,0.45-2.45,1.45-3.01,2.801c-2.771,6.619-9.19,10.89-16.37,10.89c-9.78,0-17.73-7.95-17.73-17.73   C353.63,253.619,353.72,252.589,353.9,251.589z M337.38,255.819c1.601-1.51,3.73-3.03,6.39-3.96c-0.09,0.92-0.14,1.86-0.14,2.81   c0,15.29,12.44,27.73,27.73,27.73c7.97,0,15.34-3.37,20.5-9.03c6.079,8.61,16.069,13.98,26.989,13.98   c10.66,0,20.16-5.08,26.2-12.95c0.74,4.97,0.65,10.34-0.36,15.7c-6.22,1.09-11.58,4.99-14.529,10.52   c-0.41-0.02-0.82-0.039-1.23-0.039c-8.109,0-14.93,5.649-16.72,13.229c-0.3,1.271-0.46,2.59-0.46,3.95c0,0.72,0.05,1.439,0.13,2.14   c-1.68,1.021-3.14,2.36-4.319,3.91c-2.021,2.659-3.201,5.96-3.201,9.479c0,8.641,7.03,15.67,15.671,15.67   c2.68,0,5.28-0.699,7.569-1.959c0.891,0.989,1.86,1.879,2.92,2.659l-8.31,34.74c-0.05,0.21-0.11,0.431-0.18,0.64   c-0.13,0.42-0.3,0.82-0.49,1.211c-0.101,0.199-0.21,0.379-0.32,0.569c-0.149,0.271-0.319,0.53-0.51,0.78   c-0.11,0.14-0.22,0.29-0.34,0.42c-0.17,0.21-0.36,0.41-0.55,0.59c-0.101,0.1-0.2,0.2-0.301,0.28c-0.109,0.1-0.229,0.19-0.34,0.28   c-0.34,0.279-0.71,0.539-1.08,0.76c-0.01,0.01-0.01,0.01-0.02,0.01c-0.18,0.109-0.36,0.2-0.55,0.29   c-0.171,0.09-0.341,0.16-0.521,0.229c-0.21,0.08-0.42,0.16-0.63,0.211c-0.33,0.1-0.67,0.17-1.01,0.229   c-0.16,0.021-0.32,0.03-0.47,0.05c-0.16,0-0.32,0.01-0.48,0.01c-0.061,0-0.13-0.02-0.18-0.069c-0.021-0.011-0.04-0.03-0.061-0.061   c-0.02-0.01-0.029-0.03-0.029-0.05c-0.03-0.04-0.061-0.08-0.07-0.12s-0.02-0.09-0.02-0.13c-0.021-0.26-0.041-0.529-0.07-0.8   c-0.03-0.28-0.051-0.56-0.07-0.851c-0.061-0.6-0.12-1.209-0.18-1.819c-0.101-0.99-0.21-2-0.34-3.011   c-0.061-0.51-0.131-1.029-0.2-1.56c-0.07-0.56-0.14-1.12-0.22-1.68c-0.061-0.41-0.121-0.82-0.181-1.25   c-0.13-0.9-0.27-1.83-0.42-2.771c-0.11-0.709-0.229-1.42-0.35-2.13c-0.091-0.53-0.181-1.06-0.28-1.59   c-0.1-0.61-0.21-1.22-0.33-1.84c-0.18-1-0.38-1.99-0.58-2.99c-2.17-10.79-5.47-22.5-10.109-30.81c-0.15-0.271-0.301-0.53-0.45-0.79   c-0.19-0.33-0.38-0.65-0.58-0.97c-0.2-0.34-0.41-0.66-0.63-0.98c-0.2-0.3-0.391-0.59-0.601-0.88c-3.01-4.341-6.29-6.79-9.88-7.37   c-0.27-0.05-0.54-0.09-0.81-0.109c-0.13-0.011-0.271-0.021-0.41-0.031c-0.04-0.01-0.07-0.01-0.11,0c-0.07-0.01-0.14-0.01-0.21-0.01   c-0.069-0.01-0.14-0.01-0.21-0.01s-0.14,0-0.21,0.01c-0.07,0-0.14,0-0.21,0.01c-0.04-0.01-0.07-0.01-0.11,0   c-0.14,0.011-0.279,0.021-0.409,0.031c-0.271,0.02-0.54,0.06-0.811,0.109c-3.58,0.57-6.87,3.01-9.89,7.37   c-0.19,0.271-0.38,0.54-0.561,0.819c-0.229,0.34-0.45,0.681-0.67,1.041c-0.189,0.319-0.38,0.64-0.569,0.97   c-0.15,0.26-0.301,0.52-0.45,0.79c-0.24,0.439-0.48,0.89-0.72,1.359c-4.271,8.2-7.341,19.25-9.391,29.45   c-0.18,0.88-0.359,1.761-0.52,2.64c-0.15,0.75-0.29,1.511-0.41,2.261c-0.221,1.22-0.41,2.399-0.601,3.569   c-0.029,0.181-0.06,0.36-0.079,0.53c-0.141,0.88-0.271,1.74-0.391,2.61c0,0.029-0.01,0.05-0.01,0.08   c-0.05,0.31-0.09,0.619-0.13,0.92c-0.07,0.5-0.141,0.99-0.2,1.47c-0.05,0.41-0.1,0.8-0.15,1.19c-0.08,0.539-0.14,1.08-0.199,1.609   c-0.07,0.66-0.15,1.311-0.211,1.93c-0.09,0.951-0.18,1.841-0.25,2.67c-0.029,0.281-0.05,0.551-0.069,0.82   c0,0.051-0.021,0.11-0.04,0.16c-0.04,0.1-0.12,0.18-0.21,0.23c-0.05,0.02-0.101,0.029-0.15,0.029c-0.93,0-1.85-0.199-2.71-0.55   c-0.29-0.12-0.57-0.26-0.84-0.409c-0.66-0.371-1.27-0.841-1.82-1.381c-1.14-1.119-2-2.58-2.39-4.22l-14.49-60.59l-1.479-6.17   l-0.91-3.83l-5.08-21.229C326.08,278.26,329.25,263.489,337.38,255.819z M321.42,301.77l2.88,12.04h-5.76L321.42,301.77z    M206.54,255.819c3.39-3.2,9.149-6.48,17.35-4l14.29,4.33c7.98,2.42,16.04,3.21,24.08,2.36c-7.56,1.84-13.51,7.82-15.32,15.39   c-10.449,1.24-18.569,10.16-18.569,20.931c0,8.34,4.86,15.56,11.89,18.979c2.78,1.35,5.9,2.11,9.19,2.11c3.26,0,6.39-0.74,9.2-2.11   c1.89-0.91,3.63-2.091,5.159-3.521c1.061,1.301,2.25,2.48,3.54,3.521c4.33,3.55,9.84,5.61,15.69,5.61c5.95,0,11.42-2.101,15.7-5.61   c5.58-4.55,9.14-11.479,9.14-19.22c0-12.66-9.52-23.141-21.78-24.65c-3.369-7.24-10.68-12.03-18.89-12.03   c-0.271,0-0.55,0.011-0.82,0.021c2.48-0.43,4.96-1.03,7.431-1.78l14.29-4.33c8.199-2.48,13.96,0.8,17.35,4   c8.13,7.67,11.3,22.44,7.87,36.761l-5.08,21.229l-2.38,10h-0.01l-14.48,60.59c-0.06,0.229-0.12,0.46-0.2,0.69   c-0.3,0.91-0.75,1.76-1.31,2.51c-0.28,0.39-0.601,0.75-0.94,1.07c-0.18,0.17-0.359,0.33-0.54,0.479   c-0.18,0.149-0.359,0.29-0.55,0.41c-0.52,0.37-1.08,0.67-1.67,0.899c-0.83,0.32-1.7,0.5-2.59,0.5c-0.061,0-0.13-0.02-0.18-0.069   c-0.021-0.011-0.04-0.03-0.061-0.061c-0.02-0.01-0.03-0.03-0.03-0.05c-0.029-0.04-0.06-0.08-0.069-0.12s-0.021-0.09-0.021-0.13   c-0.02-0.26-0.04-0.529-0.069-0.8c-0.03-0.28-0.051-0.56-0.07-0.851c-0.061-0.6-0.12-1.209-0.18-1.819   c-0.03-0.32-0.061-0.64-0.101-0.97c-0.069-0.66-0.16-1.36-0.24-2.07c-0.079-0.7-0.17-1.41-0.27-2.12   c-0.08-0.59-0.17-1.19-0.25-1.81c-0.13-0.92-0.271-1.871-0.42-2.84c-0.101-0.58-0.19-1.17-0.29-1.771   c-0.01-0.06-0.021-0.13-0.03-0.19c-0.22-1.32-0.46-2.68-0.72-4.06c-0.18-1-0.38-1.99-0.58-2.99c-2.17-10.79-5.47-22.5-10.11-30.81   c-0.149-0.271-0.3-0.53-0.45-0.79c-0.159-0.28-0.319-0.55-0.479-0.81c-0.2-0.33-0.4-0.65-0.61-0.961   c-0.27-0.41-0.55-0.81-0.83-1.199c-0.319-0.451-0.64-0.881-0.97-1.291c-0.2-0.25-0.41-0.5-0.62-0.75   c-1.93-2.27-3.979-3.81-6.13-4.619c-0.1-0.041-0.2-0.07-0.31-0.11c-0.301-0.101-0.601-0.2-0.9-0.271   c-0.38-0.1-0.77-0.189-1.17-0.239c-0.15-0.04-0.31-0.05-0.47-0.06c-0.13-0.011-0.261-0.021-0.391-0.021   c-0.05-0.021-0.1-0.021-0.149-0.011c-0.13-0.02-0.271-0.02-0.41-0.02s-0.28,0-0.41,0.02c-0.05-0.01-0.1-0.01-0.15,0.011   c-0.13,0-0.26,0.01-0.39,0.021c-0.16,0.01-0.319,0.02-0.47,0.06c-0.4,0.05-0.79,0.14-1.17,0.239c-0.3,0.07-0.601,0.17-0.9,0.271   c-0.109,0.04-0.21,0.069-0.31,0.11c-2.15,0.81-4.2,2.35-6.13,4.619c-0.21,0.25-0.42,0.5-0.62,0.75c-0.33,0.41-0.65,0.84-0.97,1.291   c-0.28,0.39-0.561,0.789-0.83,1.199c-0.211,0.311-0.41,0.631-0.61,0.961c-0.16,0.26-0.32,0.529-0.48,0.81   c-0.149,0.26-0.3,0.52-0.449,0.79c-4.641,8.31-7.94,20.029-10.11,30.82c-0.09,0.449-0.18,0.879-0.26,1.319   c-0.07,0.36-0.141,0.72-0.221,1.08c-0.029,0.149-0.05,0.29-0.069,0.431c-0.141,0.719-0.271,1.439-0.391,2.149   c-0.12,0.649-0.229,1.31-0.34,1.96c-0.189,1.13-0.359,2.22-0.52,3.3c-0.021,0.11-0.03,0.229-0.05,0.341   c-0.11,0.739-0.211,1.469-0.311,2.199c-0.16,1.16-0.31,2.29-0.439,3.36c-0.07,0.59-0.141,1.159-0.2,1.71   c-0.04,0.359-0.08,0.72-0.11,1.07c-0.03,0.299-0.06,0.6-0.09,0.899c-0.04,0.39-0.07,0.771-0.11,1.149   c-0.04,0.461-0.08,0.9-0.109,1.32c0,0.051-0.011,0.09-0.021,0.131c-0.02,0.039-0.04,0.08-0.07,0.109c0,0.02-0.02,0.04-0.029,0.05   c-0.021,0.03-0.04,0.05-0.07,0.061c-0.02,0.02-0.05,0.04-0.08,0.05c-0.04,0.01-0.08,0.02-0.12,0.02c-0.93,0-1.85-0.199-2.71-0.55   c-0.29-0.12-0.58-0.26-0.85-0.409c-0.66-0.371-1.271-0.83-1.82-1.381c-1.14-1.119-2-2.58-2.39-4.22l-14.48-60.59h-0.01l-2.38-10   l-5.08-21.229C195.24,278.26,198.41,263.489,206.54,255.819z M267.21,267.909c4.94,0,9.25,3.33,10.49,8.11   c0.58,2.25,2.64,3.811,4.97,3.75l0.37-0.02c8.18,0,14.84,6.659,14.84,14.84c0,8.17-6.66,14.83-14.84,14.83   c-6.33,0-11.96-4.021-14.021-10.011c-0.68-1.96-2.489-3.3-4.56-3.37h-0.17c-2.01,0-3.83,1.211-4.61,3.07   c-1.729,4.13-5.75,6.811-10.229,6.811c-6.11,0-11.08-4.98-11.08-11.09c0-6.111,4.97-11.08,11.08-11.08c0.43,0,0.859,0.02,1.33,0.08   c1.42,0.159,2.84-0.281,3.909-1.23c1.07-0.95,1.681-2.311,1.681-3.74v-0.141C256.38,272.76,261.24,267.909,267.21,267.909z    M190.58,301.77l2.88,12.04h-5.76L190.58,301.77z M163.88,250.979c4.78,0.29,8.351,2.59,10.74,4.84   c8.13,7.67,11.3,22.44,7.88,36.761l-5.08,21.229l-0.91,3.83l-1.479,6.17l-14.49,60.59c-0.06,0.229-0.12,0.46-0.2,0.69   c-0.3,0.91-0.75,1.76-1.31,2.51c-0.28,0.39-0.601,0.75-0.94,1.07c-0.17,0.17-0.35,0.33-0.54,0.479c-0.18,0.149-0.36,0.29-0.55,0.41   c-0.19,0.14-0.37,0.26-0.57,0.37c0,0-0.01,0.01-0.02,0.01c-0.18,0.109-0.36,0.2-0.55,0.29c-0.37,0.18-0.75,0.33-1.15,0.44   c-0.21,0.069-0.42,0.119-0.64,0.159c-0.221,0.04-0.44,0.08-0.66,0.101c-0.221,0.02-0.44,0.029-0.66,0.029   c-0.05,0-0.09-0.01-0.13-0.029c-0.13-0.07-0.23-0.221-0.24-0.391v-0.01c-0.04-0.55-0.09-1.09-0.14-1.65   c-0.021-0.289-0.051-0.59-0.08-0.89c-0.07-0.739-0.16-1.54-0.25-2.36c-0.01-0.109-0.021-0.229-0.04-0.34   c-0.05-0.49-0.11-0.979-0.181-1.479c-0.02-0.16-0.029-0.32-0.06-0.479c-0.08-0.671-0.17-1.361-0.27-2.07   c-0.051-0.351-0.101-0.711-0.15-1.07c-0.1-0.721-0.21-1.46-0.32-2.21c-0.12-0.75-0.239-1.511-0.37-2.29   c-0.039-0.26-0.08-0.51-0.13-0.77c-0.01-0.131-0.029-0.271-0.06-0.4c-0.061-0.38-0.13-0.77-0.2-1.15c-0.07-0.4-0.14-0.81-0.22-1.22   c-0.07-0.399-0.15-0.819-0.221-1.229c-0.17-0.891-0.34-1.78-0.529-2.681c-2.05-10.21-5.12-21.25-9.391-29.45   c-0.239-0.47-0.479-0.92-0.72-1.359c-0.149-0.271-0.3-0.53-0.45-0.79c-0.149-0.28-0.31-0.55-0.479-0.81   c-0.181-0.301-0.36-0.58-0.54-0.861c-0.17-0.26-0.34-0.52-0.51-0.77c-0.15-0.22-0.301-0.439-0.46-0.65   c-0.15-0.209-0.301-0.42-0.46-0.619c-2.271-3.061-4.711-5.04-7.311-5.961c-0.15-0.069-0.29-0.119-0.439-0.159   c-0.15-0.05-0.301-0.091-0.45-0.14c-0.261-0.07-0.53-0.131-0.8-0.19c-0.19-0.04-0.381-0.07-0.57-0.09   c-0.16-0.021-0.311-0.04-0.47-0.06c-0.13-0.011-0.261-0.021-0.391-0.021c-0.01,0-0.02-0.011-0.03-0.011h-0.119   c-0.07-0.01-0.131-0.01-0.2-0.01c-0.07-0.01-0.14-0.01-0.21-0.01s-0.141,0-0.21,0.01c-0.07,0-0.141,0-0.21,0.01h-0.11   c-0.14,0.011-0.28,0.021-0.41,0.031c-0.16,0.01-0.31,0.029-0.47,0.06c-0.22,0.03-0.44,0.06-0.66,0.11   c-0.109,0.02-0.22,0.039-0.32,0.069c-0.13,0.03-0.25,0.06-0.38,0.101c-3.659,0.959-7.02,3.949-10.09,9   c-0.2,0.319-0.39,0.64-0.58,0.97c-0.149,0.26-0.3,0.52-0.45,0.79c-4.64,8.31-7.939,20.029-10.109,30.82   c-0.09,0.449-0.18,0.879-0.26,1.319c-0.07,0.36-0.141,0.72-0.221,1.08c-0.02,0.149-0.05,0.29-0.069,0.431   c-0.11,0.59-0.221,1.17-0.32,1.76c-0.101,0.58-0.2,1.149-0.3,1.72c-0.021,0.12-0.04,0.239-0.061,0.36   c-0.08,0.449-0.149,0.899-0.22,1.34c-0.09,0.55-0.18,1.109-0.26,1.649c-0.03,0.2-0.061,0.39-0.09,0.591   c-0.11,0.689-0.2,1.369-0.301,2.029c-0.01,0.051-0.01,0.09-0.02,0.141c-0.04,0.319-0.09,0.629-0.13,0.949   c-0.05,0.32-0.09,0.631-0.12,0.95c-0.03,0.21-0.06,0.42-0.08,0.63c-0.04,0.29-0.08,0.58-0.11,0.86   c-0.13,1.01-0.239,2.021-0.34,3.01c-0.029,0.31-0.06,0.62-0.09,0.931c-0.06,0.6-0.12,1.189-0.16,1.739   c-0.029,0.271-0.05,0.54-0.07,0.8c0,0.051-0.01,0.09-0.02,0.131c-0.02,0.039-0.04,0.08-0.07,0.109c0,0.02-0.02,0.04-0.029,0.05   c-0.03,0.04-0.07,0.08-0.12,0.101c-0.05,0.02-0.101,0.029-0.15,0.029c-0.189,0-0.37-0.01-0.56-0.02h-0.03   c-0.021,0-0.03,0-0.05-0.01c-0.15-0.01-0.32-0.03-0.471-0.061c-0.01,0-0.029-0.01-0.039,0c-0.181-0.04-0.36-0.08-0.53-0.119   c-0.19-0.041-0.37-0.101-0.55-0.16c-0.141-0.051-0.28-0.101-0.42-0.16c-0.101-0.04-0.2-0.08-0.301-0.131   c-0.149-0.06-0.29-0.129-0.43-0.209c-0.21-0.101-0.42-0.23-0.62-0.36c-0.149-0.101-0.31-0.2-0.45-0.32   c-0.17-0.12-0.34-0.26-0.5-0.399c-0.18-0.15-0.359-0.32-0.52-0.49c-0.15-0.141-0.28-0.28-0.4-0.43c-0.14-0.16-0.279-0.33-0.41-0.51   c-0.13-0.19-0.26-0.381-0.39-0.58c-0.49-0.791-0.86-1.67-1.09-2.601l-12.55-52.49c2.1-2.25,3.63-5.02,4.38-8.1   c0.34-1.39,0.52-2.83,0.52-4.32c0-1.979-0.319-3.89-0.909-5.68c-1.74-5.29-5.841-9.53-11.061-11.431l-2.34-9.799   c-1.55-6.48-1.75-13.061-0.75-19.031c3.9-0.029,7.67-1.17,10.85-3.209c4.98,6.01,12.61,9.66,20.82,9.66   c9.36,0,17.79-4.681,22.56-11.99c4.591,3.38,10.261,5.289,16.181,5.289C151,273.299,162.2,263.549,163.88,250.979z M57.08,254.379   c0-4.31,3.29-8.09,7.81-8.98c1.521-0.3,2.82-1.28,3.511-2.67c0.689-1.38,0.699-3.01,0.029-4.4c-0.699-1.45-1.05-2.99-1.05-4.58   c0-6.16,5.37-11.18,11.96-11.18c1.48,0,2.93,0.25,4.3,0.75c1.32,0.47,2.771,0.38,4-0.26c1.24-0.65,2.16-1.78,2.53-3.12   c1.88-6.9,8.5-11.72,16.09-11.72c5.94,0,11.46,3.02,14.43,7.87c0.9,1.47,2.49,2.38,4.221,2.39c1.74,0.01,3.34-0.85,4.26-2.31   c1.74-2.73,4.92-4.42,8.32-4.42c5.319,0,9.66,4.03,9.66,8.98c0,2.13-0.82,4.2-2.311,5.82c-1.03,1.13-1.5,2.66-1.26,4.16   c0.24,1.51,1.15,2.82,2.47,3.57c3.44,1.95,5.931,4.89,7.17,8.32c0.58,1.6,0.891,3.31,0.891,5.07c0,1.9-0.36,3.73-1.03,5.42   c-2.35,5.959-8.45,10.209-15.59,10.209c-4.391,0-8.54-1.629-11.62-4.469c-0.771-0.711-1.48-1.49-2.11-2.351   c-1.13-1.57-3.06-2.33-4.96-1.98c-1.84,0.35-3.319,1.69-3.85,3.459c-0.03,0.061-0.04,0.121-0.061,0.181   c-1.84,6.979-8.479,11.86-16.14,11.86c-6.61,0-12.6-3.69-15.24-9.4c-0.74-1.59-2.25-2.68-4-2.87c-0.18-0.021-0.359-0.03-0.54-0.03   c-1.55,0-3.02,0.721-3.979,1.971c-1.141,1.489-2.71,2.619-4.5,3.26c-1.12,0.41-2.32,0.619-3.551,0.619   c-2.56,0-4.899-0.92-6.659-2.42C58.32,259.459,57.08,257.049,57.08,254.379z M65.88,327.469c-0.63,0.16-1.29,0.24-1.96,0.24   c-2.89,0-5.52-1.49-7-3.899c-0.22-0.36-0.42-0.75-0.59-1.15c-0.8-1.909-2.71-3.13-4.78-3.069c-2.069,0.069-3.89,1.41-4.56,3.369   c-0.101,0.291-0.21,0.57-0.33,0.851c-1.79,4.1-5.851,6.78-10.36,6.78c-2.77,0-5.31-1-7.28-2.66c-2.449-2.07-4.02-5.18-4.02-8.641   c0-0.35,0.02-0.699,0.05-1.05c0.53-5.739,5.37-10.25,11.25-10.26l0.29,0.01c2.35,0.08,4.38-1.489,4.97-3.739   c0.91-3.541,4.11-6,7.761-6c4.41,0,8,3.569,8.02,7.969v0.141c0,1.43,0.61,2.79,1.68,3.74c0.841,0.75,1.9,1.189,3.011,1.26   c0.3,0.01,0.6,0.01,0.899-0.029c0.351-0.041,0.681-0.061,0.99-0.061c2.33,0,4.43,0.97,5.93,2.54c0,0-0.229,0.03,0.101,0.1   c1.359,1.46,2.189,3.421,2.189,5.58c0,1.58-0.45,3.06-1.229,4.32c-1.12,1.8-2.91,3.14-5.021,3.659 M485.42,476.689H25V337.68   c0-0.11,0-0.23,0.01-0.34c3.271,2.06,7.15,3.25,11.29,3.25c6.2,0,11.95-2.69,15.91-7.131c3.21,2.69,7.32,4.25,11.71,4.25   c1.47,0,2.91-0.18,4.28-0.51h0.01l11.85,49.53c0.671,2.83,1.99,5.399,3.761,7.55c0.319,0.391,0.66,0.77,1.01,1.13   c1.75,1.82,3.85,3.261,6.17,4.22c0.35,0.141,0.7,0.28,1.06,0.4c0.11,0.04,0.221,0.08,0.341,0.11c0.159,0.06,0.33,0.11,0.51,0.159   c0.359,0.101,0.729,0.19,1.1,0.271c0.4,0.09,0.811,0.16,1.221,0.22c0.069,0.01,0.13,0.021,0.199,0.03   c0.73,0.101,1.471,0.149,2.221,0.149c0.159,0,0.319-0.01,0.479-0.02c0.5-0.029,1-0.1,1.48-0.189c0.319-0.07,0.62-0.15,0.92-0.24   c1.7-0.51,3.22-1.46,4.439-2.71c0.22-0.23,0.431-0.47,0.63-0.71c0.44-0.54,0.82-1.12,1.15-1.74c0.27-0.52,0.51-1.061,0.689-1.63   c0.101-0.31,0.181-0.63,0.261-0.95c0.069-0.32,0.13-0.65,0.17-0.98c0.02-0.159,0.04-0.33,0.05-0.5   c0.94-12.289,3.77-26.719,7.39-37.67c3.271-9.879,6.28-14.369,8.141-16.22c0.21-0.21,0.399-0.39,0.58-0.53   c0.09-0.069,0.18-0.14,0.26-0.199c0.08-0.061,0.16-0.11,0.229-0.15c0.021-0.01,0.03-0.02,0.051-0.029   c0.05-0.031,0.1-0.061,0.14-0.08c0.04-0.021,0.08-0.041,0.11-0.051c0.01,0,0.029-0.01,0.05-0.01c0.05-0.02,0.09-0.04,0.13-0.05   c0.02-0.011,0.03-0.011,0.04-0.011c0.05-0.01,0.08-0.01,0.12-0.01s0.07,0,0.12,0.01c0.01,0,0.029,0,0.05,0.011   c0.03,0,0.06,0.01,0.1,0.03c0.01,0,0.021,0.01,0.04,0.02c0.16,0.07,0.351,0.18,0.58,0.34c0.07,0.051,0.15,0.11,0.24,0.18   c0.18,0.141,0.37,0.32,0.58,0.53c1.86,1.851,4.87,6.341,8.14,16.22c3.62,10.94,6.45,25.381,7.4,37.67   c0.33,4.381,3.38,8.011,7.43,9.221c0.311,0.1,0.63,0.18,0.95,0.24c0.479,0.1,0.979,0.16,1.479,0.189   c0.17,0.01,0.341,0.02,0.511,0.02c0.739,0,1.479-0.049,2.22-0.149c0.49-0.069,0.98-0.16,1.46-0.271   c0.49-0.109,0.97-0.239,1.44-0.39c0.02,0,0.05-0.01,0.069-0.02c0.55-0.181,1.09-0.38,1.62-0.61c0.5-0.22,0.99-0.46,1.47-0.73   c0.25-0.129,0.49-0.27,0.73-0.42c0.24-0.149,0.479-0.31,0.72-0.47c0.48-0.319,0.94-0.659,1.391-1.03c0.199-0.16,0.39-0.33,0.58-0.5   c0.35-0.31,0.689-0.64,1.02-0.97c0.03-0.03,0.06-0.06,0.08-0.09c0.27-0.28,0.53-0.569,0.78-0.87c0.189-0.24,0.39-0.48,0.569-0.73   c0.01,0,0.01-0.01,0.01-0.01c0.19-0.25,0.381-0.51,0.551-0.77c0.05-0.04,0.069-0.08,0.08-0.12c0.189-0.271,0.359-0.55,0.529-0.83   c0.17-0.271,0.32-0.55,0.48-0.83c0.01-0.03,0.03-0.05,0.04-0.08c0.16-0.31,0.31-0.62,0.46-0.939c0.29-0.63,0.54-1.28,0.76-1.94   c0.16-0.48,0.3-0.97,0.42-1.47l15.061-62.92h10.52l15.061,62.92c1.229,5.16,4.569,9.43,8.909,11.91c0.65,0.37,1.32,0.7,2.021,0.989   c0.229,0.09,0.46,0.181,0.689,0.271c0.48,0.17,0.95,0.319,1.44,0.46c0.24,0.061,0.479,0.12,0.729,0.18   c0.49,0.11,0.99,0.2,1.49,0.271c0.75,0.11,1.521,0.159,2.29,0.159c0.17,0,0.34-0.01,0.5-0.02c0.5-0.029,0.99-0.09,1.47-0.189   c0.32-0.07,0.631-0.15,0.931-0.24c2.01-0.61,3.77-1.82,5.069-3.43c0.211-0.25,0.391-0.5,0.57-0.761   c0.44-0.659,0.82-1.38,1.101-2.14c0.06-0.15,0.109-0.311,0.159-0.46c0.101-0.31,0.19-0.63,0.261-0.95   c0.04-0.16,0.069-0.32,0.1-0.48c0-0.01,0-0.01,0-0.01c0.06-0.33,0.101-0.66,0.13-0.99c0.24-3.069,0.59-6.279,1.04-9.529   c0.12-0.811,0.24-1.63,0.36-2.45c0.25-1.64,0.529-3.28,0.83-4.91c1.34-7.36,3.12-14.62,5.16-20.78c0.3-0.899,0.59-1.76,0.89-2.569   c0.09-0.25,0.18-0.5,0.27-0.75c0.271-0.74,0.54-1.44,0.811-2.101c0.36-0.89,0.7-1.72,1.05-2.479c0.41-0.91,0.811-1.75,1.2-2.511   c0.1-0.189,0.189-0.369,0.29-0.549c0.29-0.541,0.57-1.03,0.84-1.49c0.24-0.4,0.48-0.78,0.7-1.12c-0.011-0.011-0.011-0.011,0-0.011   c0.29-0.439,0.569-0.84,0.84-1.189c0.12-0.16,0.24-0.311,0.35-0.45c0.08-0.1,0.16-0.19,0.23-0.27c0.14-0.171,0.28-0.32,0.41-0.46   c0.08-0.09,0.17-0.18,0.26-0.271c0.21-0.21,0.399-0.39,0.58-0.53c0.069-0.049,0.13-0.109,0.189-0.149   c0.13-0.101,0.24-0.17,0.351-0.229c0.12-0.07,0.22-0.121,0.31-0.15c0.04-0.02,0.07-0.03,0.101-0.04   c0.069-0.011,0.13-0.021,0.18-0.021s0.11,0.01,0.18,0.021c0.03,0.01,0.061,0.021,0.101,0.04c0.09,0.029,0.189,0.08,0.31,0.15   c0.11,0.06,0.22,0.129,0.35,0.229c0.061,0.04,0.12,0.101,0.19,0.149c0.18,0.141,0.37,0.32,0.58,0.53   c0.09,0.091,0.18,0.181,0.26,0.271c0.13,0.14,0.271,0.289,0.41,0.46c0.07,0.079,0.15,0.17,0.23,0.27   c0.109,0.14,0.229,0.29,0.35,0.45c0.271,0.35,0.55,0.75,0.84,1.189c0.01,0,0.01,0,0,0.011c0.22,0.34,0.46,0.72,0.7,1.12   c0.27,0.46,0.55,0.949,0.84,1.49c0.1,0.18,0.19,0.359,0.29,0.549c0.39,0.761,0.79,1.601,1.2,2.511c0.35,0.76,0.689,1.59,1.05,2.479   c0.271,0.66,0.54,1.36,0.81,2.101c0.091,0.25,0.181,0.5,0.271,0.75c0.3,0.81,0.59,1.67,0.89,2.569   c3.62,10.94,6.45,25.381,7.391,37.67c0.01,0.19,0.04,0.381,0.06,0.57c0.04,0.271,0.08,0.54,0.14,0.811   c0.23,1.06,0.62,2.07,1.141,2.979c0.13,0.23,0.27,0.45,0.41,0.66c0.81,1.2,1.85,2.22,3.069,2.99c0.4,0.27,0.811,0.5,1.25,0.7   c0.44,0.199,0.891,0.369,1.37,0.51c0.301,0.09,0.62,0.17,0.94,0.24c0.479,0.1,0.979,0.16,1.479,0.189   c0.17,0.01,0.34,0.02,0.511,0.02c0.739,0,1.479-0.049,2.21-0.149c0.5-0.069,0.989-0.16,1.47-0.271   c0.479-0.109,0.96-0.239,1.44-0.39c0.029,0,0.05-0.01,0.069-0.02c0.561-0.181,1.11-0.38,1.64-0.62c0.49-0.221,0.98-0.46,1.45-0.721   c0.25-0.129,0.49-0.27,0.74-0.42c0.24-0.149,0.48-0.31,0.72-0.47c0.011,0,0.021,0,0.021-0.01c0.47-0.32,0.93-0.66,1.37-1.021   c0.199-0.16,0.39-0.33,0.58-0.5c0.35-0.31,0.689-0.64,1.02-0.97c0.03-0.03,0.061-0.06,0.08-0.09c0.27-0.28,0.53-0.569,0.78-0.87   c1.09-1.29,2.01-2.74,2.72-4.31c0.29-0.63,0.54-1.28,0.76-1.94c0.16-0.48,0.301-0.97,0.42-1.47l15.061-62.92h10.52l15.061,62.92   c0.67,2.83,1.99,5.399,3.76,7.55c0.32,0.391,0.66,0.77,1.01,1.13c2.09,2.17,4.7,3.82,7.561,4.73c0.17,0.06,0.34,0.11,0.51,0.159   c0.56,0.15,1.12,0.28,1.68,0.391c0.18,0.029,0.36,0.061,0.53,0.08c0.14,0.02,0.27,0.04,0.399,0.06c0.351,0.04,0.7,0.08,1.061,0.101   c0.35,0.029,0.71,0.039,1.07,0.039c0.16,0,0.33-0.01,0.489-0.02c0.5-0.029,0.99-0.09,1.471-0.189c0.319-0.07,0.63-0.15,0.93-0.24   c1.69-0.51,3.21-1.45,4.43-2.71c0.33-0.351,0.641-0.71,0.931-1.091c0.29-0.379,0.54-0.789,0.77-1.209   c0.08-0.141,0.15-0.28,0.22-0.431c0.141-0.29,0.271-0.59,0.391-0.89c0.17-0.46,0.31-0.93,0.42-1.41c0.05-0.24,0.1-0.49,0.14-0.73   c0.04-0.25,0.07-0.5,0.09-0.75c0.12-1.539,0.261-3.109,0.431-4.699c0.18-1.59,0.38-3.21,0.609-4.83c0.221-1.63,0.48-3.27,0.75-4.91   c0.69-4.09,1.53-8.189,2.471-12.12c0.18-0.78,0.38-1.56,0.579-2.33c0.19-0.78,0.391-1.54,0.601-2.29c0.2-0.76,0.41-1.5,0.63-2.229   c0.11-0.37,0.22-0.74,0.32-1.101c0.109-0.369,0.22-0.729,0.34-1.09c0.109-0.359,0.229-0.72,0.34-1.08c0.05-0.17,0.11-0.33,0.16-0.5   s0.109-0.33,0.16-0.49c0.149-0.449,0.29-0.89,0.439-1.319c0.15-0.42,0.301-0.841,0.44-1.25c0.29-0.81,0.59-1.58,0.87-2.31   c0.109-0.271,0.21-0.541,0.319-0.801c0.21-0.52,0.421-1.02,0.63-1.5c0.11-0.25,0.211-0.49,0.311-0.72c0.2-0.45,0.4-0.88,0.61-1.3   c0.199-0.42,0.399-0.82,0.59-1.2c0.13-0.25,0.26-0.5,0.39-0.74c0.33-0.61,0.65-1.17,0.97-1.67c0.98-1.62,1.851-2.7,2.57-3.41   c0.21-0.21,0.4-0.39,0.58-0.53c0.07-0.049,0.13-0.109,0.19-0.149c0.13-0.101,0.239-0.17,0.35-0.229c0.12-0.07,0.22-0.121,0.31-0.15   c0.04-0.02,0.07-0.03,0.101-0.04c0.07-0.011,0.13-0.021,0.18-0.021s0.11,0.01,0.18,0.021c0.03,0.01,0.061,0.021,0.101,0.04   c0.09,0.029,0.189,0.08,0.31,0.15c0.11,0.06,0.221,0.129,0.351,0.229c0.06,0.04,0.12,0.101,0.189,0.149   c0.181,0.141,0.37,0.32,0.58,0.53c1.86,1.851,4.87,6.341,8.14,16.22c3.621,10.94,6.45,25.381,7.391,37.67   c0.01,0.19,0.04,0.381,0.06,0.57c0.04,0.271,0.08,0.54,0.141,0.811c0.81,3.75,3.62,6.76,7.229,7.84c0.311,0.1,0.63,0.18,0.95,0.24   c0.479,0.1,0.979,0.16,1.479,0.189c0.17,0.01,0.341,0.02,0.511,0.02c0.739,0,1.489-0.049,2.22-0.149c0.52-0.08,1.03-0.17,1.53-0.28   c0.439-0.1,0.87-0.22,1.3-0.359c0.05-0.01,0.1-0.021,0.14-0.04c0.511-0.16,1.011-0.351,1.5-0.561c0.061-0.03,0.12-0.05,0.181-0.079   c0.22-0.101,0.439-0.201,0.66-0.311c0.5-0.25,1-0.52,1.479-0.811c0.24-0.149,0.479-0.31,0.71-0.47c0.189-0.13,0.38-0.26,0.57-0.399   c0.02-0.021,0.05-0.03,0.07-0.051c0.199-0.149,0.399-0.3,0.59-0.459c0.05-0.041,0.109-0.08,0.16-0.121   c0.399-0.319,0.779-0.66,1.14-1.01c0.37-0.34,0.729-0.72,1.06-1.109c0.17-0.19,0.33-0.381,0.49-0.58   c0.48-0.59,0.93-1.211,1.33-1.86c0.17-0.271,0.34-0.54,0.49-0.819c0.229-0.41,0.439-0.83,0.649-1.261v-0.01   c0.21-0.431,0.39-0.86,0.55-1.31c0.09-0.24,0.17-0.48,0.25-0.721c0.16-0.48,0.301-0.97,0.42-1.47l7.931-33.14   c0.979,0.14,1.989,0.22,3,0.22c6.71,0,12.8-3.24,16.569-8.4c3.301,2.16,7.2,3.351,11.24,3.351c5.78,0,11.01-2.4,14.74-6.25V476.689   z"></path><g><path d="M123.704,176.657c-20.802,0-37.725-16.923-37.725-37.725s16.923-37.724,37.725-37.724    c20.801,0,37.724,16.923,37.724,37.724S144.505,176.657,123.704,176.657z M123.704,111.208c-15.287,0-27.725,12.437-27.725,27.724    c0,15.288,12.438,27.725,27.725,27.725s27.724-12.437,27.724-27.725C151.428,123.645,138.991,111.208,123.704,111.208z"></path><path d="M137.543,153.492c-0.768,0-1.54-0.251-2.186-0.768c-1.509-1.208-1.753-3.411-0.544-4.92    c2.038-2.545,3.115-5.613,3.115-8.872c0-0.938-0.093-1.876-0.275-2.789c-0.378-1.896,0.852-3.739,2.747-4.118    c1.892-0.382,3.738,0.85,4.118,2.746c0.272,1.364,0.41,2.764,0.41,4.161c0,4.797-1.652,9.502-4.652,13.248    C139.586,153.043,138.568,153.492,137.543,153.492z"></path><path d="M133.047,127.378c-0.633,0-1.272-0.171-1.848-0.53c-0.909-0.566-1.88-1.029-2.887-1.374    c-1.828-0.628-2.802-2.619-2.174-4.447c0.628-1.828,2.614-2.8,4.447-2.174c1.506,0.517,2.957,1.208,4.314,2.054    c1.641,1.022,2.143,3.181,1.12,4.821C135.357,126.793,134.215,127.378,133.047,127.378z"></path></g><g><path d="M255.209,100.759c-20.802,0-37.725-16.923-37.725-37.725s16.923-37.724,37.725-37.724s37.725,16.923,37.725,37.724    S276.011,100.759,255.209,100.759z M255.209,35.311c-15.287,0-27.725,12.437-27.725,27.724c0,15.288,12.438,27.725,27.725,27.725    s27.725-12.437,27.725-27.725C282.934,47.748,270.496,35.311,255.209,35.311z"></path><path d="M269.049,77.594c-0.768,0-1.54-0.251-2.186-0.768c-1.509-1.208-1.753-3.411-0.545-4.92    c2.038-2.545,3.115-5.613,3.115-8.872c0-0.941-0.092-1.879-0.274-2.789c-0.378-1.896,0.852-3.739,2.747-4.118    c1.895-0.379,3.739,0.85,4.118,2.746c0.271,1.36,0.409,2.76,0.409,4.161c0,4.796-1.651,9.501-4.65,13.247    C271.092,77.145,270.075,77.594,269.049,77.594z"></path><path d="M264.552,51.48c-0.633,0-1.272-0.171-1.848-0.53c-0.909-0.566-1.88-1.029-2.887-1.374    c-1.828-0.628-2.802-2.619-2.174-4.447c0.628-1.828,2.616-2.801,4.447-2.174c1.506,0.517,2.957,1.208,4.314,2.054    c1.641,1.022,2.143,3.181,1.12,4.821C266.862,50.896,265.72,51.48,264.552,51.48z"></path></g><path d="M492.019,130.437l-297.211-1.095c-0.029,0-0.059,0-0.088,0c-6.142,0-11.921,2.381-16.282,6.71   c-4.382,4.35-6.809,10.146-6.831,16.321c-0.022,6.175,2.36,11.989,6.71,16.371c4.351,4.382,10.146,6.808,16.321,6.831l0.82,0.003   l-0.205,55.577c-0.005,1.326,0.518,2.6,1.451,3.541c0.935,0.941,2.204,1.473,3.53,1.478l108.698,0.4c0.007,0,0.013,0,0.019,0   c1.319,0,2.586-0.521,3.522-1.452c0.941-0.934,1.473-2.204,1.478-3.53l0.204-55.577l177.826,0.655c0.006,0,0.013,0,0.019,0   c1.322,0,2.592-0.524,3.529-1.458C496.471,174.274,497,173,497,171.67v-36.233C497,132.683,494.772,130.447,492.019,130.437z    M303.97,226.555l-8.116-0.03l0.059-15.986c0.01-2.761-2.22-5.008-4.981-5.019c-0.007,0-0.013,0-0.019,0   c-2.753,0-4.99,2.227-5,4.981l-0.059,15.986l-8.117-0.03l0.094-25.288c0.01-2.762-2.22-5.008-4.981-5.019c-0.007,0-0.013,0-0.019,0   c-2.753,0-4.99,2.227-5,4.981l-0.094,25.289l-8.115-0.03l0.068-18.704c0.01-2.762-2.22-5.008-4.981-5.019c-0.007,0-0.013,0-0.019,0   c-2.753,0-4.99,2.227-5,4.981l-0.068,18.704l-8.117-0.03l0.149-40.443c0.01-2.762-2.22-5.008-4.981-5.019c-0.007,0-0.013,0-0.019,0   c-2.753,0-4.99,2.227-5,4.981l-0.149,40.443l-8.116-0.03l0.094-25.289c0.01-2.761-2.22-5.008-4.981-5.019c-0.007,0-0.013,0-0.019,0   c-2.753,0-4.99,2.227-5,4.981l-0.094,25.289l-8.116-0.03l0.187-50.577l39.573,0.146l59.124,0.218L303.97,226.555z M487,166.652   l-177.807-0.655h-0.001l-77.665-0.286l-36.853-0.136c-3.504-0.013-6.793-1.389-9.261-3.876c-2.469-2.486-3.82-5.785-3.808-9.289   s1.39-6.792,3.876-9.261c2.475-2.456,5.754-3.807,9.238-3.807c0.017,0,0.033,0,0.05,0L487,140.418V166.652z"></path></g></svg>