<svg xmlns="http://www.w3.org/2000/svg" xmlns:xlink="http://www.w3.org/1999/xlink" height="512px" id="Dental_x5F_fillings" viewBox="0 0 512 512" width="512px" xml:space="preserve"><g><path d="M492,308.838h-81.01c-8.986,0-17.386,2.853-24.243,7.799l21.047-88.006c2.921-12.209,4.136-24.545,3.614-36.662   c-0.119-2.76-2.455-4.896-5.211-4.781c-2.759,0.119-4.898,2.451-4.78,5.211c0.482,11.191-0.645,22.6-3.349,33.906l-51.874,216.908   c-0.354,1.478-0.83,2.91-1.417,4.284c-4.104,9.624-13.566,16.446-23.545,16.446v4.978l-0.106-4.978   c-1.239-0.007-2.418-0.324-3.463-0.882c-2.299-1.228-3.95-3.618-4.164-6.419c-2.177-28.408-8.465-61.496-16.614-87.806   c-0.543-1.754-1.095-3.478-1.654-5.169C283.704,328.82,270.505,311.15,256,311.15c-14.505,0-27.705,17.67-39.231,52.52   c-8.947,27.047-15.946,62.674-18.268,92.977c-0.312,4.072-3.661,7.277-7.623,7.297c-0.027,0-0.084,0-0.111,0   c-11.404,0-22.134-8.912-24.961-20.73l-51.874-216.908c-4.406-18.426-4.606-37.174-0.58-54.219   c3.827-16.197,11.14-29.744,21.148-39.176c9.313-8.775,25.136-17.811,47.626-11l10.758,3.261v42.171   c0,15.965,12.988,28.953,28.953,28.953h68.324c15.965,0,28.953-12.988,28.953-28.953v-42.171l10.758-3.261   c31.869-9.648,53.816,11.631,63.732,34.762c1.088,2.539,4.028,3.715,6.565,2.627c2.538-1.088,3.714-4.027,2.626-6.566   c-14.602-34.064-44.364-49.918-75.824-40.393l-33.752,10.23c-24.698,7.492-49.744,7.494-74.443,0l-33.752-10.23   c-21.122-6.396-41.5-1.676-57.384,13.293c-23.83,22.457-33.029,62.885-23.436,102.998l21.047,88.006   c-6.857-4.946-15.257-7.799-24.243-7.799H20c-2.761,0-5,2.238-5,5v177.195c0,2.762,2.239,5,5,5h472c2.762,0,5-2.238,5-5V313.838   C497,311.076,494.762,308.838,492,308.838z M220.872,133.56c11.667,3.093,23.398,4.639,35.128,4.639   c13.406,0,26.811-2.02,40.123-6.058l12.992-3.938v39.139c0,10.451-8.502,18.953-18.953,18.953h-68.324   c-10.451,0-18.953-8.502-18.953-18.953v-39.139l12.991,3.936C217.54,132.645,219.206,133.117,220.872,133.56z M487,486.033H25   V318.838h76.01c14.583,0,27.138,9.906,30.53,24.09l24.54,102.611c0.246,1.029,0.534,2.04,0.861,3.031   c0.49,1.488,1.069,2.932,1.73,4.325c0.22,0.465,0.449,0.924,0.687,1.377c6.184,11.786,18.276,19.671,31.409,19.671h0l0,0h0.161   c9.131-0.047,16.837-7.309,17.544-16.533c0.849-11.082,2.338-22.89,4.328-34.71c3.315-19.699,8.02-39.432,13.463-55.89   c7.684-23.229,16.463-38.854,24.4-43.896c1.832-1.163,3.619-1.764,5.337-1.764c9.164,0,20.28,17.068,29.736,45.658   c1.634,4.938,3.2,10.17,4.683,15.606c6.425,23.562,11.269,50.98,13.108,74.991c0.708,9.229,8.416,16.492,17.462,16.535l0.244,0.002   c16.163,0,30.751-11.945,34.687-28.404l24.54-102.611c3.392-14.184,15.946-24.09,30.53-24.09H487V486.033z"></path><path d="M221.838,95.801h68.324c15.965,0,28.953-12.988,28.953-28.953V20.967c0-1.582-0.75-3.072-2.021-4.016   c-1.27-0.941-2.914-1.229-4.429-0.77l-19.444,5.895c-24.698,7.492-49.744,7.492-74.443-0.002l-19.443-5.893   c-1.516-0.459-3.157-0.172-4.429,0.77c-1.271,0.943-2.021,2.434-2.021,4.016v45.881C192.885,82.813,205.873,95.801,221.838,95.801z    M202.885,27.707l12.991,3.938c26.625,8.078,53.623,8.078,80.247,0l12.992-3.938v39.141c0,10.451-8.502,18.953-18.953,18.953   h-68.324c-10.451,0-18.953-8.502-18.953-18.953V27.707z"></path></g></svg>