<svg xmlns="http://www.w3.org/2000/svg" xmlns:xlink="http://www.w3.org/1999/xlink" height="512px" id="Needle_x5F_injection" viewBox="0 0 512 512" width="512px" xml:space="preserve"><path d="M480.948,30.765c-9.278-9.279-21.616-14.39-34.74-14.39c-13.123,0-25.461,5.11-34.739,14.39  c-9.28,9.279-14.391,21.617-14.391,34.74c0,8.438,2.123,16.544,6.098,23.728l-24.29,24.29c-0.938,0.938-1.465,2.209-1.465,3.536  s0.527,2.598,1.465,3.536l2.582,2.582l-50.587,50.587l-11.708-11.708c-1.951-1.952-5.119-1.952-7.07,0l-9.938,9.938l-6.635-6.635  c-1.951-1.952-5.119-1.952-7.07,0l-15.671,15.67c1.977-14.681-2.656-30.088-13.915-41.347c-19.155-19.155-50.324-19.155-69.48,0  c-1.953,1.953-1.953,5.119,0,7.071c1.953,1.952,5.118,1.952,7.071,0c7.391-7.391,17.218-11.461,27.67-11.461  c10.451,0,20.278,4.07,27.669,11.461c14.77,14.77,15.239,38.507,1.412,53.849l-1.477,1.477c-0.017,0.017-0.028,0.038-0.045,0.055  c-0.017,0.017-0.038,0.027-0.055,0.044l-9.149,9.149c-3.331,3.332-5.166,7.761-5.166,12.473c0,2.788,0.657,5.47,1.872,7.891  L105.401,365.483c-5.719,5.719-6.778,14.357-3.182,21.161L89.98,398.883c-1.525,1.525-2.366,3.554-2.366,5.711  s0.839,4.186,2.365,5.711l2.466,2.465l-74.32,74.32c-1.952,1.952-1.952,5.118,0,7.07c0.977,0.977,2.256,1.465,3.536,1.465  c1.279,0,2.559-0.488,3.535-1.465l74.32-74.319l1.893,1.893c1.525,1.526,3.554,2.366,5.711,2.366s4.185-0.84,5.71-2.365  l12.24-12.239c2.626,1.388,5.525,2.084,8.425,2.084c4.612,0,9.225-1.755,12.735-5.267l133.794-133.795  c2.422,1.215,5.104,1.873,7.891,1.873c4.711,0,9.141-1.836,12.472-5.167l9.149-9.149c0.018-0.017,0.029-0.037,0.046-0.055  c0.017-0.017,0.037-0.027,0.054-0.045l3.323-3.322c6.867-5.417,15.29-8.366,24.171-8.366c10.452,0,20.278,4.07,27.67,11.461  c7.391,7.391,11.461,17.217,11.461,27.668c0,10.453-4.07,20.279-11.461,27.67c-1.953,1.953-1.953,5.119,0,7.071  c0.976,0.976,2.256,1.464,3.535,1.464s2.56-0.488,3.535-1.464c9.28-9.279,14.391-21.617,14.391-34.741  c0-13.123-5.11-25.461-14.391-34.74c-9.279-9.279-21.617-14.39-34.74-14.39c-2.093,0-4.162,0.145-6.206,0.4l15.433-15.433  c1.953-1.953,1.953-5.119,0-7.071l-6.634-6.634l9.937-9.937c1.953-1.953,1.953-5.119,0-7.071l-11.707-11.708l50.587-50.587  l2.582,2.582c0.977,0.976,2.256,1.464,3.535,1.464s2.56-0.488,3.535-1.464l24.29-24.29c7.184,3.974,15.29,6.097,23.727,6.097  c13.124,0,25.462-5.11,34.74-14.39c9.28-9.279,14.391-21.617,14.391-34.741C495.339,52.382,490.229,40.044,480.948,30.765z   M107.12,413.303l-8.708-8.709l10.314-10.314l8.708,8.709L107.12,413.303z M139.159,399.241c-3.028,3.03-7.896,3.112-11.036,0.265  c-0.023-0.023-0.038-0.051-0.061-0.074l-15.779-15.779c-0.023-0.023-0.051-0.039-0.075-0.062c-2.847-3.141-2.764-8.007,0.265-11.036  l132.898-132.898l26.686,26.687L139.159,399.241z M293.315,262.152c-1.442,1.443-3.36,2.238-5.4,2.238s-3.959-0.795-5.402-2.238  L249.562,229.2c-1.442-1.443-2.237-3.361-2.237-5.401c0-2.04,0.795-3.958,2.237-5.401l5.613-5.613l43.755,43.755L293.315,262.152z   M306.311,249.158c-0.077,0.063-0.158,0.121-0.235,0.184l-43.729-43.729l29.649-29.649l6.501,6.501  c0.044,0.047,0.075,0.102,0.12,0.147l30.486,30.486c0.046,0.045,0.101,0.077,0.147,0.12l6.5,6.5L306.311,249.158z M332.651,202.478  l-23.415-23.415l6.401-6.401l10.46,10.459c0.241,0.537,0.568,1.046,1.01,1.487s0.949,0.768,1.486,1.01l10.459,10.459  L332.651,202.478z M394.656,122.222l-5.164-5.164l19.499-19.499c0.794,0.918,1.611,1.819,2.478,2.686  c0.867,0.867,1.768,1.684,2.686,2.477L394.656,122.222z M473.878,93.174c-7.391,7.391-17.217,11.461-27.67,11.461  c-7.822,0-15.294-2.281-21.656-6.526l-10.948-10.948c-4.244-6.363-6.525-13.834-6.525-21.656c0-10.452,4.07-20.278,11.461-27.669  s17.217-11.461,27.669-11.461c10.453,0,20.279,4.07,27.67,11.461s11.461,17.217,11.461,27.669  C485.339,75.957,481.269,85.784,473.878,93.174z"></path></svg>