<svg xmlns="http://www.w3.org/2000/svg" xmlns:xlink="http://www.w3.org/1999/xlink" height="512px" id="Protection_x5F_tooth" viewBox="0 0 512 512" width="512px" xml:space="preserve"><g><path d="M422.707,99.241L286.532,23.668c-19.119-10.609-41.946-10.609-61.063,0L89.293,99.241   c-19.978,11.088-32.388,32.168-32.388,55.015v135.1c0,26.548,10.542,54.005,31.334,81.609   c16.38,21.748,39.159,43.675,67.705,65.173c48.384,36.438,97.454,59.456,97.944,59.684c0.669,0.312,1.39,0.468,2.112,0.468   c0.721,0,1.442-0.156,2.111-0.468c0.646-0.301,65.285-30.653,119.684-77.086c2.101-1.793,2.35-4.948,0.557-7.049   c-1.793-2.102-4.949-2.349-7.049-0.557c-47.844,40.837-103.829,69.03-115.304,74.613c-9.821-4.776-52.267-26.112-94.171-57.693   c-43.304-32.634-94.923-83.188-94.923-138.694v-135.1c0-19.216,10.438-36.945,27.24-46.271l136.176-75.573   c16.078-8.925,35.277-8.925,51.358,0l136.175,75.573c16.803,9.325,27.24,27.055,27.24,46.271v135.1   c0,29.79-14.707,61.042-43.714,92.886c-1.859,2.042-1.712,5.204,0.329,7.063c2.042,1.858,5.203,1.713,7.063-0.329   c30.736-33.744,46.321-67.261,46.321-99.62v-135.1C455.095,131.409,442.685,110.329,422.707,99.241z"></path><path d="M167.871,90.66l-63.716,35.361c-10.253,5.688-16.622,16.508-16.622,28.234v135.1c0,46.81,46.793,92.03,86.048,121.722   c31.544,23.86,63.726,41.801,80.101,50.372c0.727,0.38,1.522,0.57,2.319,0.57c0.796,0,1.593-0.19,2.318-0.57   c16.374-8.57,48.554-26.511,80.102-50.372c39.255-29.691,86.048-74.912,86.048-121.722v-135.1c0-11.727-6.369-22.546-16.622-28.234   L271.67,50.446c-4.78-2.653-10.199-4.056-15.67-4.056s-10.89,1.402-15.67,4.056l-35.658,19.79c-2.414,1.34-3.285,4.384-1.945,6.799   c1.339,2.414,4.384,3.286,6.798,1.945l35.658-19.79c3.3-1.832,7.04-2.8,10.817-2.8s7.518,0.968,10.816,2.8l136.177,75.575   c7.078,3.927,11.475,11.396,11.475,19.49v135.1c0,23.567-14.24,62.433-82.081,113.747C302.841,425.45,272.69,442.528,256,451.369   c-16.692-8.842-46.844-25.921-76.388-48.267c-67.84-51.315-82.08-90.18-82.08-113.747v-135.1c0-8.095,4.396-15.563,11.475-19.49   l63.717-35.361c2.414-1.34,3.285-4.384,1.945-6.799C173.329,90.191,170.285,89.319,167.871,90.66z"></path><path d="M130.51,263.023c-2.36,0.45-4.06,2.51-4.06,4.91s1.7,4.46,4.06,4.91c31.46,6.04,34.9,9.48,40.94,40.939   c0.45,2.36,2.51,4.061,4.91,4.061c1.28,0,2.46-0.48,3.36-1.3l8.84,36.96c2.77,11.6,13.07,20.01,24.5,20.01c0,0,0.1,0,0.11,0   c6.89-0.03,12.71-5.51,13.24-12.46c1.49-19.33,5.94-42.021,11.64-59.24c7.05-21.319,14.07-28.88,17.95-28.88   c3.88,0,10.899,7.561,17.949,28.88c5.7,17.21,10.15,39.91,11.631,59.24c0.54,6.95,6.359,12.43,13.25,12.46c0.01,0,0.109,0,0.109,0   c11.431,0,21.73-8.41,24.5-20.01l29.55-123.57c1.96-0.39,3.53-1.93,3.921-3.95c6.039-31.47,9.479-34.909,40.939-40.95   c2.36-0.449,4.061-2.51,4.061-4.91c0-2.399-1.7-4.459-4.061-4.909c-31.46-6.04-34.9-9.48-40.939-40.94   c-0.45-2.359-2.511-4.06-4.91-4.06c-2.4,0-4.46,1.7-4.91,4.06c-0.74,3.87-1.45,7.311-2.16,10.381c-1.03-1.19-2.12-2.32-3.26-3.391   c-7.74-7.3-17.03-11.05-26.96-11.05c-4.07,0-8.261,0.63-12.48,1.909l-22.22,6.73c-15.93,4.84-32.09,4.84-48.02,0l-22.22-6.73   c-14.51-4.399-28.52-1.149-39.44,9.141c-16.13,15.2-22.38,42.46-15.92,69.45l9.02,37.72   C158.109,256.733,149.32,259.414,130.51,263.023z M376.14,180.123c-7,2.421-12.11,5.391-16.04,9.621   c-3.45,3.709-5.99,8.399-8.1,14.52c-0.74-2.15-1.54-4.12-2.41-5.939c-4.42-9.261-10.75-14.41-21.73-18.201   c8.61-2.969,14.36-6.779,18.58-12.75c2.21-3.14,4-6.879,5.561-11.39c1.31,3.79,2.779,7.03,4.529,9.83   C360.83,172.693,366.8,176.904,376.14,180.123z M164.14,208.384c-5.55-23.2-0.31-47.25,13.05-59.84   c5.8-5.47,15.66-11.101,29.68-6.851l22.22,6.73c17.86,5.42,35.96,5.42,53.82,0l22.22-6.73c14.01-4.25,23.88,1.381,29.68,6.851   c2.42,2.28,4.58,4.95,6.46,7.909c-5.09,11.681-13.47,14.601-35.12,18.761c-2.359,0.45-4.06,2.51-4.06,4.909   c0,2.4,1.7,4.461,4.06,4.91c28.65,5.5,34.061,8.84,39.36,33.17l-31.8,132.98c-1.681,7.03-8.03,12.33-14.83,12.33   c-1.72-0.01-3.19-1.42-3.32-3.23c-1.54-20.069-6.18-43.68-12.11-61.609c-7.85-23.721-17.079-35.74-27.449-35.74   s-19.6,12.02-27.45,35.74c-5.93,17.93-10.57,41.54-12.11,61.62c-0.13,1.8-1.59,3.21-3.38,3.22c-6.74,0-13.09-5.3-14.78-12.33   l-13.04-54.54c4.98-15.97,12.49-19.1,36.97-23.8c2.36-0.45,4.06-2.51,4.06-4.91s-1.7-4.46-4.06-4.91   c-31.46-6.04-34.9-9.479-40.94-40.939c-0.45-2.36-2.51-4.061-4.91-4.061c-2.399,0-4.459,1.7-4.91,4.061   c-0.64,3.33-1.25,6.34-1.87,9.07L164.14,208.384z M166.26,260.264c3.18-2.82,5.67-6.27,7.74-10.62c0.85-1.79,1.63-3.729,2.359-5.85   c4.53,13.13,11.01,19.61,24.141,24.14c-8.86,3.061-14.7,7.01-18.95,13.29c-2.04,3.021-3.72,6.58-5.19,10.851   c-1.43-4.15-3.06-7.641-5.03-10.61c-4.26-6.42-10.13-10.431-19.11-13.53C158.08,265.904,162.63,263.494,166.26,260.264z"></path></g></svg>